<?xml version="1.0" standalone="no"?>
<!DOCTYPE svg PUBLIC "-//W3C//DTD SVG 1.1//EN" "http://www.w3.org/Graphics/SVG/1.1/DTD/svg11.dtd" >
<svg xmlns="http://www.w3.org/2000/svg" xmlns:xlink="http://www.w3.org/1999/xlink" version="1.1">
<metadata></metadata>
<defs>
<font id="programmebold_italic" horiz-adv-x="1167" >
<font-face units-per-em="2048" ascent="1681" descent="-367" />
<missing-glyph horiz-adv-x="475" />
<glyph unicode="&#xfb01;" horiz-adv-x="1300" d="M864 1016l-45 -213h-282l-170 -803h-269l170 803h-200l45 213h200l9 43q18 90 48.5 153.5t78 104.5t112 59.5t150.5 18.5q59 0 112.5 -7.5t73.5 -11.5l-47 -223q-16 4 -46 7t-52 3q-59 0 -103.5 -19.5t-60.5 -94.5l-6 -33h282zM791 0l215 1016h268l-215 -1016h-268z M1028 1262q0 61 41 104t111 43t110.5 -43t40.5 -104t-41 -104.5t-110 -43.5q-70 0 -111 43.5t-41 104.5z" />
<glyph unicode="&#xfb02;" horiz-adv-x="1300" d="M864 1016l-45 -213h-282l-170 -803h-269l170 803h-200l45 213h200l9 43q18 90 48.5 153.5t78 104.5t112 59.5t150.5 18.5q59 0 112.5 -7.5t73.5 -11.5l-47 -223q-16 4 -46 7t-52 3q-59 0 -103.5 -19.5t-60.5 -94.5l-6 -33h282zM791 0l290 1372h269l-291 -1372h-268z" />
<glyph horiz-adv-x="0" />
<glyph unicode="&#xd;" horiz-adv-x="512" />
<glyph horiz-adv-x="0" />
<glyph horiz-adv-x="0" />
<glyph unicode=" "  horiz-adv-x="475" />
<glyph unicode="&#x09;" horiz-adv-x="475" />
<glyph unicode="&#xa0;" horiz-adv-x="475" />
<glyph unicode="!" horiz-adv-x="612" d="M129 408l205 964h268l-205 -964h-268zM45 143q0 78 49 125t121 47t121 -47t49 -125q0 -76 -49 -124t-121 -48t-121 48t-49 124z" />
<glyph unicode="&#x22;" horiz-adv-x="802" d="M264 1372h254l-135 -471h-184zM612 1372h252l-135 -471h-182z" />
<glyph unicode="#" horiz-adv-x="1447" d="M578 0l137 336h-223l-138 -336h-237l137 336h-236l50 223h278l96 234h-235l47 223h278l148 356h238l-148 -356h223l148 356h237l-147 -356h235l-47 -223h-278l-97 -234h236l-49 -223h-279l-137 -336h-237zM584 559h223l96 234h-223z" />
<glyph unicode="$" horiz-adv-x="1120" d="M758 782q248 -125 248 -381q0 -86 -33 -159.5t-90.5 -131t-136 -93t-173.5 -48.5l-34 -182h-228l39 193q-86 20 -163.5 59t-131.5 80l49 241h21q20 -23 60 -50t90.5 -50.5t104.5 -39t105 -15.5q111 0 175.5 51t64.5 129q0 53 -29.5 92t-105.5 78l-156 80 q-123 63 -192.5 148t-69.5 218q0 68 23.5 133.5t71.5 121t119 94.5t167 53l39 174h227l-41 -182q98 -18 169 -53t102 -64l-56 -238h-20q-20 20 -52 43t-72 41.5t-86 30.5t-95 12q-92 0 -154.5 -36.5t-62.5 -112.5q0 -47 33.5 -80t105.5 -70z" />
<glyph unicode="%" horiz-adv-x="1798" d="M236 20l1118 1352h229v-20l-1122 -1352h-225v20zM442 621q-70 0 -124 24.5t-91 67.5t-56 100t-19 123q0 84 28.5 166t78.5 145.5t117.5 102.5t147.5 39q152 0 225.5 -89.5t73.5 -226.5q0 -86 -28.5 -168t-78.5 -144.5t-121 -101t-153 -38.5zM444 815q45 0 78 22.5 t54.5 58.5t30.5 81t9 90q0 57 -22.5 93t-71.5 36q-70 0 -120 -70.5t-50 -187.5q0 -55 24.5 -89t67.5 -34zM1307 -18q-70 0 -124.5 24.5t-91 67.5t-56 100t-19.5 123q0 84 28.5 166t79 145.5t118 102.5t147.5 39q152 0 225.5 -89.5t73.5 -226.5q0 -86 -29 -168t-79 -144.5 t-120.5 -101t-152.5 -38.5zM1309 176q45 0 77.5 22.5t54 58.5t31 81t9.5 90q0 57 -22.5 93t-72.5 36q-70 0 -119.5 -70.5t-49.5 -187.5q0 -55 24.5 -89t67.5 -34z" />
<glyph unicode="&#x26;" horiz-adv-x="1314" d="M1225 0h-267l-59 94q-59 -51 -143 -91t-201 -40q-113 0 -204 33t-156.5 90t-101.5 135t-36 170q0 94 40 169t99.5 130t128 91t128.5 55q-18 20 -37 47.5t-34 60.5t-24.5 66.5t-9.5 64.5q0 78 27.5 140.5t77 105.5t117 65.5t147.5 22.5q84 0 149.5 -24.5t110.5 -67.5 t68.5 -99.5t23.5 -119.5q0 -59 -26.5 -110.5t-69.5 -94.5t-96.5 -77t-106.5 -56l111 -180q23 -35 37 -65t22 -50q6 14 18.5 54t18.5 89l16 113h215l-22 -152q-16 -109 -50 -177t-67 -116l156 -256v-20zM330 391q0 -35 16 -68.5t46 -61.5t71 -45t90 -17q78 0 132 23.5 t95 53.5l-231 373q-98 -29 -158.5 -92.5t-60.5 -165.5zM823 1090q0 43 -28.5 74.5t-77.5 31.5q-57 0 -90 -37t-33 -84q0 -35 23.5 -74.5t50.5 -72.5q63 27 109 63t46 99z" />
<glyph unicode="'" horiz-adv-x="468" d="M264 1372h266l-135 -471h-196z" />
<glyph unicode="(" horiz-adv-x="712" d="M848 1409v-20q-115 -88 -215.5 -199t-174 -240t-116.5 -272t-43 -299q0 -94 19.5 -189.5t53.5 -181.5t78 -160.5t91 -128.5v-20h-258q-53 66 -97.5 147.5t-75 170.5t-47 181.5t-16.5 180.5q0 162 40 309.5t110.5 277.5t167 241.5t208.5 201.5h275z" />
<glyph unicode=")" horiz-adv-x="714" d="M-147 -301v20q115 88 215 199t173.5 240t116.5 272t43 299q0 94 -19.5 189.5t-53 181.5t-77.5 160.5t-91 128.5v20h252q53 -66 98 -147.5t76.5 -171t49 -181.5t17.5 -180q0 -162 -39 -309.5t-108.5 -278.5t-164.5 -242.5t-208 -199.5h-280z" />
<glyph unicode="*" horiz-adv-x="1015" d="M414 903l-260 76l100 207l248 -109l28 295h252l-69 -291l268 105l43 -219l-289 -78l152 -248l-209 -125l-123 252l-219 -250l-168 144z" />
<glyph unicode="+" horiz-adv-x="1112" d="M307 37l80 373h-354l49 233h354l80 373h258l-82 -373h361l-49 -233h-361l-80 -373h-256z" />
<glyph unicode="," horiz-adv-x="540" d="M-111 -215l197 491h293l-316 -491h-174z" />
<glyph unicode="-" horiz-adv-x="796" d="M74 410l49 233h573l-49 -233h-573z" />
<glyph unicode="." horiz-adv-x="522" d="M4 143q0 78 49 125t121 47t121 -47t49 -125q0 -76 -49 -124t-121 -48t-121 48t-49 124z" />
<glyph unicode="/" horiz-adv-x="942" d="M-59 0l825 1372h287l-826 -1372h-286z" />
<glyph unicode="0" horiz-adv-x="1247" d="M543 -29q-115 0 -201 37t-143.5 104.5t-85 161t-27.5 205.5q0 164 45 328t129 296t207 215t278 83q111 0 195 -37t142.5 -103.5t88 -160.5t29.5 -209q0 -166 -42 -330t-125 -295t-205.5 -213t-284.5 -82zM745 1165q-92 0 -164.5 -66.5t-121.5 -168t-75 -222t-26 -229.5 q0 -115 47.5 -192.5t137.5 -77.5q96 0 168.5 67.5t121 170t73 222t24.5 222.5q0 123 -48.5 198.5t-136.5 75.5z" />
<glyph unicode="1" horiz-adv-x="737" d="M160 0l223 1051l-242 -127h-20l55 252l326 196h217l-291 -1372h-268z" />
<glyph unicode="2" horiz-adv-x="1071" d="M10 209l561 506l13 10q37 33 72.5 67.5t63.5 71.5t44 76t16 80q0 53 -51 99t-156 46q-57 0 -111 -15t-101.5 -36.5t-84 -47.5t-59.5 -46h-20l53 270q20 16 57 36t84 36t102.5 27.5t112.5 11.5q115 0 200 -29t140 -78t82 -115.5t27 -142.5q0 -117 -68.5 -219t-177.5 -199 l-291 -260q-18 -16 -43.5 -37.5t-50.5 -41.5q-29 -23 -59 -50q45 2 73.5 3t81.5 1h387l-49 -233h-891z" />
<glyph unicode="3" horiz-adv-x="1062" d="M631 887q70 -10 129 -46t102 -89.5t67.5 -121t24.5 -141.5q0 -115 -45 -209t-122.5 -163.5t-184 -107.5t-229.5 -38q-55 0 -112.5 10.5t-110 28t-92.5 38t-60 38.5l49 233h21q37 -43 120.5 -77.5t184.5 -34.5q68 0 124 21.5t98 60.5t64.5 90t22.5 110q0 92 -64.5 154 t-173.5 62q-68 0 -123 -20.5t-69 -33.5h-10l39 183l249 210q16 14 36 31t39.5 31t34.5 25.5t22 15.5q-16 0 -59.5 -2t-84.5 -2h-311l49 229h809l-31 -143z" />
<glyph unicode="4" horiz-adv-x="1165" d="M18 446l725 926h340l-190 -895h172l-49 -235h-172l-51 -242h-273l51 242h-596zM682 750q18 76 30.5 123t21.5 81.5t17.5 63.5t18.5 67h-2q-25 -37 -42 -62.5t-42 -57t-61.5 -79.5t-98.5 -130l-207 -279h306z" />
<glyph unicode="5" horiz-adv-x="1110" d="M104 598l164 774h799l-49 -229h-543l-55 -258q45 33 98 47t107 14q84 0 157.5 -31.5t128 -90t85 -138.5t30.5 -178q0 -104 -42 -201.5t-121 -172.5t-191.5 -119t-253.5 -44q-68 0 -132.5 14.5t-117.5 36t-93 45t-59 42.5l52 235h20q20 -27 56 -51.5t79 -44t93.5 -30.5 t101.5 -11q70 0 131 22.5t107 62.5t72 95t26 121q0 90 -57.5 149.5t-149.5 59.5q-72 0 -133.5 -32t-96.5 -87h-213z" />
<glyph unicode="6" horiz-adv-x="1169" d="M694 1372h287v-20l-213 -244q-47 -53 -78 -87t-52.5 -56.5t-37.5 -38t-33 -29.5q35 20 127 21q82 0 156 -37t128 -96.5t86 -135.5t32 -155q0 -96 -39 -190.5t-111 -168.5t-176 -119t-233 -45q-127 0 -220.5 40t-154 105.5t-89 148.5t-28.5 169q0 92 47 190.5t131 196.5z M539 209q63 0 116.5 21.5t93 58.5t62.5 88t23 110q0 98 -64.5 163t-163.5 65q-61 0 -114.5 -21.5t-93.5 -58.5t-63.5 -88t-23.5 -111q0 -51 18.5 -93t49.5 -71.5t72 -46t88 -16.5z" />
<glyph unicode="7" horiz-adv-x="1050" d="M1221 1372l-920 -1372h-305l756 1139h-578l49 233h998z" />
<glyph unicode="8" horiz-adv-x="1181" d="M518 -29q-115 0 -203 32t-148.5 87t-91 130t-30.5 163q0 59 23.5 118.5t63.5 110t90 89t104 59.5q-20 12 -42 36.5t-38.5 54.5t-27.5 62.5t-11 65.5q0 88 37 166t101.5 134t153.5 89t193 33q106 0 190.5 -31t141.5 -83t87 -119.5t30 -141.5q0 -51 -19.5 -100t-52.5 -90 t-73 -74t-83 -51q27 -12 52.5 -40t47 -64t35 -77t13.5 -79q0 -102 -36 -189.5t-105.5 -152t-170 -101.5t-231.5 -37zM649 836q100 4 157.5 58t57.5 132q0 57 -48 98t-124 41q-100 0 -157.5 -52t-57.5 -134q0 -23 11.5 -48.5t33 -47t53 -34.5t74.5 -13zM537 207 q57 0 105 17.5t82 49t52.5 73.5t18.5 91q0 78 -60.5 133.5t-161.5 55.5q-117 0 -185.5 -66.5t-68.5 -165.5q0 -37 15.5 -70.5t43.5 -59t69 -42t90 -16.5z" />
<glyph unicode="9" d="M516 0h-291v16l217 248q45 53 77 87t53.5 56.5t38 38t32.5 29.5q-35 -20 -127 -20q-84 0 -156.5 36.5t-127 96t-86 135.5t-31.5 156q0 96 39 190t110.5 168t176 119t233.5 45q127 0 220 -40t153.5 -105.5t89 -148.5t28.5 -169q0 -92 -47 -190.5t-131 -196.5zM672 1163 q-63 0 -116.5 -21.5t-93.5 -58t-62.5 -88t-22.5 -110.5q0 -98 64.5 -163t162.5 -65q61 0 114.5 21.5t93.5 58.5t63.5 88.5t23.5 110.5q0 51 -18.5 93t-49 71.5t-72.5 46t-87 16.5z" />
<glyph unicode=":" horiz-adv-x="573" d="M20 143q0 78 49.5 125t120.5 47q72 0 121 -47t49 -125q0 -76 -49 -124t-121 -48t-121 48t-49 124zM174 844q0 78 49 125t121 47t121 -47t49 -125q0 -76 -49 -124t-121 -48t-121 48t-49 124z" />
<glyph unicode=";" horiz-adv-x="579" d="M170 844q0 78 49 125t121 47t121 -47t49 -125q0 -76 -49 -124t-121 -48t-121 48t-49 124zM-88 -215l197 491h292l-315 -491h-174z" />
<glyph unicode="&#x3c;" horiz-adv-x="1044" d="M852 213l-49 -213h-21l-735 494v24l950 498h21l-55 -258l-517 -271z" />
<glyph unicode="=" horiz-adv-x="1155" d="M123 616l53 242h920l-54 -242h-919zM33 188l51 242h920l-52 -242h-919z" />
<glyph unicode="&#x3e;" horiz-adv-x="1042" d="M158 803l49 213h20l736 -494v-24l-951 -498h-20l55 258l516 270z" />
<glyph unicode="?" horiz-adv-x="956" d="M537 813q61 41 110 90t49 121q0 61 -48 103t-136 42q-119 0 -199 -42t-127 -85h-20l59 271q47 35 135.5 65.5t192.5 30.5q96 0 174 -31.5t132 -84t83 -118t29 -135.5q0 -104 -60.5 -194t-189.5 -178l-90 -62q-66 -47 -83.5 -97t-27.5 -101h-264l2 14q6 37 14.5 78 t26.5 83t49 82t80 74zM193 143q0 78 49 125t120 47q72 0 121 -47t49 -125q0 -76 -49 -124t-121 -48t-120.5 48t-48.5 124z" />
<glyph unicode="@" horiz-adv-x="2070" d="M1223 696q-23 23 -64 45.5t-92 22.5q-61 0 -114.5 -21.5t-92.5 -59.5t-61.5 -91t-22.5 -115q0 -41 15.5 -76.5t42 -62.5t59.5 -42t70 -15q53 0 101 18t83 51zM1520 -2q-123 0 -208 52t-120 120q-47 -47 -110.5 -82t-166.5 -35q-84 0 -156.5 32t-125.5 89t-85 135t-32 168 q0 106 44 198.5t116 161t164 108.5t188 40q33 0 70 -8t69.5 -20.5t59 -28t39.5 -29.5l12 68h256l-117 -549q-4 -18 -6 -41t-2 -35q0 -53 35 -83t82 -30q35 0 68.5 18.5t60 60.5t43 111.5t16.5 174.5q0 129 -50 239.5t-138 193.5t-209 130t-262 47q-154 0 -282 -50t-222 -140 t-146.5 -216t-52.5 -278t54.5 -275.5t147.5 -210.5t217 -135.5t263 -48.5q115 0 213.5 24t157.5 58h14v-258q-66 -31 -157 -48t-230 -17q-219 0 -395 70.5t-300 193.5t-190.5 289t-66.5 354q0 195 69.5 364t198.5 294.5t310.5 198.5t402.5 73q213 0 382 -76t285.5 -196.5 t179 -271t62.5 -302.5q0 -158 -37 -271.5t-98 -187t-143 -108.5t-172 -35z" />
<glyph unicode="A" horiz-adv-x="1368" d="M1266 0h-271l-47 274h-633l-161 -274h-289l854 1372h278zM807 1106q-12 -20 -24.5 -42t-30 -51.5t-41 -71.5t-58.5 -101l-200 -336h456l-57 336q-10 63 -17.5 105t-12.5 72t-8 50t-5 39h-2z" />
<glyph unicode="B" horiz-adv-x="1306" d="M315 1372h562q98 0 171.5 -26.5t123 -74.5t74 -112.5t24.5 -138.5q0 -49 -18.5 -99.5t-50.5 -95.5t-75 -81.5t-92 -57.5q84 -45 124 -123t40 -157q0 -72 -26.5 -144t-87 -130t-158 -95t-238.5 -37h-663zM537 1135l-70 -328h307q102 0 166 48t64 146q0 63 -47.5 98.5 t-120.5 35.5h-299zM346 238h338q113 0 178.5 45t65.5 143q0 66 -46 112t-137 46h-325z" />
<glyph unicode="C" horiz-adv-x="1265" d="M1157 313l-57 -260q-59 -41 -151.5 -65.5t-182.5 -24.5q-172 0 -301 58.5t-214 151.5t-127 209t-42 232q0 154 55.5 297.5t156.5 254t242.5 177t313.5 66.5q82 0 152.5 -17.5t129 -42t102.5 -54t71 -54.5l-56 -237h-20q-27 29 -65 58.5t-85 53t-104 37.5t-125 14 q-96 0 -185.5 -40t-158 -111.5t-109.5 -174t-41 -227.5q0 -84 33 -157.5t89.5 -129t133 -88t164.5 -32.5q117 0 208 29.5t153 76.5h20z" />
<glyph unicode="D" horiz-adv-x="1415" d="M770 1372q143 0 256 -45t189.5 -123t117.5 -180t41 -219q0 -156 -47 -301.5t-150.5 -257t-268.5 -179t-398 -67.5h-485l290 1372h455zM530 1135l-190 -897h217q125 0 225.5 42t171 116.5t108.5 179t38 229.5q0 160 -101.5 245t-265.5 85h-203z" />
<glyph unicode="E" horiz-adv-x="1212" d="M1286 1372l-51 -237h-698l-62 -289h658l-50 -238h-657l-80 -370h711l-49 -238h-983l290 1372h971z" />
<glyph unicode="F" horiz-adv-x="1155" d="M1255 1372l-51 -237h-667l-62 -291h623l-49 -236h-623l-129 -608h-272l290 1372h940z" />
<glyph unicode="G" horiz-adv-x="1355" d="M1180 102q-82 -59 -202 -99t-267 -40q-129 0 -244 50t-200 138.5t-135 205t-50 251.5q0 164 58.5 309.5t164 255t250.5 173t317 63.5q68 0 134.5 -14.5t125 -36t105.5 -48t74 -50.5l-58 -242h-20q-51 55 -144.5 100t-216.5 45q-96 0 -188 -34.5t-163.5 -104.5 t-116 -174.5t-44.5 -241.5q0 -100 36 -175t93.5 -125t131 -74.5t151.5 -24.5q66 0 117 15.5t74 27.5l61 283h-346l49 229h594z" />
<glyph unicode="H" horiz-adv-x="1429" d="M887 0l129 610h-590l-129 -610h-272l290 1372h273l-113 -524h590l113 524h270l-291 -1372h-270z" />
<glyph unicode="I" horiz-adv-x="569" d="M25 0l290 1372h273l-291 -1372h-272z" />
<glyph unicode="J" horiz-adv-x="872" d="M694 401q-29 -133 -70.5 -207.5t-97.5 -119.5q-72 -59 -170 -81t-186 -22q-80 0 -150.5 16.5t-105.5 30.5l45 226q29 -10 90.5 -21.5t130.5 -11.5q47 0 89 8t71 31q12 10 24.5 22.5t24.5 38t25.5 70.5t29.5 123l185 868h272z" />
<glyph unicode="K" horiz-adv-x="1296" d="M758 760l450 -740v-20h-299l-350 600l-166 -145l-96 -455h-272l290 1372h271l-119 -563l625 563h338v-20z" />
<glyph unicode="L" horiz-adv-x="1081" d="M25 0l290 1372h273l-242 -1134h641l-49 -238h-913z" />
<glyph unicode="M" horiz-adv-x="1693" d="M559 846q-6 27 -12 58.5t-12.5 64t-11.5 64.5t-7 57h-2q-12 -74 -22.5 -137.5t-26.5 -139.5l-172 -813h-268l290 1372h379l113 -577q10 -47 16 -89t17 -104h2q23 47 47 90t51 86l373 594h399l-291 -1372h-268l172 813q14 66 24.5 110t17.5 74.5t13 52t11 40.5h-2 q-10 -18 -20.5 -38t-26 -47.5t-39 -66.5t-60.5 -96l-323 -510h-256z" />
<glyph unicode="N" horiz-adv-x="1439" d="M893 0l-313 725q-10 23 -22.5 54.5l-25 63t-23.5 62.5t-17 51h-3q-2 -20 -6 -47.5t-10 -59.5t-12 -64.5t-12 -63.5l-152 -721h-272l290 1372h256l324 -739q29 -66 50.5 -124t37.5 -99h2q6 49 19.5 110.5t23.5 112.5l158 739h272l-291 -1372h-274z" />
<glyph unicode="O" horiz-adv-x="1572" d="M874 1409q156 0 279 -53t207 -142.5t128 -206t44 -241.5q0 -174 -61.5 -320.5t-168 -254t-252 -168t-313.5 -60.5q-156 0 -277.5 52.5t-205.5 140.5t-128 204.5t-44 247.5q0 170 61.5 316.5t168 254t251.5 169t311 61.5zM1253 766q0 84 -26.5 156.5t-75.5 127t-121 86 t-160 31.5q-113 0 -207 -43t-161.5 -117.5t-104.5 -177t-37 -221.5q0 -86 29 -159.5t80 -127t119.5 -84t148.5 -30.5q123 0 219.5 46t163 123t100 178t33.5 212z" />
<glyph unicode="P" horiz-adv-x="1224" d="M25 0l290 1372h523q90 0 165.5 -29.5t131 -82t87 -124t31.5 -155.5q0 -131 -46 -227.5t-126 -160t-185 -94t-222 -30.5h-279l-98 -469h-272zM446 707h252q129 0 203 73.5t74 184.5q0 84 -56.5 127t-148.5 43h-233z" />
<glyph unicode="Q" horiz-adv-x="1576" d="M874 1409q156 0 279 -53t207 -142.5t128 -206t44 -241.5q0 -178 -65.5 -325.5t-176.5 -256.5l144 -200v-21h-267l-59 90q-84 -43 -175 -66.5t-196 -23.5q-156 0 -277.5 52.5t-205.5 140.5t-128 204.5t-44 247.5q0 170 61.5 316.5t168 254t251.5 169t311 61.5zM1253 766 q0 84 -26.5 156.5t-75.5 127t-121 86t-160 31.5q-113 0 -207 -43t-161.5 -117.5t-104.5 -177t-37 -221.5q0 -86 29 -159.5t80 -127t119.5 -84t148.5 -30.5q66 0 123.5 13t108.5 36l-187 262v21h267l92 -142q57 76 84.5 170.5t27.5 198.5z" />
<glyph unicode="R" horiz-adv-x="1271" d="M315 1372h512q86 0 163 -26.5t134.5 -76.5t90 -123t32.5 -165q0 -96 -29.5 -174t-84 -138.5t-129 -100.5t-164.5 -60l295 -488v-20h-291l-287 492h-156l-104 -492h-272zM449 715h241q123 0 201 67.5t78 182.5q0 74 -49.5 122t-147.5 48h-235z" />
<glyph unicode="S" horiz-adv-x="1060" d="M733 782q248 -125 248 -381q0 -96 -40 -176t-109.5 -138t-165 -91t-205.5 -33q-61 0 -121.5 14.5t-117 36t-105.5 49t-86 56.5l49 241h20q20 -23 60.5 -50t90.5 -50.5t104.5 -39t105.5 -15.5q111 0 175 51t64 129q0 53 -29.5 92t-105.5 78l-155 80q-123 63 -193 148 t-70 218q0 76 30 149t89.5 130t148.5 93t208 36q70 0 134 -13.5t116.5 -34t91.5 -43t59 -40.5l-55 -238h-21q-20 20 -52 43t-72 41.5t-86 30.5t-95 12q-92 0 -154.5 -36.5t-62.5 -112.5q0 -47 34 -80t105 -70z" />
<glyph unicode="T" horiz-adv-x="1208" d="M344 0l240 1135h-443l52 237h1157l-52 -237h-442l-240 -1135h-272z" />
<glyph unicode="U" horiz-adv-x="1376" d="M618 -37q-129 0 -226 36t-161.5 92t-97.5 128t-33 146q0 31 2 64.5t11 68.5l186 874h272l-182 -858q-4 -23 -9 -48.5t-5 -45.5q0 -104 64.5 -155.5t178.5 -51.5q129 0 216.5 73.5t119.5 227.5l183 858h272l-186 -874q-55 -262 -205 -398.5t-400 -136.5z" />
<glyph unicode="V" horiz-adv-x="1341" d="M156 1372h270l135 -837q6 -35 12.5 -74t12.5 -77t10 -74t8 -62h2q27 63 59.5 126.5t82.5 157.5l438 840h291l-756 -1372h-309z" />
<glyph unicode="W" horiz-adv-x="2017" d="M1092 1057q-23 -66 -47.5 -127.5t-53.5 -122.5l-366 -807h-312l-147 1372h262l66 -758q6 -78 10 -152.5t8 -152.5h2q10 31 26.5 71t34 82t35 82t33.5 72l348 756h312l71 -756q8 -78 13.5 -153.5t9.5 -153.5h2q8 20 24.5 62.5t35 88.5t35.5 89t30 67l344 756h276 l-616 -1372h-330l-84 805q-6 63 -11 125.5t-9 126.5h-2z" />
<glyph unicode="X" horiz-adv-x="1327" d="M-133 20l668 705l-338 627v20h286l242 -461l420 461h328v-20l-629 -658l370 -674v-20h-299l-264 510l-473 -510h-311v20z" />
<glyph unicode="Y" horiz-adv-x="1263" d="M762 604l-127 -604h-273l136 645l-334 707v20h268l236 -518l438 518h311v-20z" />
<glyph unicode="Z" horiz-adv-x="1159" d="M227 1372h1057l-887 -1134h641l-49 -238h-1087l886 1135h-612z" />
<glyph unicode="[" horiz-adv-x="710" d="M340 1409h485l-43 -199h-223l-278 -1312h225l-43 -199h-488z" />
<glyph unicode="\" horiz-adv-x="876" d="M451 0l-244 1372h256l244 -1372h-256z" />
<glyph unicode="]" horiz-adv-x="710" d="M356 -301h-485l43 199h223l279 1312h-226l43 199h488z" />
<glyph unicode="^" horiz-adv-x="919" d="M565 1016h-2l-186 -330h-271l433 686h186l141 -686h-254z" />
<glyph unicode="_" horiz-adv-x="1112" d="M-86 -319l49 233h897l-51 -233h-895z" />
<glyph unicode="`" horiz-adv-x="567" d="M27 1372h327l152 -248h-236z" />
<glyph unicode="a" horiz-adv-x="1048" d="M190 745l48 230q37 20 124 44.5t195 24.5q88 0 163 -19t130 -55t87 -88.5t32 -119.5q0 -27 -4 -54.5t-11 -60.5l-137 -647h-254l17 78q-16 -18 -45 -38t-64 -35t-75 -24.5t-79 -9.5q-76 0 -135 24.5t-101 67.5t-64.5 99.5t-22.5 122.5q0 74 34.5 140.5t98 116.5t154 80.5 t198.5 30.5q27 0 58.5 -3t60.5 -8t51.5 -11t32.5 -10q6 25 10 45t4 41q0 53 -50 84.5t-142 31.5q-106 0 -184 -27.5t-109 -50.5h-21zM471 463q-47 0 -88 -13.5t-71.5 -36t-48 -51t-17.5 -61.5q0 -49 38 -85t109 -36q59 0 120.5 26.5t90.5 55.5l37 172q-16 10 -66.5 19.5 t-103.5 9.5z" />
<glyph unicode="b" horiz-adv-x="1236" d="M641 811q-72 0 -131 -24.5t-92 -53.5l-92 -432q10 -14 32.5 -31.5t54 -32t69.5 -23.5t77 -9q76 0 137.5 31.5t104.5 82t65.5 116t22.5 132.5q0 51 -18.5 96.5t-52.5 78t-79 51t-98 18.5zM719 1044q100 0 182 -39.5t140.5 -105t91 -150.5t32.5 -174q0 -135 -48 -246.5 t-131 -190.5t-192.5 -123t-232.5 -44q-104 0 -185 39t-126 82l-19 -92h-237l291 1372h268l-84 -391q35 23 93.5 43t156.5 20z" />
<glyph unicode="c" horiz-adv-x="999" d="M879 295l-52 -248q-59 -37 -136 -56.5t-148 -19.5q-123 0 -217.5 38t-158 103.5t-96 152.5t-32.5 184q0 137 48 246.5t129 187.5t187.5 119.5t221.5 41.5q61 0 116.5 -13t100.5 -33.5t79.5 -45t53.5 -45.5l-47 -219h-21q-41 51 -107.5 86t-168.5 35q-57 0 -114.5 -21.5 t-104.5 -64.5t-77 -107.5t-30 -150.5q0 -61 22.5 -109.5t62.5 -82t93.5 -51t114.5 -17.5q82 0 148.5 27.5t111.5 62.5h21z" />
<glyph unicode="d" horiz-adv-x="1236" d="M651 813q-70 0 -132 -28.5t-108 -78t-74 -116t-28 -141.5q0 -55 18.5 -100.5t50.5 -77t76 -50t93 -18.5q82 0 146.5 32.5t99.5 71.5l86 414q-29 35 -89.5 63.5t-138.5 28.5zM653 1044q96 0 169 -31.5t106 -60.5l90 420h268l-291 -1372h-237l18 92q-25 -27 -59.5 -48 t-74.5 -37.5t-83 -26t-80 -9.5q-102 0 -185 36t-141.5 99.5t-89 148.5t-30.5 181q0 123 49 233.5t133 193.5t197.5 132t240.5 49z" />
<glyph unicode="e" horiz-adv-x="1064" d="M778 602q6 25 6 49q0 72 -53 125t-137 53q-106 0 -183 -61t-108 -166h475zM35 440q0 119 44 228.5t119.5 192.5t178 133t221.5 50q106 0 185 -39.5t131.5 -101t78 -137.5t25.5 -150q0 -47 -11.5 -106t-31.5 -107h-694q6 -94 80.5 -150t203.5 -56q88 0 175 28.5t137 69.5 h20l-49 -234q-57 -35 -137 -62.5t-205 -27.5q-113 0 -201 38t-147.5 102.5t-91 149.5t-31.5 179z" />
<glyph unicode="f" horiz-adv-x="796" d="M864 1016l-45 -213h-282l-170 -803h-269l170 803h-200l45 213h200l9 43q18 90 48.5 153.5t78 104.5t112 59.5t150.5 18.5q59 0 112.5 -7.5t73.5 -11.5l-47 -223q-16 4 -46 7t-52 3q-59 0 -103.5 -19.5t-60.5 -94.5l-6 -33h282z" />
<glyph unicode="g" horiz-adv-x="1220" d="M999 102q-23 -113 -65.5 -199.5t-115.5 -147t-177 -91.5t-250 -31q-145 0 -239.5 31t-157.5 60l45 221h20q66 -33 147 -59.5t187 -26.5q57 0 110.5 8t96.5 29.5t75 55.5t44 87l16 72q-39 -29 -105.5 -51.5t-144.5 -22.5q-104 0 -187 36t-139.5 97t-86 141t-29.5 170 q0 104 43 205.5t121 181.5t184.5 128t235.5 48q100 0 184 -39.5t123 -93.5l22 105h238zM557 264q74 0 137.5 29t91.5 63l74 355q-27 35 -86 68.5t-145 33.5q-63 0 -119.5 -25.5t-99.5 -68.5t-68 -102.5t-25 -127.5q0 -104 69 -164.5t171 -60.5z" />
<glyph unicode="h" horiz-adv-x="1142" d="M463 950q53 39 122.5 66.5t147.5 27.5q74 0 134.5 -21.5t103.5 -60t66.5 -90t23.5 -112.5q0 -59 -14 -123l-136 -637h-268l129 614q6 33 6 60q0 61 -41 99t-119 38q-37 0 -67.5 -9t-56 -22.5t-46 -28t-32.5 -24.5l-154 -727h-268l291 1372h268z" />
<glyph unicode="i" horiz-adv-x="503" d="M-6 0l215 1016h268l-215 -1016h-268zM231 1262q0 61 41 104t111 43t111 -43t41 -104t-41 -104.5t-111 -43.5t-111 43.5t-41 104.5z" />
<glyph unicode="j" horiz-adv-x="512" d="M217 1016h268l-221 -1045q-12 -55 -25.5 -94t-29.5 -67.5t-35.5 -51t-46.5 -43.5q-41 -35 -102.5 -54t-149.5 -19q-68 0 -116 7t-68 13l47 219q16 -4 50 -9t65 -5q23 0 48 4t52 25q18 16 27.5 35.5t17.5 50.5zM236 1262q0 61 40.5 104t110.5 43t111 -43t41 -104 t-41 -104.5t-111 -43.5t-110.5 43.5t-40.5 104.5z" />
<glyph unicode="k" horiz-adv-x="1067" d="M598 510l354 -490v-20h-307l-295 420l-88 -420h-268l291 1372h268l-162 -762l422 406h313v-21z" />
<glyph unicode="l" horiz-adv-x="503" d="M-6 0l291 1372h268l-291 -1372h-268z" />
<glyph unicode="m" horiz-adv-x="1753" d="M262 0h-268l215 1016h237l-20 -98q47 55 124 90.5t159 35.5q100 0 179 -35.5t118 -111.5q23 27 56.5 52.5t76.5 47t92 34.5t102 13q70 0 131.5 -16t107.5 -52t72.5 -90.5t26.5 -127.5q0 -29 -3 -58.5t-11 -62.5l-135 -637h-269l129 614q4 20 6.5 40t2.5 30q0 57 -38 92 t-110 35q-61 0 -118.5 -29.5t-90.5 -70.5q-4 -39 -12 -74l-135 -637h-269l130 614q8 35 8 70q0 61 -41 94t-107 33t-114 -27.5t-78 -56.5z" />
<glyph unicode="n" horiz-adv-x="1142" d="M262 0h-268l215 1016h237l-20 -94q53 47 134 84.5t173 37.5q74 0 134.5 -21.5t103.5 -60t66.5 -90t23.5 -112.5q0 -59 -14 -123l-136 -637h-268l129 614q6 33 6 60q0 61 -40 98t-117 37q-63 0 -119 -27.5t-86 -62.5z" />
<glyph unicode="o" horiz-adv-x="1198" d="M625 1044q115 0 208 -34.5t158.5 -96t101 -148.5t35.5 -192q0 -121 -44 -229t-122.5 -191t-186 -132.5t-232.5 -49.5q-113 0 -206 33t-160.5 94.5t-104.5 148.5t-37 193q0 119 45 228.5t125 193.5t187.5 133t232.5 49zM303 440q0 -49 17.5 -91t49 -73.5t74.5 -50 t97 -18.5q82 0 141 33.5t99 87t59.5 119t19.5 126.5q0 49 -16.5 91.5t-47 75t-73.5 51t-98 18.5q-74 0 -134.5 -33t-101.5 -85t-63.5 -117.5t-22.5 -133.5z" />
<glyph unicode="p" horiz-adv-x="1236" d="M641 811q-72 0 -129 -23.5t-94 -58.5l-92 -428q10 -14 32.5 -31.5t54 -32t69.5 -23.5t77 -9q76 0 137.5 31.5t104.5 82t65.5 116t22.5 132.5q0 51 -18.5 96.5t-52.5 78t-79 51t-98 18.5zM449 1016l-17 -68q39 35 109.5 65.5t177.5 30.5q100 0 182 -39.5t140.5 -105 t91 -150.5t32.5 -174q0 -135 -48 -246.5t-131 -190.5t-192.5 -123t-232.5 -44q-92 0 -163.5 29t-118.5 68l-89 -406h-268l287 1354h240z" />
<glyph unicode="q" horiz-adv-x="1236" d="M651 813q-70 0 -132 -28.5t-108 -78t-74 -116t-28 -141.5q0 -55 18.5 -100.5t50.5 -77t76 -50t93 -18.5q80 0 144.5 31.5t101.5 72.5l86 414q-29 35 -89.5 63.5t-138.5 28.5zM973 1016h237l-288 -1354h-269l88 397q-53 -41 -125.5 -64.5t-136.5 -23.5q-102 0 -185 36 t-141.5 99.5t-89 148.5t-30.5 181q0 123 49 233.5t133 193.5t197.5 132t240.5 49q51 0 99.5 -11t88.5 -28.5t68.5 -37t44.5 -33.5z" />
<glyph unicode="r" horiz-adv-x="774" d="M784 766q-18 6 -56 10t-81 4q-31 0 -65.5 -8t-68.5 -22.5t-62.5 -34t-47.5 -41.5l-141 -674h-268l215 1016h237l-26 -119q20 25 49 50.5t64.5 47t82 35.5t101.5 14q47 0 73.5 -6t47.5 -14z" />
<glyph unicode="s" horiz-adv-x="870" d="M739 715q-41 41 -106.5 72.5t-134.5 31.5q-57 0 -90 -24.5t-33 -57.5q0 -41 41 -70.5t86 -52.5q145 -74 200.5 -147.5t55.5 -167.5q0 -80 -34 -140.5t-91.5 -102.5t-134 -63.5t-162.5 -21.5q-49 0 -102.5 11.5t-102.5 29t-89 37t-60 35.5l55 219h20q23 -20 55.5 -38.5 t69.5 -33t75 -23.5t75 -9q78 0 119 24.5t41 65.5q0 49 -44.5 77.5t-111.5 63.5q-111 55 -168 128t-57 179q0 59 24.5 114.5t73.5 98.5t120.5 68.5t164.5 25.5q49 0 96 -9t88 -24.5t73.5 -34t57.5 -36.5l-49 -225h-21z" />
<glyph unicode="t" horiz-adv-x="792" d="M547 803l-105 -486q-2 -10 -3 -19t-1 -19q0 -45 34 -60.5t85 -15.5q23 0 56.5 3t52.5 7l-48 -219q-10 -2 -31.5 -5t-48 -5t-57 -4.5t-61.5 -2.5q-47 0 -94 10.5t-85 34t-61.5 62.5t-23.5 96q0 25 4 55.5t12 71.5l107 496h-218l45 213h218l57 268h268l-57 -268h250 l-45 -213h-250z" />
<glyph unicode="u" horiz-adv-x="1130" d="M836 1016h268l-215 -1016h-238l21 94q-53 -47 -131 -85t-170 -38q-72 0 -131.5 22.5t-102.5 61.5t-66.5 90.5t-23.5 110.5t14 123l136 637h268l-129 -615q-6 -35 -6 -59q0 -137 155 -137q29 0 58.5 10t57.5 25.5t51.5 34t35.5 36.5z" />
<glyph unicode="v" horiz-adv-x="1124" d="M586 0h-277l-209 1016h265l98 -551q10 -63 17 -113.5t12 -89.5h2q8 16 15 32.5t18.5 39t27.5 53.5t41 78l297 551h291z" />
<glyph unicode="w" horiz-adv-x="1720" d="M889 745q-20 -49 -41 -100t-43 -100l-242 -545h-307l-147 1016h258l73 -574q12 -88 19 -180h2q33 88 74 178l256 576h294l41 -578q4 -45 6.5 -88t4.5 -88h2q35 90 75 176l281 578h277l-533 -1016h-299l-39 545q-4 49 -6 100t-4 100h-2z" />
<glyph unicode="x" horiz-adv-x="1083" d="M381 528l-283 467v21h275l178 -314l283 314h294v-21l-458 -489l297 -486v-20h-275l-192 332l-297 -332h-297v20z" />
<glyph unicode="y" horiz-adv-x="1120" d="M324 63l-226 953h267l106 -549q14 -80 25 -148h4q16 41 36.5 78t43.5 76l319 543h289l-842 -1354h-264z" />
<glyph unicode="z" horiz-adv-x="958" d="M-61 0l600 782h-449l49 234h862l-602 -783h426l-49 -233h-837z" />
<glyph unicode="{" horiz-adv-x="649" d="M313 621q33 -16 48.5 -43t15.5 -76q0 -25 -3 -56.5t-14 -72.5l-65 -310q-12 -55 -12 -88q0 -45 33.5 -62t119.5 -17l-43 -197h-63q-158 0 -239 47t-81 145q0 10 2 29t13.5 72t33 156.5t60.5 285.5q6 25 6 45q0 61 -64 74l29 139q47 8 72.5 38t36.5 81l65 313 q18 86 46 141.5t76 87t123 44t185 12.5h64l-43 -197q-59 0 -95 -8t-57.5 -27.5t-32 -52t-20.5 -80.5l-37 -172q-12 -61 -26.5 -102t-33 -69.5t-41 -46t-53.5 -29.5z" />
<glyph unicode="|" horiz-adv-x="591" d="M238 -301h-263l365 1710h262z" />
<glyph unicode="}" horiz-adv-x="653" d="M336 553q-33 16 -48.5 43t-15.5 76q0 25 3.5 56.5t13.5 72.5l53 243q12 55 12 89q0 45 -33.5 62t-119.5 17l43 197h63q176 0 248 -50t72 -142q0 -41 -13 -93l-82 -385q-6 -29 -6 -47q0 -29 13.5 -47t48.5 -24l-29 -140q-47 -8 -71.5 -37.5t-34.5 -81.5l-80 -378 q-23 -90 -49.5 -145.5t-73.5 -86.5t-121 -42t-186 -11h-64l43 197q59 0 95 8t57.5 27.5t32 52t20.5 79.5l49 238q8 39 19.5 76t28 69.5t42 60.5t64.5 46h6z" />
<glyph unicode="~" horiz-adv-x="1067" d="M84 432l55 258q27 23 84.5 46.5t132.5 23.5q68 0 121 -25.5t88 -48.5q33 -20 78 -48t113 -28q53 0 103 18.5t89 47.5h21l-56 -256q-12 -10 -34.5 -22.5t-53 -22.5t-65.5 -17.5t-72 -7.5q-88 0 -137 29t-84 51q-29 18 -77 43t-103 25q-53 0 -101.5 -19.5t-81.5 -46.5h-20z " />
<glyph unicode="&#xa1;" horiz-adv-x="579" d="M432 608l-201 -946h-268l201 946h268zM516 872q0 -78 -49 -125t-121 -47t-121 47.5t-49 124.5q0 76 49 124t121 48t121 -48t49 -124z" />
<glyph unicode="&#xa2;" horiz-adv-x="1044" d="M899 295l-51 -248q-47 -31 -108.5 -48t-121.5 -24l-38 -188h-228l43 207q-82 23 -144.5 66.5t-105.5 103t-64.5 132.5t-21.5 153q0 125 41 228t111 179t162 123t196 59l41 189h228l-43 -205q70 -20 122 -53t78 -62l-47 -219h-20q-41 51 -107.5 86t-169.5 35 q-57 0 -114.5 -21.5t-104.5 -64.5t-76.5 -107.5t-29.5 -150.5q0 -61 22.5 -109.5t62.5 -82t93 -51t114 -17.5q82 0 149 27.5t112 62.5h20z" />
<glyph unicode="&#xa3;" horiz-adv-x="1079" d="M152 815h176q-23 45 -35 102.5t-12 90.5q0 80 30.5 152.5t89 127.5t144.5 88t196 33q55 0 104.5 -13.5t91.5 -34t74.5 -45t53.5 -44.5l-55 -260h-21q-14 25 -36.5 51.5t-54.5 49t-69.5 36.5t-83.5 14q-92 0 -141 -52t-49 -144q0 -78 37 -152h299l-41 -197h-215 q6 -35 6 -71q0 -43 -15.5 -87t-43 -84t-66.5 -75t-86 -57q8 -2 64 -2h438l-51 -242h-904l46 221q63 16 124.5 43t110.5 67t79 93t30 123q0 18 -5.5 35.5t-9.5 35.5h-241z" />
<glyph unicode="&#xa4;" horiz-adv-x="1196" d="M1020 631q0 -109 -51 -199l100 -98l-164 -162l-96 96q-92 -51 -203 -51t-203 51l-96 -96l-164 162l99 98q-23 43 -36 93t-13 106q0 53 13 103t36 95l-99 99l164 162l96 -99q45 25 96.5 39t106.5 14t106.5 -14t96.5 -39l96 99l164 -162l-100 -99q51 -92 51 -198zM807 631 q0 88 -57.5 145.5t-143.5 57.5t-143 -57.5t-57 -145.5q0 -90 57 -146.5t143 -56.5t143.5 56.5t57.5 146.5z" />
<glyph unicode="&#xa5;" horiz-adv-x="1384" d="M268 786h221l-266 566v20h269l235 -518l438 518h312v-20l-496 -566h190l-41 -196h-313l-24 -121h313l-41 -197h-313l-58 -272h-272l57 272h-317l41 197h317l25 121h-318z" />
<glyph unicode="&#xa6;" horiz-adv-x="600" d="M199 725l145 684h262l-145 -684h-262zM-20 -299l147 684h262l-147 -684h-262z" />
<glyph unicode="&#xa7;" horiz-adv-x="1011" d="M639 1188q-61 0 -99 -25.5t-38 -72.5q0 -33 26.5 -69t96.5 -83l127 -88q92 -63 133 -130t41 -145q0 -123 -66.5 -215t-165.5 -147h-2q27 -35 49.5 -90t22.5 -115q0 -84 -32 -153.5t-91 -118.5t-144 -76t-192 -27q-117 0 -199.5 34t-125.5 65l47 221h20 q37 -35 110.5 -66.5t164.5 -31.5q66 0 116.5 29.5t50.5 84.5q0 45 -32.5 86t-108.5 95l-139 100q-53 39 -99.5 106.5t-46.5 155.5q0 113 71 202t173 136l15 6q-35 39 -62 94.5t-27 118.5q0 158 108 249t300 91q47 0 94 -10t90 -25.5t77 -33t56 -33.5l-47 -226h-20 q-16 18 -45 37t-62.5 34t-71.5 25.5t-73 10.5zM315 557q0 -59 60.5 -106.5t146.5 -100.5q68 27 109 69t41 107q0 31 -12.5 54.5t-36 46t-57.5 44t-77 48.5q-72 -6 -123 -53.5t-51 -108.5z" />
<glyph unicode="&#xa8;" horiz-adv-x="835" d="M332 1251q0 59 39 99.5t104 40.5q66 0 104.5 -40t38.5 -100q0 -59 -38.5 -99t-104.5 -40t-104.5 40t-38.5 99zM758 1251q0 59 39 99.5t104 40.5q66 0 104.5 -40t38.5 -100q0 -59 -38.5 -99t-104.5 -40t-104.5 40t-38.5 99z" />
<glyph unicode="&#xa9;" horiz-adv-x="1732" d="M1659 678q0 -162 -60.5 -302t-165 -244.5t-245.5 -164t-303 -59.5q-164 0 -305.5 59.5t-246 164t-163.5 244.5t-59 302t59 302t163.5 244.5t246 164t305.5 59.5q162 0 303 -59.5t245.5 -164t165 -244.5t60.5 -302zM1477 678q0 125 -46.5 234.5t-126 190.5t-187 128 t-232.5 47q-127 0 -235.5 -47t-188.5 -128t-125 -190.5t-45 -234.5q0 -123 45 -232.5t125 -190.5t188.5 -128t235.5 -47q125 0 233.5 47t188 128t125 190.5t45.5 232.5zM1161 539v-187q-47 -31 -115.5 -52t-130.5 -21q-90 0 -165.5 28.5t-131 81.5t-86 128t-30.5 165 t31.5 165t87 128t132 82.5t167.5 29.5q53 0 116.5 -19t110.5 -50v-176h-12q-39 39 -95.5 59.5t-117.5 20.5q-57 0 -100.5 -20.5t-73 -53.5t-45 -77t-15.5 -89q0 -49 16.5 -91t47 -75t72.5 -51.5t96 -18.5q78 0 138 29t93 64h10z" />
<glyph unicode="&#xaa;" horiz-adv-x="720" d="M266 1214l33 148q29 16 79 27.5t114 11.5q113 0 180 -49t67 -115q0 -39 -8 -74l-82 -379h-168l8 37q-27 -20 -62.5 -36.5t-96.5 -16.5q-84 0 -131 55.5t-47 132.5q0 49 22.5 89t60 69t90 44.5t113.5 15.5q29 0 66 -6.5t51 -12.5q4 23 5 30t1 11q0 33 -30.5 51.5 t-86.5 18.5q-47 0 -92 -14.5t-78 -37.5h-8zM436 1057q-43 0 -82 -24.5t-39 -67.5q0 -27 18.5 -43.5t49.5 -16.5q47 0 78 16.5t47 28.5l22 90q-12 6 -39.5 11.5t-54.5 5.5z" />
<glyph unicode="&#xab;" horiz-adv-x="1230" d="M57 543l346 391h295v-21l-364 -395l176 -395v-21h-270zM586 543l346 391h295v-21l-365 -395l176 -395v-21h-270z" />
<glyph unicode="&#xac;" horiz-adv-x="1161" d="M950 188h-272l90 428h-672l54 242h944z" />
<glyph unicode="&#xad;" horiz-adv-x="796" d="M74 410l49 233h573l-49 -233h-573z" />
<glyph unicode="&#xae;" horiz-adv-x="1730" d="M1053 283l-203 301h-78v-301h-176v790h346q72 0 123 -20.5t84 -55t48 -79t15 -93.5q0 -102 -55 -155.5t-125 -69.5l219 -307v-10h-198zM772 735h139q66 0 95.5 23.5t29.5 66.5q0 47 -29.5 70t-99.5 23h-135v-183zM1659 678q0 -162 -60.5 -302t-165 -244.5t-245.5 -164 t-303 -59.5q-164 0 -305.5 59.5t-246 164t-163.5 244.5t-59 302t59 302t163.5 244.5t246 164t305.5 59.5q162 0 303 -59.5t245.5 -164t165 -244.5t60.5 -302zM1477 678q0 125 -46.5 234.5t-126 190.5t-187 128t-232.5 47q-127 0 -235.5 -47t-188.5 -128t-125 -190.5 t-45 -234.5q0 -123 45 -232.5t125 -190.5t188.5 -128t235.5 -47q125 0 233.5 47t188 128t125 190.5t45.5 232.5z" />
<glyph unicode="&#xaf;" horiz-adv-x="1083" d="M383 1200l37 172h645l-37 -172h-645z" />
<glyph unicode="&#xb0;" horiz-adv-x="751" d="M778 1100q0 -63 -23.5 -116.5t-63.5 -93.5t-94 -62.5t-118 -22.5q-63 0 -117.5 22.5t-94.5 62.5t-63.5 93t-23.5 117q0 63 23.5 116.5t63.5 93.5t94.5 62.5t117.5 22.5t117.5 -22.5t94.5 -62.5t63.5 -93.5t23.5 -116.5zM365 1100q0 -49 31.5 -83t82.5 -34q49 0 81 34 t32 83q0 47 -32 80.5t-81 33.5q-51 0 -82.5 -33.5t-31.5 -80.5z" />
<glyph unicode="&#xb1;" horiz-adv-x="1128" d="M-18 0l45 219h919l-45 -219h-919zM373 289l61 282h-332l48 220h331l60 282h254l-60 -282h334l-47 -220h-334l-61 -282h-254z" />
<glyph unicode="&#xb2;" horiz-adv-x="755" d="M150 758l348 289q72 59 71 116q0 27 -27.5 51.5t-82.5 24.5q-66 0 -124.5 -26.5t-92.5 -61.5h-11l41 182q45 31 102.5 49.5t131.5 18.5q55 0 101 -17.5t78 -48t50.5 -71.5t18.5 -88q0 -80 -43 -138.5t-90 -97.5l-232 -182q12 2 33.5 5t44 5t43 3t33.5 1h149l-35 -164 h-538z" />
<glyph unicode="&#xb3;" horiz-adv-x="724" d="M526 1096q33 -4 65 -23.5t56.5 -48.5t38.5 -65.5t14 -75.5q0 -78 -31.5 -134.5t-84 -93.5t-117 -55t-127.5 -18q-61 0 -124.5 21.5t-92.5 43.5l39 168h18q14 -14 35 -25.5t43.5 -19.5t45 -12t40.5 -4q29 0 58.5 8t54 24.5t41 40t16.5 54.5q0 41 -30.5 73.5t-92.5 32.5 q-45 0 -72.5 -13t-48.5 -26h-8l35 137l131 78q57 35 90 49q-12 -2 -32.5 -3t-55.5 -1h-201l33 164h494l-29 -145z" />
<glyph unicode="&#xb4;" horiz-adv-x="581" d="M260 1124h-248l191 248h346z" />
<glyph unicode="&#xb5;" horiz-adv-x="1234" d="M231 -338h-268l287 1354h268l-129 -615q-6 -35 -6 -59q0 -137 156 -137q29 0 58.5 10t57 25.5t51 34t35.5 36.5l148 705h268l-215 -1016h-237l20 94q-53 -47 -131 -85t-170 -38q-35 0 -65.5 5.5t-59.5 15.5z" />
<glyph unicode="&#xb6;" horiz-adv-x="1376" d="M522 588q-82 2 -152.5 18.5t-122.5 50t-82 89t-30 133.5q0 119 42 210t118 154.5t180.5 96t226.5 32.5h740l-45 -215h-142l-319 -1495h-217l319 1495h-172l-319 -1495h-223z" />
<glyph unicode="&#xb7;" horiz-adv-x="536" d="M111 664q0 78 49 125t121 47t121 -47.5t49 -124.5q0 -76 -49.5 -124t-120.5 -48q-72 0 -121 48t-49 124z" />
<glyph unicode="&#xb8;" horiz-adv-x="491" d="M385 -119l-66 -311h-409l37 172h211l28 139h199z" />
<glyph unicode="&#xb9;" horiz-adv-x="514" d="M186 1063h-20l39 184l223 125h127l-162 -764h-184l113 531z" />
<glyph unicode="&#xba;" horiz-adv-x="798" d="M467 918q78 0 130 51t52 141q0 49 -33.5 87t-91.5 38q-72 0 -125 -51t-53 -144q0 -47 34 -84.5t87 -37.5zM467 752q-66 0 -120 22.5t-94 60t-62.5 91t-22.5 114.5q0 74 28.5 139.5t77 114.5t113 78t137.5 29q74 0 131.5 -22.5t95 -62.5t57 -93.5t19.5 -112.5 q0 -74 -25.5 -139.5t-73.5 -113.5t-114.5 -76.5t-146.5 -28.5z" />
<glyph unicode="&#xbb;" horiz-adv-x="1232" d="M340 535l-188 376v21h276l193 -416l-353 -416h-288v21zM872 535l-188 376v21h277l192 -416l-352 -416h-289v21z" />
<glyph unicode="&#xbc;" horiz-adv-x="1583" d="M1208 408q4 18 10.5 41.5t13.5 48t13 46t12 36.5h-2q-16 -27 -41.5 -63t-60.5 -77l-68 -84q-18 -23 -36.5 -44t-38.5 -42l-2 -2q14 2 26.5 2h24.5h121zM829 262l410 502h217l-104 -494h98l-33 -153h-98l-25 -117h-174l25 117h-346zM186 1063h-20l39 184l223 125h127 l-162 -764h-184l113 531zM133 20l1094 1352h203v-20l-1094 -1352h-203v20z" />
<glyph unicode="&#xbd;" horiz-adv-x="1597" d="M893 150l348 288q72 59 72 117q0 27 -28 51.5t-83 24.5q-66 0 -124 -26.5t-93 -61.5h-10l41 182q45 31 102.5 49.5t130.5 18.5q55 0 101.5 -17.5t78 -48.5t50 -72t18.5 -88q0 -80 -43 -138t-90 -97l-231 -182q12 2 33.5 5t44 5t43 3t32.5 1h150l-35 -164h-539zM186 1063 h-20l39 184l223 125h127l-162 -764h-184l113 531zM115 20l1093 1352h203v-20l-1094 -1352h-202v20z" />
<glyph unicode="&#xbe;" horiz-adv-x="1662" d="M1288 408q4 18 10.5 41.5t12.5 48t12 46t12 36.5h-2q-16 -27 -40.5 -63t-59.5 -77l-68 -84q-18 -23 -36.5 -44t-38.5 -42l-3 -2q14 2 26.5 2h25.5h121zM909 262l410 502h217l-104 -494h98l-33 -153h-98l-25 -117h-174l25 117h-346zM512 1096q33 -4 64.5 -23.5t56 -48.5 t39 -65.5t14.5 -75.5q0 -78 -31.5 -134.5t-84 -93.5t-117 -55t-127.5 -18q-61 0 -125 21.5t-92 43.5l38 168h19q14 -14 34.5 -25.5t43 -19.5t45 -12t41.5 -4q29 0 58.5 8t54 24.5t41 40t16.5 54.5q0 41 -31 73.5t-92 32.5q-45 0 -73 -13t-48 -26h-8l35 137l131 78 q57 35 90 49q-12 -2 -32.5 -3t-55.5 -1h-201l33 164h493l-28 -145zM219 20l1094 1352h203v-20l-1094 -1352h-203v20z" />
<glyph unicode="&#xbf;" horiz-adv-x="937" d="M377 213q-61 -41 -110.5 -86t-49.5 -117q0 -61 48 -99t136 -38q119 0 199 42t127 85h21l-60 -270q-47 -35 -135 -66t-193 -31q-96 0 -173.5 31t-132 81t-83 114.5t-28.5 134.5q0 104 60 190t190 174l90 62q33 23 52 46t30.5 46t17.5 47.5t10 48.5h264l-2 -14 q-10 -76 -41.5 -157t-128.5 -150zM721 872q0 -78 -49 -125t-121 -47t-121 47.5t-49 124.5q0 76 49 124t121 48t121 -48t49 -124z" />
<glyph unicode="&#xc0;" horiz-adv-x="1368" d="M1266 0h-271l-47 274h-633l-161 -274h-289l854 1372h278zM807 1106q-12 -20 -24.5 -42t-30 -51.5t-41 -71.5t-58.5 -101l-200 -336h456l-57 336q-10 63 -17.5 105t-12.5 72t-8 50t-5 39h-2zM494 1737h327l152 -248h-236z" />
<glyph unicode="&#xc1;" horiz-adv-x="1368" d="M1266 0h-271l-47 274h-633l-161 -274h-289l854 1372h278zM807 1106q-12 -20 -24.5 -42t-30 -51.5t-41 -71.5t-58.5 -101l-200 -336h456l-57 336q-10 63 -17.5 105t-12.5 72t-8 50t-5 39h-2zM969 1489h-248l190 248h346z" />
<glyph unicode="&#xc2;" horiz-adv-x="1368" d="M1266 0h-271l-47 274h-633l-161 -274h-289l854 1372h278zM807 1106q-12 -20 -24.5 -42t-30 -51.5t-41 -71.5t-58.5 -101l-200 -336h456l-57 336q-10 63 -17.5 105t-12.5 72t-8 50t-5 39h-2zM1206 1489h-221l-88 117l-123 -117h-239l229 248h297z" />
<glyph unicode="&#xc3;" horiz-adv-x="1368" d="M762 1755q49 0 87 -18.5t62 -40.5q41 -37 74 -37q31 0 50.5 23.5t27.5 60.5l184 -31q-23 -117 -89 -173t-167 -56q-59 0 -94 20.5t-63 42.5q-16 12 -32 22.5t-32 10.5q-31 0 -49.5 -23.5t-24.5 -60.5l-190 31q18 117 87 173t169 56zM1266 0h-271l-47 274h-633l-161 -274 h-289l854 1372h278zM807 1106q-12 -20 -24.5 -42t-30 -51.5t-41 -71.5t-58.5 -101l-200 -336h456l-57 336q-10 63 -17.5 105t-12.5 72t-8 50t-5 39h-2z" />
<glyph unicode="&#xc4;" horiz-adv-x="1368" d="M1266 0h-271l-47 274h-633l-161 -274h-289l854 1372h278zM807 1106q-12 -20 -24.5 -42t-30 -51.5t-41 -71.5t-58.5 -101l-200 -336h456l-57 336q-10 63 -17.5 105t-12.5 72t-8 50t-5 39h-2zM528 1616q0 59 39 99t105 40t104.5 -40t38.5 -99t-39 -99t-104 -40 q-66 0 -105 40t-39 99zM954 1616q0 59 39 99t105 40t104.5 -40t38.5 -99t-39 -99t-104 -40q-66 0 -105 40t-39 99z" />
<glyph unicode="&#xc5;" horiz-adv-x="1368" d="M1090 1454q0 -49 -21.5 -91t-56.5 -73l254 -1290h-271l-47 274h-633l-161 -274h-289l823 1323q-43 59 -43 131q0 45 17.5 84t47 67.5t69.5 46t87 17.5t88 -17.5t71 -46t47.5 -67.5t17.5 -84zM807 1106q-12 -20 -24.5 -42t-30 -51.5t-41 -71.5t-58.5 -101l-200 -336h456 l-57 336q-10 63 -17.5 105t-12.5 72t-8 50t-5 39h-2zM948 1454q0 35 -23.5 59.5t-58.5 24.5q-37 0 -60.5 -24.5t-23.5 -59.5t23.5 -58.5t60.5 -23.5q35 0 58.5 23.5t23.5 58.5z" />
<glyph unicode="&#xc6;" horiz-adv-x="1939" d="M2013 1372l-51 -237h-698l-62 -289h658l-50 -238h-657l-80 -370h711l-49 -238h-983l57 274h-465l-192 -274h-297l972 1372h1186zM938 1130l-432 -626h352l133 626h-53z" />
<glyph unicode="&#xc7;" horiz-adv-x="1265" d="M1157 313l-57 -260q-59 -41 -151.5 -65.5t-182.5 -24.5q-172 0 -301 58.5t-214 151.5t-127 209t-42 232q0 154 55.5 297.5t156.5 254t242.5 177t313.5 66.5q82 0 152.5 -17.5t129 -42t102.5 -54t71 -54.5l-56 -237h-20q-27 29 -65 58.5t-85 53t-104 37.5t-125 14 q-96 0 -185.5 -40t-158 -111.5t-109.5 -174t-41 -227.5q0 -84 33 -157.5t89.5 -129t133 -88t164.5 -32.5q117 0 208 29.5t153 76.5h20zM836 -119l-66 -311h-410l37 172h211l29 139h199z" />
<glyph unicode="&#xc8;" horiz-adv-x="1212" d="M1286 1372l-51 -237h-698l-62 -289h658l-50 -238h-657l-80 -370h711l-49 -238h-983l290 1372h971zM477 1737h328l151 -248h-235z" />
<glyph unicode="&#xc9;" horiz-adv-x="1212" d="M1286 1372l-51 -237h-698l-62 -289h658l-50 -238h-657l-80 -370h711l-49 -238h-983l290 1372h971zM907 1489h-248l191 248h346z" />
<glyph unicode="&#xca;" horiz-adv-x="1212" d="M1286 1372l-51 -237h-698l-62 -289h658l-50 -238h-657l-80 -370h711l-49 -238h-983l290 1372h971zM1159 1489h-221l-88 117l-123 -117h-240l230 248h297z" />
<glyph unicode="&#xcb;" horiz-adv-x="1212" d="M1286 1372l-51 -237h-698l-62 -289h658l-50 -238h-657l-80 -370h711l-49 -238h-983l290 1372h971zM455 1616q0 59 38.5 99t104.5 40t104.5 -40t38.5 -99t-38.5 -99t-104.5 -40t-104.5 40t-38.5 99zM881 1616q0 59 38.5 99t104.5 40t104.5 -40t38.5 -99t-38.5 -99 t-104.5 -40t-104.5 40t-38.5 99z" />
<glyph unicode="&#xcc;" horiz-adv-x="569" d="M25 0l290 1372h273l-291 -1372h-272zM129 1737h328l151 -248h-235z" />
<glyph unicode="&#xcd;" horiz-adv-x="569" d="M25 0l290 1372h273l-291 -1372h-272zM586 1489h-248l190 248h346z" />
<glyph unicode="&#xce;" horiz-adv-x="569" d="M25 0l290 1372h273l-291 -1372h-272zM807 1489h-221l-88 117l-123 -117h-240l230 248h297z" />
<glyph unicode="&#xcf;" horiz-adv-x="569" d="M25 0l290 1372h273l-291 -1372h-272zM117 1616q0 59 39 99t104 40q66 0 104.5 -40t38.5 -99t-38.5 -99t-104.5 -40t-104.5 40t-38.5 99zM543 1616q0 59 39 99t104 40q66 0 104.5 -40t38.5 -99t-38.5 -99t-104.5 -40t-104.5 40t-38.5 99z" />
<glyph unicode="&#xd0;" horiz-adv-x="1437" d="M45 788h170l123 584h455q143 0 255.5 -45t189.5 -123t118 -180t41 -219q0 -156 -47 -301.5t-150.5 -257t-268.5 -179t-399 -67.5h-485l125 592h-168zM553 1135l-74 -347h320l-41 -196h-322l-74 -354h218q125 0 225 42t171 116.5t108.5 179t37.5 229.5q0 160 -101 245 t-265 85h-203z" />
<glyph unicode="&#xd1;" horiz-adv-x="1439" d="M893 0l-313 725q-10 23 -22.5 54.5l-25 63t-23.5 62.5t-17 51h-3q-2 -20 -6 -47.5t-10 -59.5t-12 -64.5t-12 -63.5l-152 -721h-272l290 1372h256l324 -739q29 -66 50.5 -124t37.5 -99h2q6 49 19.5 110.5t23.5 112.5l158 739h272l-291 -1372h-274zM797 1755q49 0 87 -18.5 t62 -40.5q41 -37 74 -37q31 0 50.5 23.5t27.5 60.5l184 -31q-23 -117 -89.5 -173t-166.5 -56q-59 0 -94 20.5t-64 42.5q-16 12 -31.5 22.5t-31.5 10.5q-31 0 -49.5 -23.5t-24.5 -60.5l-190 31q18 117 87 173t169 56z" />
<glyph unicode="&#xd2;" horiz-adv-x="1572" d="M874 1409q156 0 279 -53t207 -142.5t128 -206t44 -241.5q0 -174 -61.5 -320.5t-168 -254t-252 -168t-313.5 -60.5q-156 0 -277.5 52.5t-205.5 140.5t-128 204.5t-44 247.5q0 170 61.5 316.5t168 254t251.5 169t311 61.5zM1253 766q0 84 -26.5 156.5t-75.5 127t-121 86 t-160 31.5q-113 0 -207 -43t-161.5 -117.5t-104.5 -177t-37 -221.5q0 -86 29 -159.5t80 -127t119.5 -84t148.5 -30.5q123 0 219.5 46t163 123t100 178t33.5 212zM553 1737h328l151 -248h-235z" />
<glyph unicode="&#xd3;" horiz-adv-x="1572" d="M874 1409q156 0 279 -53t207 -142.5t128 -206t44 -241.5q0 -174 -61.5 -320.5t-168 -254t-252 -168t-313.5 -60.5q-156 0 -277.5 52.5t-205.5 140.5t-128 204.5t-44 247.5q0 170 61.5 316.5t168 254t251.5 169t311 61.5zM1253 766q0 84 -26.5 156.5t-75.5 127t-121 86 t-160 31.5q-113 0 -207 -43t-161.5 -117.5t-104.5 -177t-37 -221.5q0 -86 29 -159.5t80 -127t119.5 -84t148.5 -30.5q123 0 219.5 46t163 123t100 178t33.5 212zM965 1489h-248l190 248h346z" />
<glyph unicode="&#xd4;" horiz-adv-x="1572" d="M874 1409q156 0 279 -53t207 -142.5t128 -206t44 -241.5q0 -174 -61.5 -320.5t-168 -254t-252 -168t-313.5 -60.5q-156 0 -277.5 52.5t-205.5 140.5t-128 204.5t-44 247.5q0 170 61.5 316.5t168 254t251.5 169t311 61.5zM1253 766q0 84 -26.5 156.5t-75.5 127t-121 86 t-160 31.5q-113 0 -207 -43t-161.5 -117.5t-104.5 -177t-37 -221.5q0 -86 29 -159.5t80 -127t119.5 -84t148.5 -30.5q123 0 219.5 46t163 123t100 178t33.5 212zM1233 1489h-221l-88 117l-123 -117h-240l230 248h296z" />
<glyph unicode="&#xd5;" horiz-adv-x="1572" d="M815 1755q49 0 87 -18.5t63 -40.5q41 -37 73 -37q31 0 50.5 23.5t27.5 60.5l184 -31q-23 -117 -89 -173t-167 -56q-59 0 -94 20.5t-63 42.5q-16 12 -31.5 22.5t-32.5 10.5q-31 0 -49 -23.5t-24 -60.5l-191 31q18 117 87 173t169 56zM874 1409q156 0 279 -53t207 -142.5 t128 -206t44 -241.5q0 -174 -61.5 -320.5t-168 -254t-252 -168t-313.5 -60.5q-156 0 -277.5 52.5t-205.5 140.5t-128 204.5t-44 247.5q0 170 61.5 316.5t168 254t251.5 169t311 61.5zM1253 766q0 84 -26.5 156.5t-75.5 127t-121 86t-160 31.5q-113 0 -207 -43t-161.5 -117.5 t-104.5 -177t-37 -221.5q0 -86 29 -159.5t80 -127t119.5 -84t148.5 -30.5q123 0 219.5 46t163 123t100 178t33.5 212z" />
<glyph unicode="&#xd6;" horiz-adv-x="1572" d="M874 1409q156 0 279 -53t207 -142.5t128 -206t44 -241.5q0 -174 -61.5 -320.5t-168 -254t-252 -168t-313.5 -60.5q-156 0 -277.5 52.5t-205.5 140.5t-128 204.5t-44 247.5q0 170 61.5 316.5t168 254t251.5 169t311 61.5zM1253 766q0 84 -26.5 156.5t-75.5 127t-121 86 t-160 31.5q-113 0 -207 -43t-161.5 -117.5t-104.5 -177t-37 -221.5q0 -86 29 -159.5t80 -127t119.5 -84t148.5 -30.5q123 0 219.5 46t163 123t100 178t33.5 212zM565 1616q0 59 39 99t105 40t104.5 -40t38.5 -99t-39 -99t-104 -40q-66 0 -105 40t-39 99zM991 1616 q0 59 39 99t105 40t104.5 -40t38.5 -99t-39 -99t-104 -40q-66 0 -105 40t-39 99z" />
<glyph unicode="&#xd7;" horiz-adv-x="1159" d="M131 12l-143 181l411 339l-260 332l187 152l260 -330l399 330l143 -180l-401 -332l270 -340l-186 -152l-268 340z" />
<glyph unicode="&#xd8;" horiz-adv-x="1572" d="M193 231q-111 164 -111 377q0 170 61.5 316.5t168 254t252 169t310.5 61.5q141 0 253 -44t196 -118l178 160l115 -131l-180 -162q47 -78 71.5 -167t24.5 -181q0 -174 -61.5 -320.5t-168 -254t-252 -168t-313.5 -60.5q-133 0 -239.5 38t-188.5 103l-172 -155l-117 129z M360 608q0 -102 41 -188l727 653q-49 45 -114.5 69.5t-143.5 24.5q-113 0 -207 -43t-161.5 -117.5t-104.5 -177t-37 -221.5zM1253 766q0 84 -28 160l-715 -643q94 -76 227 -76q123 0 219.5 46t163 123t100 178t33.5 212z" />
<glyph unicode="&#xd9;" horiz-adv-x="1376" d="M618 -37q-129 0 -226 36t-161.5 92t-97.5 128t-33 146q0 31 2 64.5t11 68.5l186 874h272l-182 -858q-4 -23 -9 -48.5t-5 -45.5q0 -104 64.5 -155.5t178.5 -51.5q129 0 216.5 73.5t119.5 227.5l183 858h272l-186 -874q-55 -262 -205 -398.5t-400 -136.5zM514 1737h328 l151 -248h-235z" />
<glyph unicode="&#xda;" horiz-adv-x="1376" d="M618 -37q-129 0 -226 36t-161.5 92t-97.5 128t-33 146q0 31 2 64.5t11 68.5l186 874h272l-182 -858q-4 -23 -9 -48.5t-5 -45.5q0 -104 64.5 -155.5t178.5 -51.5q129 0 216.5 73.5t119.5 227.5l183 858h272l-186 -874q-55 -262 -205 -398.5t-400 -136.5zM944 1489h-248 l191 248h346z" />
<glyph unicode="&#xdb;" horiz-adv-x="1376" d="M618 -37q-129 0 -226 36t-161.5 92t-97.5 128t-33 146q0 31 2 64.5t11 68.5l186 874h272l-182 -858q-4 -23 -9 -48.5t-5 -45.5q0 -104 64.5 -155.5t178.5 -51.5q129 0 216.5 73.5t119.5 227.5l183 858h272l-186 -874q-55 -262 -205 -398.5t-400 -136.5zM1196 1489h-221 l-88 117l-123 -117h-240l230 248h297z" />
<glyph unicode="&#xdc;" horiz-adv-x="1376" d="M518 1616q0 59 39 99t105 40t104.5 -40t38.5 -99t-39 -99t-104 -40q-66 0 -105 40t-39 99zM944 1616q0 59 39 99t104 40q66 0 105 -40t39 -99t-39 -99t-105 -40t-104.5 40t-38.5 99zM618 -37q-129 0 -226 36t-161.5 92t-97.5 128t-33 146q0 31 2 64.5t11 68.5l186 874 h272l-182 -858q-4 -23 -9 -48.5t-5 -45.5q0 -104 64.5 -155.5t178.5 -51.5q129 0 216.5 73.5t119.5 227.5l183 858h272l-186 -874q-55 -262 -205 -398.5t-400 -136.5z" />
<glyph unicode="&#xdd;" horiz-adv-x="1263" d="M874 1489h-247l190 248h346zM762 604l-127 -604h-273l136 645l-334 707v20h268l236 -518l438 518h311v-20z" />
<glyph unicode="&#xde;" horiz-adv-x="1228" d="M25 0l290 1372h273l-47 -225h264q88 0 163.5 -27.5t131 -79t87.5 -126t32 -166.5q0 -117 -42 -206t-119 -150.5t-182.5 -93.5t-230.5 -32h-293l-55 -266h-272zM672 508q68 0 119 19.5t84.5 52t50 75.5t16.5 93q0 78 -44 117.5t-142 39.5h-269l-84 -397h269z" />
<glyph unicode="&#xdf;" horiz-adv-x="1181" d="M584 203q49 0 92 18.5t73.5 50t48 73.5t17.5 91q0 78 -57.5 130t-159.5 52h-76l45 216h78q45 0 84 17t65.5 47t42 66.5t15.5 77.5q0 49 -39 90.5t-104 41.5q-90 0 -158 -61.5t-98 -209.5l-191 -903h-268l196 928q23 109 70 197.5t114.5 151t153.5 97.5t187 35 q106 0 183 -26.5t128 -74.5t75.5 -114t24.5 -145q0 -53 -20.5 -104.5t-53 -95.5t-76.5 -78t-89 -50q33 -12 67.5 -38t63.5 -61.5t47 -81.5t18 -100q0 -117 -43 -206t-112.5 -147t-159.5 -88t-184 -30q-31 0 -66 6.5t-65.5 13.5t-54 15t-33.5 14l47 224h30q18 -16 64.5 -27.5 t77.5 -11.5z" />
<glyph unicode="&#xe0;" horiz-adv-x="1048" d="M190 745l48 230q37 20 124 44.5t195 24.5q88 0 163 -19t130 -55t87 -88.5t32 -119.5q0 -27 -4 -54.5t-11 -60.5l-137 -647h-254l17 78q-16 -18 -45 -38t-64 -35t-75 -24.5t-79 -9.5q-76 0 -135 24.5t-101 67.5t-64.5 99.5t-22.5 122.5q0 74 34.5 140.5t98 116.5t154 80.5 t198.5 30.5q27 0 58.5 -3t60.5 -8t51.5 -11t32.5 -10q6 25 10 45t4 41q0 53 -50 84.5t-142 31.5q-106 0 -184 -27.5t-109 -50.5h-21zM471 463q-47 0 -88 -13.5t-71.5 -36t-48 -51t-17.5 -61.5q0 -49 38 -85t109 -36q59 0 120.5 26.5t90.5 55.5l37 172q-16 10 -66.5 19.5 t-103.5 9.5zM252 1372h328l151 -248h-235z" />
<glyph unicode="&#xe1;" horiz-adv-x="1048" d="M190 745l48 230q37 20 124 44.5t195 24.5q88 0 163 -19t130 -55t87 -88.5t32 -119.5q0 -27 -4 -54.5t-11 -60.5l-137 -647h-254l17 78q-16 -18 -45 -38t-64 -35t-75 -24.5t-79 -9.5q-76 0 -135 24.5t-101 67.5t-64.5 99.5t-22.5 122.5q0 74 34.5 140.5t98 116.5t154 80.5 t198.5 30.5q27 0 58.5 -3t60.5 -8t51.5 -11t32.5 -10q6 25 10 45t4 41q0 53 -50 84.5t-142 31.5q-106 0 -184 -27.5t-109 -50.5h-21zM471 463q-47 0 -88 -13.5t-71.5 -36t-48 -51t-17.5 -61.5q0 -49 38 -85t109 -36q59 0 120.5 26.5t90.5 55.5l37 172q-16 10 -66.5 19.5 t-103.5 9.5zM668 1124h-248l190 248h346z" />
<glyph unicode="&#xe2;" horiz-adv-x="1048" d="M190 745l48 230q37 20 124 44.5t195 24.5q88 0 163 -19t130 -55t87 -88.5t32 -119.5q0 -27 -4 -54.5t-11 -60.5l-137 -647h-254l17 78q-16 -18 -45 -38t-64 -35t-75 -24.5t-79 -9.5q-76 0 -135 24.5t-101 67.5t-64.5 99.5t-22.5 122.5q0 74 34.5 140.5t98 116.5t154 80.5 t198.5 30.5q27 0 58.5 -3t60.5 -8t51.5 -11t32.5 -10q6 25 10 45t4 41q0 53 -50 84.5t-142 31.5q-106 0 -184 -27.5t-109 -50.5h-21zM471 463q-47 0 -88 -13.5t-71.5 -36t-48 -51t-17.5 -61.5q0 -49 38 -85t109 -36q59 0 120.5 26.5t90.5 55.5l37 172q-16 10 -66.5 19.5 t-103.5 9.5zM948 1124h-221l-88 117l-123 -117h-240l230 248h297z" />
<glyph unicode="&#xe3;" horiz-adv-x="1048" d="M190 745l48 230q37 20 124 44.5t195 24.5q88 0 163 -19t130 -55t87 -88.5t32 -119.5q0 -27 -4 -54.5t-11 -60.5l-137 -647h-254l17 78q-16 -18 -45 -38t-64 -35t-75 -24.5t-79 -9.5q-76 0 -135 24.5t-101 67.5t-64.5 99.5t-22.5 122.5q0 74 34.5 140.5t98 116.5t154 80.5 t198.5 30.5q27 0 58.5 -3t60.5 -8t51.5 -11t32.5 -10q6 25 10 45t4 41q0 53 -50 84.5t-142 31.5q-106 0 -184 -27.5t-109 -50.5h-21zM471 463q-47 0 -88 -13.5t-71.5 -36t-48 -51t-17.5 -61.5q0 -49 38 -85t109 -36q59 0 120.5 26.5t90.5 55.5l37 172q-16 10 -66.5 19.5 t-103.5 9.5zM514 1391q49 0 87 -18.5t63 -41.5q41 -37 73 -37q31 0 50.5 23.5t27.5 60.5l184 -30q-23 -117 -89 -173.5t-167 -56.5q-59 0 -94 20.5t-63 43.5q-16 12 -31.5 22t-32.5 10q-31 0 -49 -23.5t-24 -60.5l-191 31q18 117 87 173.5t169 56.5z" />
<glyph unicode="&#xe4;" horiz-adv-x="1048" d="M190 745l48 230q37 20 124 44.5t195 24.5q88 0 163 -19t130 -55t87 -88.5t32 -119.5q0 -27 -4 -54.5t-11 -60.5l-137 -647h-254l17 78q-16 -18 -45 -38t-64 -35t-75 -24.5t-79 -9.5q-76 0 -135 24.5t-101 67.5t-64.5 99.5t-22.5 122.5q0 74 34.5 140.5t98 116.5t154 80.5 t198.5 30.5q27 0 58.5 -3t60.5 -8t51.5 -11t32.5 -10q6 25 10 45t4 41q0 53 -50 84.5t-142 31.5q-106 0 -184 -27.5t-109 -50.5h-21zM471 463q-47 0 -88 -13.5t-71.5 -36t-48 -51t-17.5 -61.5q0 -49 38 -85t109 -36q59 0 120.5 26.5t90.5 55.5l37 172q-16 10 -66.5 19.5 t-103.5 9.5zM262 1251q0 59 39 99.5t105 40.5t104.5 -40t38.5 -100q0 -59 -39 -99t-104 -40q-66 0 -105 40t-39 99zM688 1251q0 59 39 99.5t104 40.5q66 0 105 -40t39 -100q0 -59 -39 -99t-105 -40t-104.5 40t-38.5 99z" />
<glyph unicode="&#xe5;" horiz-adv-x="1048" d="M190 745l48 230q37 20 124 44.5t195 24.5q88 0 163 -19t130 -55t87 -88.5t32 -119.5q0 -27 -4 -54.5t-11 -60.5l-137 -647h-254l17 78q-16 -18 -45 -38t-64 -35t-75 -24.5t-79 -9.5q-76 0 -135 24.5t-101 67.5t-64.5 99.5t-22.5 122.5q0 74 34.5 140.5t98 116.5t154 80.5 t198.5 30.5q27 0 58.5 -3t60.5 -8t51.5 -11t32.5 -10q6 25 10 45t4 41q0 53 -50 84.5t-142 31.5q-106 0 -184 -27.5t-109 -50.5h-21zM471 463q-47 0 -88 -13.5t-71.5 -36t-48 -51t-17.5 -61.5q0 -49 38 -85t109 -36q59 0 120.5 26.5t90.5 55.5l37 172q-16 10 -66.5 19.5 t-103.5 9.5zM868 1315q0 -45 -17 -84t-47 -68.5t-71 -46t-88 -16.5t-87 16.5t-69.5 46t-47 68.5t-17.5 84t17.5 84t47 67.5t69.5 46t87 17.5t88 -17.5t71 -46t47 -67.5t17 -84zM727 1315q0 35 -23.5 58.5t-58.5 23.5q-37 0 -60.5 -23.5t-23.5 -58.5t23.5 -59.5t60.5 -24.5 q35 0 58.5 24.5t23.5 59.5z" />
<glyph unicode="&#xe6;" horiz-adv-x="1665" d="M557 1044q113 0 193.5 -31.5t123.5 -90.5q66 57 147 89.5t177 32.5q106 0 185 -39.5t131.5 -101t78 -137.5t25.5 -150q0 -47 -11.5 -106t-31.5 -107h-694q6 -94 80.5 -150t203.5 -56q88 0 175 28.5t137 69.5h20l-49 -234q-57 -35 -137 -62.5t-205 -27.5q-131 0 -219 49.5 t-139 133.5q-33 -35 -72 -67t-88 -58.5t-111.5 -42t-142.5 -15.5q-76 0 -138.5 24.5t-107.5 67.5t-69.5 99.5t-24.5 122.5q0 74 34.5 140.5t98 116.5t154 80.5t198.5 30.5q27 0 58.5 -3t60.5 -8t51.5 -11t32.5 -10q6 25 10 45t4 41q0 53 -50 84.5t-142 31.5 q-106 0 -184 -27.5t-109 -50.5h-21l48 230q37 20 123.5 44.5t195.5 24.5zM471 463q-47 0 -88 -13.5t-71.5 -36t-48 -51t-17.5 -61.5q0 -49 38 -85t109 -36q63 0 122.5 26.5t88.5 55.5l37 172q-16 10 -66.5 19.5t-103.5 9.5zM1378 602q6 25 6 49q0 72 -53 125t-137 53 q-106 0 -183 -61t-108 -166h475z" />
<glyph unicode="&#xe7;" horiz-adv-x="999" d="M879 295l-52 -248q-59 -37 -136 -56.5t-148 -19.5q-123 0 -217.5 38t-158 103.5t-96 152.5t-32.5 184q0 137 48 246.5t129 187.5t187.5 119.5t221.5 41.5q61 0 116.5 -13t100.5 -33.5t79.5 -45t53.5 -45.5l-47 -219h-21q-41 51 -107.5 86t-168.5 35q-57 0 -114.5 -21.5 t-104.5 -64.5t-77 -107.5t-30 -150.5q0 -61 22.5 -109.5t62.5 -82t93.5 -51t114.5 -17.5q82 0 148.5 27.5t111.5 62.5h21zM651 -119l-65 -311h-410l37 172h211l29 139h198z" />
<glyph unicode="&#xe8;" horiz-adv-x="1064" d="M236 1372h327l152 -248h-236zM778 602q6 25 6 49q0 72 -53 125t-137 53q-106 0 -183 -61t-108 -166h475zM35 440q0 119 44 228.5t119.5 192.5t178 133t221.5 50q106 0 185 -39.5t131.5 -101t78 -137.5t25.5 -150q0 -47 -11.5 -106t-31.5 -107h-694q6 -94 80.5 -150 t203.5 -56q88 0 175 28.5t137 69.5h20l-49 -234q-57 -35 -137 -62.5t-205 -27.5q-113 0 -201 38t-147.5 102.5t-91 149.5t-31.5 179z" />
<glyph unicode="&#xe9;" horiz-adv-x="1064" d="M717 1124h-248l190 248h347zM778 602q6 25 6 49q0 72 -53 125t-137 53q-106 0 -183 -61t-108 -166h475zM35 440q0 119 44 228.5t119.5 192.5t178 133t221.5 50q106 0 185 -39.5t131.5 -101t78 -137.5t25.5 -150q0 -47 -11.5 -106t-31.5 -107h-694q6 -94 80.5 -150 t203.5 -56q88 0 175 28.5t137 69.5h20l-49 -234q-57 -35 -137 -62.5t-205 -27.5q-113 0 -201 38t-147.5 102.5t-91 149.5t-31.5 179z" />
<glyph unicode="&#xea;" horiz-adv-x="1064" d="M944 1124h-221l-88 117l-123 -117h-240l230 248h297zM778 602q6 25 6 49q0 72 -53 125t-137 53q-106 0 -183 -61t-108 -166h475zM35 440q0 119 44 228.5t119.5 192.5t178 133t221.5 50q106 0 185 -39.5t131.5 -101t78 -137.5t25.5 -150q0 -47 -11.5 -106t-31.5 -107h-694 q6 -94 80.5 -150t203.5 -56q88 0 175 28.5t137 69.5h20l-49 -234q-57 -35 -137 -62.5t-205 -27.5q-113 0 -201 38t-147.5 102.5t-91 149.5t-31.5 179z" />
<glyph unicode="&#xeb;" horiz-adv-x="1064" d="M254 1251q0 59 39 99.5t104 40.5q66 0 105 -40t39 -100q0 -59 -39 -99t-105 -40t-104.5 40t-38.5 99zM680 1251q0 59 39 99.5t104 40.5q66 0 105 -40t39 -100q0 -59 -39 -99t-105 -40t-104.5 40t-38.5 99zM778 602q6 25 6 49q0 72 -53 125t-137 53q-106 0 -183 -61 t-108 -166h475zM35 440q0 119 44 228.5t119.5 192.5t178 133t221.5 50q106 0 185 -39.5t131.5 -101t78 -137.5t25.5 -150q0 -47 -11.5 -106t-31.5 -107h-694q6 -94 80.5 -150t203.5 -56q88 0 175 28.5t137 69.5h20l-49 -234q-57 -35 -137 -62.5t-205 -27.5q-113 0 -201 38 t-147.5 102.5t-91 149.5t-31.5 179z" />
<glyph unicode="&#xec;" horiz-adv-x="503" d="M14 1372h328l152 -248h-236zM-6 0l215 1016h268l-215 -1016h-268z" />
<glyph unicode="&#xed;" horiz-adv-x="503" d="M481 1124h-248l191 248h346zM-6 0l215 1016h268l-215 -1016h-268z" />
<glyph unicode="&#xee;" horiz-adv-x="503" d="M698 1124h-221l-88 117l-123 -117h-239l229 248h297zM-6 0l215 1016h268l-215 -1016h-268z" />
<glyph unicode="&#xef;" horiz-adv-x="503" d="M6 1251q0 59 39 99.5t105 40.5t104.5 -40t38.5 -100q0 -59 -39 -99t-104 -40q-66 0 -105 40t-39 99zM432 1251q0 59 39 99.5t104 40.5q66 0 105 -40t39 -100q0 -59 -39 -99t-105 -40t-104.5 40t-38.5 99zM-6 0l215 1016h268l-215 -1016h-268z" />
<glyph unicode="&#xf0;" horiz-adv-x="1198" d="M1024 836q39 -74 64.5 -144.5t25.5 -150.5q0 -117 -32.5 -220.5t-101.5 -181.5t-177.5 -123t-257.5 -45q-119 0 -213 44t-160 114t-100.5 156t-34.5 172q0 125 46 224t122 168t171 104.5t193 35.5q8 0 37 -3t41 -7l-55 98l-260 -92l-58 154l240 84l-70 129v20h293l31 -59 l164 59l57 -153l-143 -52zM309 463q0 -47 19.5 -92t53.5 -80t79 -56.5t96 -21.5q74 0 128 25.5t90 68.5t53.5 98.5t17.5 114.5q0 53 -20.5 111.5t-51.5 111.5q-12 6 -59 20.5t-101 14.5q-57 0 -112.5 -19.5t-98.5 -59.5t-68.5 -98t-25.5 -138z" />
<glyph unicode="&#xf1;" horiz-adv-x="1142" d="M262 0h-268l215 1016h237l-20 -94q53 47 134 84.5t173 37.5q74 0 134.5 -21.5t103.5 -60t66.5 -90t23.5 -112.5q0 -59 -14 -123l-136 -637h-268l129 614q6 33 6 60q0 61 -40 98t-117 37q-63 0 -119 -27.5t-86 -62.5zM588 1391q49 0 87 -18.5t62 -41.5q41 -37 74 -37 q31 0 50.5 23.5t27.5 60.5l184 -30q-23 -117 -89 -173.5t-167 -56.5q-59 0 -94 20.5t-64 43.5q-16 12 -31.5 22t-31.5 10q-31 0 -49.5 -23.5t-24.5 -60.5l-190 31q18 117 87 173.5t169 56.5z" />
<glyph unicode="&#xf2;" horiz-adv-x="1198" d="M625 1044q115 0 208 -34.5t158.5 -96t101 -148.5t35.5 -192q0 -121 -44 -229t-122.5 -191t-186 -132.5t-232.5 -49.5q-113 0 -206 33t-160.5 94.5t-104.5 148.5t-37 193q0 119 45 228.5t125 193.5t187.5 133t232.5 49zM303 440q0 -49 17.5 -91t49 -73.5t74.5 -50 t97 -18.5q82 0 141 33.5t99 87t59.5 119t19.5 126.5q0 49 -16.5 91.5t-47 75t-73.5 51t-98 18.5q-74 0 -134.5 -33t-101.5 -85t-63.5 -117.5t-22.5 -133.5zM301 1372h328l151 -248h-235z" />
<glyph unicode="&#xf3;" horiz-adv-x="1198" d="M743 1124h-247l190 248h346zM625 1044q115 0 208 -34.5t158.5 -96t101 -148.5t35.5 -192q0 -121 -44 -229t-122.5 -191t-186 -132.5t-232.5 -49.5q-113 0 -206 33t-160.5 94.5t-104.5 148.5t-37 193q0 119 45 228.5t125 193.5t187.5 133t232.5 49zM303 440 q0 -49 17.5 -91t49 -73.5t74.5 -50t97 -18.5q82 0 141 33.5t99 87t59.5 119t19.5 126.5q0 49 -16.5 91.5t-47 75t-73.5 51t-98 18.5q-74 0 -134.5 -33t-101.5 -85t-63.5 -117.5t-22.5 -133.5z" />
<glyph unicode="&#xf4;" horiz-adv-x="1198" d="M625 1044q115 0 208 -34.5t158.5 -96t101 -148.5t35.5 -192q0 -121 -44 -229t-122.5 -191t-186 -132.5t-232.5 -49.5q-113 0 -206 33t-160.5 94.5t-104.5 148.5t-37 193q0 119 45 228.5t125 193.5t187.5 133t232.5 49zM303 440q0 -49 17.5 -91t49 -73.5t74.5 -50 t97 -18.5q82 0 141 33.5t99 87t59.5 119t19.5 126.5q0 49 -16.5 91.5t-47 75t-73.5 51t-98 18.5q-74 0 -134.5 -33t-101.5 -85t-63.5 -117.5t-22.5 -133.5zM1008 1124h-222l-88 117l-123 -117h-239l229 248h297z" />
<glyph unicode="&#xf5;" horiz-adv-x="1198" d="M557 1391q49 0 87 -18.5t63 -41.5q41 -37 73 -37q31 0 50.5 23.5t27.5 60.5l184 -30q-23 -117 -89 -173.5t-167 -56.5q-59 0 -94 20.5t-63 43.5q-16 12 -31.5 22t-32.5 10q-31 0 -49 -23.5t-24 -60.5l-191 31q18 117 87 173.5t169 56.5zM625 1044q115 0 208 -34.5 t158.5 -96t101 -148.5t35.5 -192q0 -121 -44 -229t-122.5 -191t-186 -132.5t-232.5 -49.5q-113 0 -206 33t-160.5 94.5t-104.5 148.5t-37 193q0 119 45 228.5t125 193.5t187.5 133t232.5 49zM303 440q0 -49 17.5 -91t49 -73.5t74.5 -50t97 -18.5q82 0 141 33.5t99 87 t59.5 119t19.5 126.5q0 49 -16.5 91.5t-47 75t-73.5 51t-98 18.5q-74 0 -134.5 -33t-101.5 -85t-63.5 -117.5t-22.5 -133.5z" />
<glyph unicode="&#xf6;" horiz-adv-x="1198" d="M625 1044q115 0 208 -34.5t158.5 -96t101 -148.5t35.5 -192q0 -121 -44 -229t-122.5 -191t-186 -132.5t-232.5 -49.5q-113 0 -206 33t-160.5 94.5t-104.5 148.5t-37 193q0 119 45 228.5t125 193.5t187.5 133t232.5 49zM303 440q0 -49 17.5 -91t49 -73.5t74.5 -50 t97 -18.5q82 0 141 33.5t99 87t59.5 119t19.5 126.5q0 49 -16.5 91.5t-47 75t-73.5 51t-98 18.5q-74 0 -134.5 -33t-101.5 -85t-63.5 -117.5t-22.5 -133.5zM326 1251q0 59 38.5 99.5t104.5 40.5t104.5 -40t38.5 -100q0 -59 -38.5 -99t-104.5 -40t-104.5 40t-38.5 99z M752 1251q0 59 38.5 99.5t104.5 40.5t104.5 -40t38.5 -100q0 -59 -38.5 -99t-104.5 -40t-104.5 40t-38.5 99z" />
<glyph unicode="&#xf7;" horiz-adv-x="1087" d="M453 913q0 74 48 121t117 47q70 0 118 -47t48 -121t-48 -121t-118 -47t-117.5 47t-47.5 121zM285 139q0 74 48 121t118 47t117.5 -47t47.5 -121t-48 -121t-117 -47q-70 0 -118 47t-48 121zM37 410l49 233h940l-49 -233h-940z" />
<glyph unicode="&#xf8;" horiz-adv-x="1198" d="M109 180q-35 53 -54.5 119t-19.5 141q0 119 45 228.5t125 193.5t187.5 133t232.5 49q98 0 179 -24.5t144 -71.5l109 101l112 -121l-110 -101q70 -111 69 -254q0 -121 -44 -229t-122.5 -191t-186 -132.5t-232.5 -49.5q-195 0 -326 95l-121 -111l-108 115zM303 440 q0 -35 10 -71l443 403q-59 37 -131 37q-74 0 -134.5 -33t-101.5 -85t-63.5 -117.5t-22.5 -133.5zM860 573q0 16 -2 33t-6 33l-440 -397q53 -35 129 -35q82 0 141 33.5t99 87t59.5 119t19.5 126.5z" />
<glyph unicode="&#xf9;" horiz-adv-x="1130" d="M836 1016h268l-215 -1016h-238l21 94q-53 -47 -131 -85t-170 -38q-72 0 -131.5 22.5t-102.5 61.5t-66.5 90.5t-23.5 110.5t14 123l136 637h268l-129 -615q-6 -35 -6 -59q0 -137 155 -137q29 0 58.5 10t57.5 25.5t51.5 34t35.5 36.5zM315 1372h328l152 -248h-236z" />
<glyph unicode="&#xfa;" horiz-adv-x="1130" d="M836 1016h268l-215 -1016h-238l21 94q-53 -47 -131 -85t-170 -38q-72 0 -131.5 22.5t-102.5 61.5t-66.5 90.5t-23.5 110.5t14 123l136 637h268l-129 -615q-6 -35 -6 -59q0 -137 155 -137q29 0 58.5 10t57.5 25.5t51.5 34t35.5 36.5zM758 1124h-248l190 248h347z" />
<glyph unicode="&#xfb;" horiz-adv-x="1130" d="M993 1124h-221l-88 117l-123 -117h-239l229 248h297zM836 1016h268l-215 -1016h-238l21 94q-53 -47 -131 -85t-170 -38q-72 0 -131.5 22.5t-102.5 61.5t-66.5 90.5t-23.5 110.5t14 123l136 637h268l-129 -615q-6 -35 -6 -59q0 -137 155 -137q29 0 58.5 10t57.5 25.5 t51.5 34t35.5 36.5z" />
<glyph unicode="&#xfc;" horiz-adv-x="1130" d="M836 1016h268l-215 -1016h-238l21 94q-53 -47 -131 -85t-170 -38q-72 0 -131.5 22.5t-102.5 61.5t-66.5 90.5t-23.5 110.5t14 123l136 637h268l-129 -615q-6 -35 -6 -59q0 -137 155 -137q29 0 58.5 10t57.5 25.5t51.5 34t35.5 36.5zM334 1251q0 59 39 99.5t104 40.5 q66 0 105 -40t39 -100q0 -59 -39 -99t-105 -40t-104.5 40t-38.5 99zM760 1251q0 59 39 99.5t104 40.5q66 0 105 -40t39 -100q0 -59 -39 -99t-105 -40t-104.5 40t-38.5 99z" />
<glyph unicode="&#xfd;" horiz-adv-x="1120" d="M324 63l-226 953h267l106 -549q14 -80 25 -148h4q16 41 36.5 78t43.5 76l319 543h289l-842 -1354h-264zM737 1124h-248l191 248h346z" />
<glyph unicode="&#xfe;" horiz-adv-x="1236" d="M285 1372h268l-84 -391q35 23 93.5 43t156.5 20q100 0 182 -39.5t140.5 -105t91 -150.5t32.5 -174q0 -135 -48 -246.5t-131 -190.5t-192.5 -123t-232.5 -44q-92 0 -165.5 30t-121.5 69l-86 -408h-268zM641 811q-72 0 -131 -24.5t-92 -53.5l-92 -432q10 -14 32.5 -31.5 t54 -32t69.5 -23.5t77 -9q76 0 137.5 31.5t104.5 82t65.5 116t22.5 132.5q0 51 -18.5 96.5t-52.5 78t-79 51t-98 18.5z" />
<glyph unicode="&#xff;" horiz-adv-x="1120" d="M324 63l-226 953h267l106 -549q14 -80 25 -148h4q16 41 36.5 78t43.5 76l319 543h289l-842 -1354h-264zM301 1251q0 59 39 99.5t104 40.5q66 0 105 -40t39 -100q0 -59 -39 -99t-105 -40t-104.5 40t-38.5 99zM727 1251q0 59 39 99.5t104 40.5q66 0 105 -40t39 -100 q0 -59 -39 -99t-105 -40t-104.5 40t-38.5 99z" />
<glyph unicode="&#x152;" horiz-adv-x="2277" d="M2351 1372l-51 -237h-698l-62 -289h658l-50 -238h-657l-80 -370h711l-49 -238h-920l31 147q-80 -82 -184.5 -133t-260.5 -51t-277.5 52.5t-205.5 140.5t-128 204.5t-44 247.5q0 170 59.5 316.5t165 254t248.5 169t309 61.5q86 0 159 -18.5t133.5 -51t108.5 -76.5t87 -96 l45 205h952zM1264 766q0 84 -29 156.5t-81 127t-126 86t-162 31.5q-113 0 -206 -43t-158.5 -117.5t-102.5 -177t-37 -221.5q0 -86 30 -159.5t81 -127t121 -84t149 -30.5q119 0 215.5 41t164 115.5t104.5 177t37 225.5z" />
<glyph unicode="&#x153;" horiz-adv-x="1867" d="M625 1044q135 0 234 -48t159 -134q72 84 168 133t215 49q106 0 185 -39.5t131 -101t78 -137.5t26 -150q0 -47 -11.5 -106t-31.5 -107h-695q6 -94 81 -150t204 -56q88 0 175 28.5t136 69.5h21l-49 -234q-57 -35 -137 -62.5t-205 -27.5q-129 0 -219.5 49.5t-143.5 129.5 q-72 -82 -175 -130.5t-228 -48.5q-113 0 -206 33t-160.5 94.5t-104.5 148.5t-37 193q0 119 45 228.5t125 193.5t187.5 133t232.5 49zM303 440q0 -49 17.5 -91t49 -73.5t74.5 -50t97 -18.5q82 0 141 33.5t99 87t59.5 119t19.5 126.5q0 49 -16.5 91.5t-47 75t-73.5 51 t-98 18.5q-74 0 -134.5 -33t-101.5 -85t-63.5 -117.5t-22.5 -133.5zM1581 602q6 25 6 49q0 72 -53 125t-137 53q-106 0 -183 -61t-108 -166h475z" />
<glyph unicode="&#x178;" horiz-adv-x="1263" d="M434 1616q0 59 39 99t105 40t104.5 -40t38.5 -99t-39 -99t-104 -40q-66 0 -105 40t-39 99zM860 1616q0 59 39 99t105 40t104.5 -40t38.5 -99t-39 -99t-104 -40q-66 0 -105 40t-39 99zM762 604l-127 -604h-273l136 645l-334 707v20h268l236 -518l438 518h311v-20z" />
<glyph unicode="&#x2c6;" horiz-adv-x="716" d="M928 1124h-221l-89 117l-122 -117h-240l229 248h297z" />
<glyph unicode="&#x2dc;" horiz-adv-x="862" d="M582 1391q49 0 87 -18.5t62 -41.5q41 -37 74 -37q31 0 50 23.5t28 60.5l184 -30q-23 -117 -89.5 -173.5t-166.5 -56.5q-59 0 -94 20.5t-64 43.5q-16 12 -31.5 22t-31.5 10q-31 0 -49.5 -23.5t-24.5 -60.5l-190 31q18 117 87 173.5t169 56.5z" />
<glyph unicode="&#x2000;" horiz-adv-x="877" />
<glyph unicode="&#x2001;" horiz-adv-x="1755" />
<glyph unicode="&#x2002;" horiz-adv-x="877" />
<glyph unicode="&#x2003;" horiz-adv-x="1755" />
<glyph unicode="&#x2004;" horiz-adv-x="585" />
<glyph unicode="&#x2005;" horiz-adv-x="438" />
<glyph unicode="&#x2006;" horiz-adv-x="292" />
<glyph unicode="&#x2007;" horiz-adv-x="292" />
<glyph unicode="&#x2008;" horiz-adv-x="219" />
<glyph unicode="&#x2009;" horiz-adv-x="351" />
<glyph unicode="&#x200a;" horiz-adv-x="97" />
<glyph unicode="&#x2010;" horiz-adv-x="796" d="M74 410l49 233h573l-49 -233h-573z" />
<glyph unicode="&#x2011;" horiz-adv-x="796" d="M74 410l49 233h573l-49 -233h-573z" />
<glyph unicode="&#x2012;" horiz-adv-x="796" d="M74 410l49 233h573l-49 -233h-573z" />
<glyph unicode="&#x2013;" horiz-adv-x="1263" d="M74 410l49 233h1040l-49 -233h-1040z" />
<glyph unicode="&#x2014;" horiz-adv-x="1654" d="M74 410l49 233h1431l-49 -233h-1431z" />
<glyph unicode="&#x2018;" horiz-adv-x="542" d="M629 1372l-197 -491h-293l316 491h174z" />
<glyph unicode="&#x2019;" horiz-adv-x="522" d="M156 881l196 491h293l-315 -491h-174z" />
<glyph unicode="&#x201a;" horiz-adv-x="548" d="M-111 -223l197 491h293l-316 -491h-174z" />
<glyph unicode="&#x201c;" horiz-adv-x="950" d="M629 1372l-197 -491h-293l316 491h174zM1036 1372l-196 -491h-293l315 491h174z" />
<glyph unicode="&#x201d;" horiz-adv-x="929" d="M563 881l197 491h293l-316 -491h-174zM156 881l196 491h293l-315 -491h-174z" />
<glyph unicode="&#x201e;" horiz-adv-x="956" d="M297 -223l197 491h292l-315 -491h-174zM-111 -223l197 491h293l-316 -491h-174z" />
<glyph unicode="&#x2022;" horiz-adv-x="888" d="M758 588q0 -66 -23.5 -123t-66.5 -100t-100.5 -68t-125.5 -25t-125 25t-100 68t-66.5 100t-23.5 123t23.5 123t66.5 100t100.5 67.5t124.5 24.5q68 0 125.5 -24.5t100.5 -67.5t66.5 -100t23.5 -123z" />
<glyph unicode="&#x2026;" horiz-adv-x="1783" d="M4 143q0 78 49 125t121 47t121 -47t49 -125q0 -76 -49 -124t-121 -48t-121 48t-49 124zM635 143q0 78 49 125t121 47t121 -47t49 -125q0 -76 -49 -124t-121 -48t-121 48t-49 124zM1266 143q0 78 49 125t121 47t121 -47t49 -125q0 -76 -49.5 -124t-120.5 -48 q-72 0 -121 48t-49 124z" />
<glyph unicode="&#x202f;" horiz-adv-x="351" />
<glyph unicode="&#x2030;" horiz-adv-x="2539" d="M1300 -18q-70 0 -124 24.5t-90.5 67.5t-56 100t-19.5 123q0 84 28.5 166t78.5 145.5t118 102.5t147 39q152 0 225.5 -89.5t73.5 -226.5q0 -86 -28.5 -168t-78.5 -144.5t-121 -101t-153 -38.5zM1303 176q45 0 77.5 22.5t54 58.5t31 81t9.5 90q0 57 -22.5 93t-72.5 36 q-70 0 -120 -70.5t-50 -187.5q0 -55 25 -89t68 -34zM2046 -18q-70 0 -124 24.5t-91 67.5t-56.5 100t-19.5 123q0 84 28.5 166t79 145.5t118 102.5t147.5 39q152 0 225.5 -89.5t73.5 -226.5q0 -86 -28.5 -168t-79 -144.5t-121 -101t-152.5 -38.5zM2048 176q45 0 78 22.5 t54.5 58.5t30.5 81t9 90q0 57 -22.5 93t-71.5 36q-70 0 -120 -70.5t-50 -187.5q0 -55 24.5 -89t67.5 -34zM444 616q-70 0 -124 25t-90.5 68t-56 100t-19.5 123q0 84 28.5 166t78.5 145.5t117.5 102t147.5 38.5q152 0 225.5 -89t73.5 -226q0 -86 -28.5 -168t-78.5 -144.5 t-121 -101.5t-153 -39zM446 811q45 0 78 22.5t54.5 58.5t30.5 81t9 90q0 57 -22.5 93t-71.5 36q-70 0 -120 -70.5t-50 -187.5q0 -55 24.5 -89t67.5 -34zM244 20l1118 1352h229v-20l-1122 -1352h-225v20z" />
<glyph unicode="&#x2039;" horiz-adv-x="700" d="M55 541l346 391h295v-21l-364 -395l176 -395v-21h-270z" />
<glyph unicode="&#x203a;" horiz-adv-x="700" d="M340 535l-188 376v21h276l193 -416l-353 -416h-288v21z" />
<glyph unicode="&#x205f;" horiz-adv-x="438" />
<glyph unicode="&#x20ac;" horiz-adv-x="1273" d="M152 940h153q45 104 112.5 191.5t153.5 148.5t187.5 95t214.5 34q63 0 118.5 -8t100.5 -21.5t78 -30t51 -30.5l-51 -236h-21q-33 35 -107.5 61.5t-168.5 26.5q-137 0 -231.5 -63.5t-149.5 -167.5h463l-41 -197h-490q-6 -29 -9 -59.5t-7 -60.5h481l-41 -197h-428 q16 -61 48 -103t73 -67t87 -36t93 -11q76 0 148.5 20.5t128.5 67.5h20l-53 -248q-45 -31 -123 -54.5t-168 -23.5q-104 0 -194.5 32t-160 90.5t-115.5 143.5t-64 189h-195l41 197h145q2 31 6.5 61.5t8.5 58.5h-135z" />
<glyph unicode="&#x2122;" horiz-adv-x="1900" d="M358 541l142 667h-258l34 164h693l-35 -164h-260l-142 -667h-174zM1276 735l-82 422l-27 -133l-104 -485h-166l178 833h244l86 -450l281 450h237l-176 -831h-166l102 483q12 59 19.5 88t11.5 47l-256 -424h-182z" />
<glyph unicode="&#x2190;" horiz-adv-x="1556" d="M1464 651v-243h-903l295 -287v-23h-309l-434 430l434 433h309v-23l-295 -287h903z" />
<glyph unicode="&#x2192;" horiz-adv-x="1556" d="M1016 651l-295 287v23h309l434 -433l-434 -430h-309v23l295 287h-903v243h903z" />
<glyph unicode="&#x25fc;" horiz-adv-x="1013" d="M0 1014h1014v-1014h-1014v1014z" />
<glyph horiz-adv-x="1144" d="M262 0h-268l291 1372h268l-76 -356h641l-217 -1016h-268l164 786h-369z" />
<glyph horiz-adv-x="1753" d="M885 0h-271l164 786h-350l-166 -786h-268l215 1016h1517l-217 -1016h-268l164 786h-354z" />
<glyph horiz-adv-x="1144" d="M262 0h-268l215 1016h909l-217 -1016h-268l164 786h-369z" />
<glyph horiz-adv-x="1132" d="M838 1016h268l-215 -1016h-897l215 1016h268l-162 -787h357z" />
<glyph horiz-adv-x="1132" d="M995 1124h-221l-88 117l-123 -117h-239l229 248h297zM838 1016h268l-215 -1016h-897l215 1016h268l-162 -787h357z" />
<glyph horiz-adv-x="1132" d="M317 1372h328l152 -248h-236zM838 1016h268l-215 -1016h-897l215 1016h268l-162 -787h357z" />
<glyph horiz-adv-x="1132" d="M336 1251q0 59 39 99.5t104 40.5q66 0 105 -40t39 -100q0 -59 -39 -99t-105 -40t-104.5 40t-38.5 99zM762 1251q0 59 39 99.5t104 40.5q66 0 105 -40t39 -100q0 -59 -39 -99t-105 -40t-104.5 40t-38.5 99zM838 1016h268l-215 -1016h-897l215 1016h268l-162 -787h357z" />
<glyph horiz-adv-x="1132" d="M760 1124h-248l190 248h347zM838 1016h268l-215 -1016h-897l215 1016h268l-162 -787h357z" />
<glyph horiz-adv-x="1144" d="M588 1391q49 0 87 -18.5t62 -41.5q41 -37 74 -37q31 0 50.5 23.5t27.5 60.5l184 -30q-23 -117 -89 -173.5t-167 -56.5q-59 0 -94 20.5t-64 43.5q-16 12 -31.5 22t-31.5 10q-31 0 -49.5 -23.5t-24.5 -60.5l-190 31q18 117 87 173.5t169 56.5zM262 0h-268l215 1016h909 l-217 -1016h-268l164 786h-369z" />
<glyph horiz-adv-x="811" d="M106 537l50 233h573l-49 -233h-574z" />
<glyph horiz-adv-x="1277" d="M106 537l50 233h1040l-49 -233h-1041z" />
<glyph horiz-adv-x="1669" d="M106 537l50 233h1431l-49 -233h-1432z" />
<glyph horiz-adv-x="811" d="M106 537l50 233h573l-49 -233h-574z" />
<glyph horiz-adv-x="1259" d="M98 678l346 391h295v-20l-364 -396l176 -395v-20h-270zM627 678l346 391h295v-20l-365 -396l176 -395v-20h-270z" />
<glyph horiz-adv-x="1261" d="M383 672l-188 377v20h276l193 -416l-353 -415h-288v20zM915 672l-188 377v20h277l192 -416l-352 -415h-289v20z" />
<glyph horiz-adv-x="731" d="M98 678l346 391h295v-20l-364 -396l176 -395v-20h-270z" />
<glyph horiz-adv-x="729" d="M383 672l-188 377v20h276l193 -416l-353 -415h-288v20z" />
<glyph horiz-adv-x="741" d="M881 1530v-21q-115 -88 -215.5 -198.5t-174 -239.5t-116.5 -272.5t-43 -298.5q0 -94 19.5 -189.5t53 -181.5t77.5 -160.5t91 -128.5v-20h-258q-53 66 -97 147.5t-74.5 170.5t-47 181.5t-16.5 180.5q0 162 40 309t110.5 277.5t167 242t208.5 201.5h275z" />
<glyph horiz-adv-x="739" d="M-104 -180v20q115 88 215 199t173.5 240t116.5 272t43 299q0 94 -19 189.5t-53 181.5t-78 160.5t-91 127.5v21h252q53 -66 98 -148t77 -171t49 -181t17 -180q0 -162 -39 -309.5t-108.5 -278.5t-164.5 -242.5t-208 -199.5h-280z" />
<glyph horiz-adv-x="735" d="M377 1530h485l-43 -199h-223l-279 -1313h226l-43 -198h-488z" />
<glyph horiz-adv-x="735" d="M395 -180h-485l43 198h223l279 1313h-226l43 199h488z" />
<glyph horiz-adv-x="677" d="M354 743q33 -16 48.5 -42.5t15.5 -75.5q0 -25 -3 -56.5t-14 -72.5l-65 -310q-12 -55 -12 -88q0 -45 33.5 -62.5t119.5 -17.5l-43 -196h-63q-158 0 -239 47t-81 145q0 10 2 28.5t13.5 72t33 157t60.5 285.5q6 25 6 45q0 61 -64 74l29 139q47 8 72.5 38t36.5 81l65 313 q18 86 46 141.5t76 87t123 44t185 12.5h64l-43 -197q-59 0 -95 -8t-57.5 -27.5t-32 -52.5t-20.5 -80l-37 -172q-12 -61 -26.5 -102t-33 -69.5t-41 -46t-53.5 -29.5z" />
<glyph horiz-adv-x="677" d="M375 676q-33 16 -48.5 42.5t-15.5 76.5q0 25 3 56.5t14 72.5l53 243q12 55 12 88q0 45 -33.5 62.5t-119.5 17.5l43 197h63q176 0 248 -50t72 -143q0 -41 -13 -92l-82 -385q-6 -29 -6 -47q0 -29 13.5 -47t48.5 -25l-29 -139q-47 -8 -71.5 -37.5t-34.5 -81.5l-80 -379 q-23 -90 -49.5 -145t-73.5 -86t-121 -42t-186 -11h-64l43 196q59 0 95 8.5t57.5 28t32 52t20.5 79.5l49 238q8 39 19.5 76t28 69.5t42 60t64.5 46.5h6z" />
<glyph horiz-adv-x="614" d="M274 -180h-262l365 1710h262z" />
<glyph horiz-adv-x="1189" d="M178 147l-143 181l411 340l-260 331l187 152l260 -330l399 330l144 -180l-402 -332l270 -340l-186 -152l-268 340z" />
<glyph horiz-adv-x="1110" d="M334 164l80 373h-355l50 233h354l80 373h258l-82 -373h360l-49 -233h-360l-80 -373h-256z" />
<glyph horiz-adv-x="1073" d="M887 358l-49 -213h-21l-735 494v25l950 497h21l-56 -258l-516 -270z" />
<glyph horiz-adv-x="1157" d="M152 748l53 241h919l-53 -241h-919zM61 319l52 242h919l-51 -242h-920z" />
<glyph horiz-adv-x="1073" d="M215 948l49 213h21l735 -493v-25l-950 -498h-21l55 258l517 271z" />
<glyph horiz-adv-x="1157" d="M23 117l45 219h919l-45 -219h-919zM414 406l61 282h-332l47 219h332l60 283h254l-60 -283h334l-47 -219h-334l-61 -282h-254z" />
<glyph horiz-adv-x="1148" d="M961 295h-273l90 428h-672l54 242h944z" />
<glyph horiz-adv-x="1099" d="M485 1040q0 74 48.5 121t117.5 47q70 0 118 -47t48 -121t-48 -121t-118 -47t-118 47t-48 121zM317 266q0 74 48.5 121t117.5 47q70 0 118 -47t48 -121t-48 -121t-118 -47t-118 47t-48 121zM70 537l49 233h940l-49 -233h-940z" />
<glyph horiz-adv-x="980" d="M365 193q72 10 150.5 16t150.5 6h143l-45 -215h-797l37 186l490 334q80 53 112.5 91t32.5 91q0 47 -49 79t-119 32q-47 0 -93 -10t-88 -26.5t-76 -35t-56 -36.5h-21l51 243q49 33 135.5 64.5t184.5 31.5q94 0 167 -25.5t124 -68.5t77.5 -100t26.5 -121 q0 -63 -29.5 -120.5t-77.5 -108.5t-109.5 -96.5t-127.5 -86.5z" />
<glyph horiz-adv-x="1255" d="M68 508q0 113 41 211t112.5 170t171 113.5t215.5 41.5q117 0 216.5 -40.5t173 -113.5t114.5 -171t41 -211q0 -115 -41 -213t-114.5 -170t-173 -113t-216.5 -41t-216 41t-170.5 113t-112.5 170t-41 213zM319 508q0 -68 24 -122t62.5 -94t91 -61.5t111.5 -21.5 q57 0 111.5 21.5t94.5 61.5t64.5 94t24.5 122t-24.5 122t-64.5 94t-94 61.5t-112 21.5q-59 0 -111.5 -21.5t-91 -61.5t-62.5 -94t-24 -122z" />
<glyph horiz-adv-x="1036" d="M563 545q66 -14 122 -50t98 -88.5t65.5 -118t23.5 -136.5q0 -115 -45 -209.5t-122.5 -164t-184 -107.5t-229.5 -38q-55 0 -112.5 10.5t-110 28t-92 38t-60.5 38.5l49 234h21q37 -43 120.5 -78t184.5 -35q68 0 124 21.5t98 60.5t64.5 90t22.5 111q0 92 -64.5 153.5 t-173.5 61.5q-68 0 -123 -20.5t-69 -33.5h-10l35 164l249 211q35 29 78 60.5t58 42.5q-16 0 -61.5 -2.5t-86.5 -2.5h-311l49 230h809l-31 -144z" />
<glyph horiz-adv-x="1187" d="M1018 0h-225l-72 -338h-272l71 338h-604l49 223l719 793h324l-166 -780h225zM651 567q8 35 19.5 73t25.5 79h-2l-424 -483h301z" />
<glyph horiz-adv-x="1091" d="M23 260l159 756h799l-49 -230h-543l-51 -239q45 33 98 47t107 14q84 0 157.5 -31.5t128 -90t85 -138.5t30.5 -178q0 -104 -42 -201.5t-121 -172.5t-191.5 -119t-253.5 -44q-68 0 -132.5 14.5t-117.5 36t-93 45t-59 42.5l52 235h20q20 -27 56 -51.5t79 -44t93.5 -30.5 t101.5 -11q70 0 131 22.5t107.5 62.5t72 95t25.5 121q0 90 -57.5 149.5t-149.5 59.5q-72 0 -133.5 -32t-95.5 -87h-213z" />
<glyph horiz-adv-x="1169" d="M694 1372h287v-20l-213 -244q-47 -53 -78 -87t-52.5 -56.5t-37.5 -38t-33 -29.5q35 20 127 21q82 0 156 -37t128 -96.5t86 -135.5t32 -155q0 -96 -39 -190.5t-111 -168.5t-176 -119t-233 -45q-127 0 -220.5 40t-154 105.5t-89 148.5t-28.5 169q0 92 47 190.5t131 196.5z M539 209q63 0 116.5 21.5t93 58.5t62.5 88t23 110q0 98 -64.5 163t-163.5 65q-61 0 -114.5 -21.5t-93.5 -58.5t-63.5 -88t-23.5 -111q0 -51 18.5 -93t49.5 -71.5t72 -46t88 -16.5z" />
<glyph horiz-adv-x="1036" d="M1135 1016l-908 -1354h-305l744 1120h-578l49 234h998z" />
<glyph horiz-adv-x="1181" d="M518 -29q-115 0 -203 32t-148.5 87t-91 130t-30.5 163q0 59 23.5 118.5t63.5 110t90 89t104 59.5q-20 12 -42 36.5t-38.5 54.5t-27.5 62.5t-11 65.5q0 88 37 166t101.5 134t153.5 89t193 33q106 0 190.5 -31t141.5 -83t87 -119.5t30 -141.5q0 -51 -19.5 -100t-52.5 -90 t-73 -74t-83 -51q27 -12 52.5 -40t47 -64t35 -77t13.5 -79q0 -102 -36 -189.5t-105.5 -152t-170 -101.5t-231.5 -37zM649 836q100 4 157.5 58t57.5 132q0 57 -48 98t-124 41q-100 0 -157.5 -52t-57.5 -134q0 -23 11.5 -48.5t33 -47t53 -34.5t74.5 -13zM537 207 q57 0 105 17.5t82 49t52.5 73.5t18.5 91q0 78 -60.5 133.5t-161.5 55.5q-117 0 -185.5 -66.5t-68.5 -165.5q0 -37 15.5 -70.5t43.5 -59t69 -42t90 -16.5z" />
<glyph horiz-adv-x="1142" d="M446 -338h-286v21l196 225q45 53 77 87t53.5 56.5t38 37.5t32.5 30q-35 -20 -127 -21q-84 0 -156.5 37t-127 96.5t-86 135t-31.5 155.5q0 96 38.5 190.5t110.5 168t176.5 118.5t233.5 45q127 0 220 -39.5t153.5 -105t89 -148.5t28.5 -169q0 -92 -47 -190.5t-131 -196.5z M586 807q-63 0 -116.5 -21.5t-93.5 -58.5t-62.5 -88t-22.5 -111q0 -98 64.5 -162.5t162.5 -64.5q61 0 114.5 21.5t93.5 58.5t63.5 88t23.5 111q0 51 -18.5 93t-49 71.5t-72.5 46t-87 16.5z" />
<glyph horiz-adv-x="503" d="M-6 0l215 1016h268l-215 -1016h-268zM231 1262q0 61 41 104t111 43t111 -43t41 -104t-41 -104.5t-111 -43.5t-111 43.5t-41 104.5z" />
<glyph d="M502 -29q-115 0 -201 37t-143.5 104.5t-85 161t-27.5 205.5q0 164 45 328t129 296t207 215t279 83q111 0 194.5 -37t142 -103.5t88 -160.5t29.5 -209q0 -166 -42 -330t-125 -295t-205.5 -213t-284.5 -82zM705 1165q-92 0 -165 -66.5t-122 -168t-75 -222t-26 -229.5 q0 -115 47.5 -192.5t137.5 -77.5q96 0 168.5 67.5t121 170t73 222t24.5 222.5q0 123 -48 198.5t-136 75.5z" />
<glyph d="M57 209l561 506l13 10q37 33 72.5 67.5t63.5 71.5t44 76t16 80q0 53 -51 99t-155 46q-57 0 -111.5 -15t-102 -36.5t-84 -47.5t-59.5 -46h-20l53 270q20 16 57 36t84 36t102.5 27.5t112.5 11.5q115 0 200 -29t140.5 -78t82 -115.5t26.5 -142.5q0 -117 -68.5 -219 t-177.5 -199l-291 -260q-18 -16 -43.5 -37.5t-50.5 -41.5q-29 -23 -59 -50q45 2 73.5 3t81.5 1h387l-49 -233h-891z" />
<glyph d="M682 887q70 -10 129 -46t102 -89.5t68 -121t25 -141.5q0 -115 -45.5 -209t-123 -163.5t-184 -107.5t-229.5 -38q-55 0 -112.5 10.5t-109.5 28t-92 38t-61 38.5l49 233h21q37 -43 121 -77.5t184 -34.5q68 0 124 21.5t98 60.5t64.5 90t22.5 110q0 92 -64.5 154t-172.5 62 q-68 0 -123.5 -20.5t-69.5 -33.5h-10l39 183l250 210q16 14 35.5 31t39 31t35 25.5t21.5 15.5q-16 0 -59.5 -2t-84.5 -2h-311l49 229h809l-31 -143z" />
<glyph d="M18 446l725 926h340l-190 -895h172l-49 -235h-172l-51 -242h-273l51 242h-596zM682 750q18 76 30.5 123t21.5 81.5t17.5 63.5t18.5 67h-2q-25 -37 -42 -62.5t-42 -57t-61.5 -79.5t-98.5 -130l-207 -279h306z" />
<glyph d="M133 598l164 774h799l-49 -229h-543l-55 -258q45 33 98 47t106 14q84 0 158 -31.5t128 -90t85 -138.5t31 -178q0 -104 -42 -201.5t-121 -172.5t-191.5 -119t-254.5 -44q-68 0 -132 14.5t-117.5 36t-93.5 45t-58 42.5l51 235h21q20 -27 56 -51.5t79 -44t93 -30.5t101 -11 q70 0 131.5 22.5t107.5 62.5t71.5 95t25.5 121q0 90 -57 149.5t-150 59.5q-72 0 -133 -32t-96 -87h-213z" />
<glyph d="M692 1372h287v-20l-213 -244q-47 -53 -78 -87t-52.5 -56.5t-37.5 -38t-33 -29.5q35 20 127 21q82 0 156 -37t128 -96.5t86 -135.5t32 -155q0 -96 -39 -190.5t-111 -168.5t-176 -119t-233 -45q-127 0 -220.5 40t-154 105.5t-89 148.5t-28.5 169q0 92 47 190.5t131 196.5z M537 209q63 0 116.5 21.5t93 58.5t62 88t22.5 110q0 98 -64.5 163t-162.5 65q-61 0 -114.5 -21.5t-93.5 -58.5t-63.5 -88t-23.5 -111q0 -51 18.5 -93t49.5 -71.5t72 -46t88 -16.5z" />
<glyph d="M1278 1372l-920 -1372h-305l756 1139h-578l50 233h997z" />
<glyph d="M510 -29q-115 0 -203 32t-148.5 87t-91 130t-30.5 163q0 59 23.5 118.5t63.5 110t90 89t103 59.5q-20 12 -41.5 36.5t-38 54.5t-27.5 62.5t-11 65.5q0 88 36.5 166t101 134t154 89t193.5 33q106 0 190 -31t141.5 -83t87.5 -119.5t30 -141.5q0 -51 -19.5 -100t-52.5 -90 t-73 -74t-83 -51q27 -12 52.5 -40t47 -64t35 -77t13.5 -79q0 -102 -36 -189.5t-105.5 -152t-170 -101.5t-231.5 -37zM641 836q100 4 157.5 58t57.5 132q0 57 -48 98t-124 41q-100 0 -157.5 -52t-57.5 -134q0 -23 11.5 -48.5t33 -47t53 -34.5t74.5 -13zM528 207 q57 0 105.5 17.5t82.5 49t52 73.5t18 91q0 78 -60 133.5t-161 55.5q-117 0 -185.5 -66.5t-68.5 -165.5q0 -37 15.5 -70.5t43 -59t68.5 -42t90 -16.5z" />
<glyph d="M514 0h-287v20l213 244q45 53 77 87t53.5 56.5t38 38t32.5 29.5q-35 -20 -127 -20q-84 0 -156.5 36.5t-127 96t-86 135.5t-31.5 156q0 96 38.5 190t110.5 168t176.5 119t233.5 45q127 0 220 -40t153.5 -105.5t89 -148.5t28.5 -169q0 -92 -47 -190.5t-131 -196.5z M670 1163q-63 0 -116.5 -21.5t-93.5 -58t-62.5 -88t-22.5 -110.5q0 -98 64.5 -163t162.5 -65q61 0 114.5 21.5t93.5 58.5t63.5 88.5t23.5 110.5q0 51 -18.5 93t-49 71.5t-72.5 46t-87 16.5z" />
<glyph horiz-adv-x="1089" d="M133 408l617 745h-541l47 219h944l-618 -747h174l-45 -217h-578zM213 143q0 78 49 125t121 47t121 -47t49 -125q0 -76 -49 -124t-121 -48t-121 48t-49 124z" />
<glyph horiz-adv-x="1320" d="M938 0l-43 100q-25 -20 -58.5 -44.5t-79.5 -45t-105.5 -34t-135.5 -13.5q-111 0 -197 39t-145 102.5t-91 145.5t-32 168q0 102 41 186t106.5 148.5t147.5 107.5t166 64l-203 448h817l-47 -219h-397l276 -612q8 12 22.5 63t25.5 119l6 47h211l-25 -164q-8 -53 -23.5 -104 t-35 -94t-38 -78t-32.5 -54l127 -276h-258zM326 430q0 -111 72.5 -168t181.5 -57q57 0 116.5 23.5t102.5 60.5l-203 446q-121 -29 -195.5 -108.5t-74.5 -196.5z" />
<glyph horiz-adv-x="2152" d="M1309 696q-23 23 -64 45.5t-92 22.5q-61 0 -114.5 -21.5t-92.5 -59.5t-61.5 -91t-22.5 -115q0 -41 15.5 -76.5t42 -62.5t59.5 -42t70 -15q53 0 101 18t83 51zM1989 471q0 -219 -98.5 -346t-295.5 -127q-123 0 -202.5 52t-114.5 120q-47 -47 -110.5 -82t-166.5 -35 q-84 0 -156.5 32t-125.5 89t-85 135t-32 168q0 106 44 198.5t116 161t164 108.5t188 40q33 0 70 -8t69.5 -20.5t59 -28t39.5 -29.5l12 68h256l-117 -549q-4 -18 -6 -41t-2 -35q0 -53 29.5 -83t77.5 -30q53 0 85.5 47.5t32.5 141.5v717h-1218v-1203h960v-233h-1229v1669h1756 v-897z" />
<glyph horiz-adv-x="722" d="M203 1372h502l-291 -1372h-269l240 1135h-233z" />
<glyph horiz-adv-x="1355" d="M1180 102q-82 -59 -202 -99t-267 -40q-129 0 -244 50t-200 138.5t-135 205t-50 251.5q0 164 58.5 309.5t164 255t250.5 173t317 63.5q68 0 134.5 -14.5t125 -36t105.5 -48t74 -50.5l-58 -242h-20q-51 55 -144.5 100t-216.5 45q-96 0 -188 -34.5t-163.5 -104.5 t-116 -174.5t-44.5 -241.5q0 -100 36 -175t93.5 -125t131 -74.5t151.5 -24.5q66 0 117 15.5t74 27.5l61 283h-502l49 229h750z" />
<glyph horiz-adv-x="878" d="M-92 0l49 240h430l240 1132h270l-291 -1372h-698z" />
<glyph horiz-adv-x="1296" d="M901 0l-469 649l-135 -649h-272l290 1372h273l-90 -426l77 -102l541 528h314v-20l-705 -695l483 -637v-20h-307z" />
<glyph horiz-adv-x="1572" d="M874 1409q156 0 279 -53t207 -142.5t128 -206t44 -241.5q0 -225 -100.5 -402.5t-268.5 -281.5l277 -399v-21h-303l-226 320q-84 -18 -174 -19q-156 0 -277.5 52.5t-205.5 140.5t-128 204.5t-44 247.5q0 170 61.5 316.5t168 254t251.5 169t311 61.5zM1253 766 q0 84 -26.5 156.5t-75.5 127t-121 86t-160 31.5q-113 0 -207 -43t-161.5 -117.5t-104.5 -177t-37 -221.5q0 -86 29 -159.5t80 -127t119.5 -84t148.5 -30.5q123 0 219.5 46t163 123t100 178t33.5 212z" />
<glyph horiz-adv-x="1255" d="M504 979l190 -277q51 2 99.5 24t84 56.5t57 80.5t21.5 102q0 92 -64.5 131t-162.5 39h-192zM297 0h-272l290 1372h486q100 0 180 -31.5t136.5 -85t87 -124t30.5 -150.5q0 -90 -32 -167t-87 -137.5t-132 -103.5t-165 -61l316 -492v-20h-291l-412 655z" />
<glyph horiz-adv-x="1148" d="M147 317h21q20 -25 54 -47t75 -39.5t87 -27.5t91 -10q133 0 214 53t118 151q-98 -41 -197 -41q-80 0 -165 32t-156.5 94.5t-117.5 155.5t-46 218q0 98 40 197.5t113.5 178.5t180 128t239.5 49q74 0 136.5 -13.5t112.5 -33t87 -44t60 -46.5l-52 -217h-20q-23 25 -55.5 47 t-73.5 39.5t-87 28t-91 10.5q-135 0 -216 -54.5t-118 -152.5q49 20 100 31.5t99 11.5q80 0 164.5 -32t156.5 -94.5t118 -155.5t46 -218q0 -98 -40 -197.5t-113.5 -178.5t-180 -128t-239.5 -49q-74 0 -136.5 13.5t-112.5 33t-87 44t-60 46.5zM657 575q43 0 83 8.5t75 22.5 q-31 86 -107.5 138.5t-175.5 52.5q-86 0 -157 -33q31 -84 107.5 -136.5t174.5 -52.5z" />
<glyph horiz-adv-x="1341" d="M315 1372h273l-240 -1130h500l239 1130h273l-291 -1372h-1044z" />
<glyph horiz-adv-x="1052" d="M506 -29q-111 0 -198 37t-148.5 100.5t-93 147.5t-31.5 178q0 115 43 224.5t120.5 195.5t186.5 138t240 52q80 0 145.5 -19t116.5 -47t87 -60.5t56 -59.5l-94 -455h-655q2 -53 25.5 -92t62.5 -64.5t89 -37.5t107 -12q88 0 175 28.5t137 69.5h20l-49 -234 q-57 -35 -137 -62.5t-205 -27.5zM625 829q-123 0 -203 -64.5t-115 -162.5h445l34 168q-25 23 -68.5 41t-92.5 18z" />
<glyph horiz-adv-x="796" d="M98 0l170 803h-200l45 213h200l76 356h508l-47 -219h-240l-28 -137h282l-45 -213h-282l-170 -803h-269z" />
<glyph horiz-adv-x="1220" d="M485 37q-109 0 -190.5 36t-138 97t-85 141t-28.5 170q0 104 43 205.5t121 181.5t185.5 128t236.5 48q100 0 183 -39.5t122 -93.5l22 105h238l-289 -1354h-928l50 229h659l47 220q-39 -29 -104.5 -51.5t-143.5 -22.5zM557 264q74 0 137.5 29t91.5 63l74 355 q-27 35 -86 68.5t-145 33.5q-63 0 -119.5 -25.5t-99.5 -68.5t-68 -102.5t-25 -127.5q0 -104 69 -164.5t171 -60.5z" />
<glyph horiz-adv-x="503" d="M209 1016h268l-289 -1354h-505l49 229h237zM227 1262q0 61 41 104t111 43t110.5 -43t40.5 -104t-40.5 -104.5t-110.5 -43.5t-111 43.5t-41 104.5z" />
<glyph horiz-adv-x="772" d="M262 0h-268l215 1016h629l-50 -230h-360z" />
<glyph horiz-adv-x="821" d="M285 803h-217l45 213h217l57 266h268l-57 -266h250l-45 -213h-250l-121 -565h234l-50 -238h-501z" />
<glyph horiz-adv-x="1648" d="M1102 -29q-129 0 -218 48.5t-143 127.5q-33 -33 -70.5 -64.5t-86.5 -56t-110.5 -40t-139.5 -15.5q-76 0 -138.5 24.5t-107.5 67.5t-69.5 99.5t-24.5 122.5q0 74 34.5 140.5t98 116.5t154 80.5t198.5 30.5q27 0 58.5 -3t60.5 -8t51.5 -11t32.5 -10q6 25 10 45t4 41 q0 53 -50 84.5t-142 31.5q-106 0 -184 -27.5t-109 -50.5h-21l48 230q37 20 124 44.5t195 24.5q115 0 194.5 -32.5t125.5 -91.5q68 59 153.5 91.5t190.5 32.5q80 0 145.5 -19t116.5 -47t87 -60.5t56 -59.5l-94 -455h-655q2 -53 25.5 -92t62.5 -64.5t89 -37.5t107 -12 q88 0 175 28.5t137 69.5h20l-49 -234q-57 -35 -137 -62.5t-205 -27.5zM471 463q-47 0 -88 -13.5t-71.5 -36t-48 -51t-17.5 -61.5q0 -49 38 -85t109 -36q63 0 122.5 26.5t88.5 55.5l37 172q-16 10 -66.5 19.5t-103.5 9.5zM1221 829q-123 0 -203 -64.5t-115 -162.5h445l34 168 q-25 23 -68.5 41t-92.5 18z" />
<glyph horiz-adv-x="1052" d="M506 -29q-111 0 -198 37t-148.5 100.5t-93 147.5t-31.5 178q0 115 43 224.5t120.5 195.5t186.5 138t240 52q80 0 145.5 -19t116.5 -47t87 -60.5t56 -59.5l-94 -455h-655q2 -53 25.5 -92t62.5 -64.5t89 -37.5t107 -12q88 0 175 28.5t137 69.5h20l-49 -234 q-57 -35 -137 -62.5t-205 -27.5zM625 829q-123 0 -203 -64.5t-115 -162.5h445l34 168q-25 23 -68.5 41t-92.5 18zM756 1124h-248l190 248h346z" />
<glyph horiz-adv-x="1052" d="M506 -29q-111 0 -198 37t-148.5 100.5t-93 147.5t-31.5 178q0 115 43 224.5t120.5 195.5t186.5 138t240 52q80 0 145.5 -19t116.5 -47t87 -60.5t56 -59.5l-94 -455h-655q2 -53 25.5 -92t62.5 -64.5t89 -37.5t107 -12q88 0 175 28.5t137 69.5h20l-49 -234 q-57 -35 -137 -62.5t-205 -27.5zM625 829q-123 0 -203 -64.5t-115 -162.5h445l34 168q-25 23 -68.5 41t-92.5 18zM983 1124h-221l-88 117l-123 -117h-240l230 248h297z" />
<glyph horiz-adv-x="1052" d="M506 -29q-111 0 -198 37t-148.5 100.5t-93 147.5t-31.5 178q0 115 43 224.5t120.5 195.5t186.5 138t240 52q80 0 145.5 -19t116.5 -47t87 -60.5t56 -59.5l-94 -455h-655q2 -53 25.5 -92t62.5 -64.5t89 -37.5t107 -12q88 0 175 28.5t137 69.5h20l-49 -234 q-57 -35 -137 -62.5t-205 -27.5zM625 829q-123 0 -203 -64.5t-115 -162.5h445l34 168q-25 23 -68.5 41t-92.5 18zM297 1251q0 59 39 99.5t104 40.5q66 0 105 -40t39 -100q0 -59 -39 -99t-105 -40t-104.5 40t-38.5 99zM723 1251q0 59 39 99.5t104 40.5q66 0 105 -40t39 -100 q0 -59 -39 -99t-105 -40t-104.5 40t-38.5 99z" />
<glyph horiz-adv-x="1052" d="M506 -29q-111 0 -198 37t-148.5 100.5t-93 147.5t-31.5 178q0 115 43 224.5t120.5 195.5t186.5 138t240 52q80 0 145.5 -19t116.5 -47t87 -60.5t56 -59.5l-94 -455h-655q2 -53 25.5 -92t62.5 -64.5t89 -37.5t107 -12q88 0 175 28.5t137 69.5h20l-49 -234 q-57 -35 -137 -62.5t-205 -27.5zM625 829q-123 0 -203 -64.5t-115 -162.5h445l34 168q-25 23 -68.5 41t-92.5 18zM311 1372h328l152 -248h-236z" />
<glyph horiz-adv-x="1853" d="M1307 -29q-127 0 -218.5 47.5t-148.5 126.5q-72 -80 -173 -127t-224 -47q-113 0 -206 33t-160.5 94.5t-104.5 148.5t-37 193q0 119 45 228.5t125 193.5t187.5 133t232.5 49q135 0 233 -48t158 -134q76 82 178 132t231 50q80 0 145.5 -19t117 -47t87 -60.5t56.5 -59.5 l-94 -455h-656q2 -53 25.5 -92t62.5 -64.5t89.5 -37.5t107.5 -12q88 0 175 28.5t136 69.5h21l-49 -234q-57 -35 -137 -62.5t-205 -27.5zM303 440q0 -49 17.5 -91t49 -73.5t74.5 -50t97 -18.5q82 0 141 33.5t99 87t59.5 119t19.5 126.5q0 49 -16.5 91.5t-47 75t-73.5 51 t-98 18.5q-74 0 -134.5 -33t-101.5 -85t-63.5 -117.5t-22.5 -133.5zM1425 829q-123 0 -202.5 -64.5t-114.5 -162.5h444l35 168q-25 23 -69 41t-93 18z" />
<glyph horiz-adv-x="1341" d="M315 1372h273l-240 -1130h500l239 1130h273l-291 -1372h-1044zM948 1489h-248l191 248h346z" />
<glyph horiz-adv-x="1341" d="M315 1372h273l-240 -1130h500l239 1130h273l-291 -1372h-1044zM1174 1489h-222l-88 117l-123 -117h-239l229 248h297z" />
<glyph horiz-adv-x="1341" d="M315 1372h273l-240 -1130h500l239 1130h273l-291 -1372h-1044zM489 1737h328l152 -248h-236z" />
<glyph horiz-adv-x="1341" d="M516 1616q0 59 39 99t104 40q66 0 105 -40t39 -99t-39 -99t-105 -40t-104.5 40t-38.5 99zM942 1616q0 59 39 99t104 40q66 0 105 -40t39 -99t-39 -99t-105 -40t-104.5 40t-38.5 99zM315 1372h273l-240 -1130h500l239 1130h273l-291 -1372h-1044z" />
<glyph horiz-adv-x="1300" d="M98 0l170 803h-200l45 213h200l76 356h508l-47 -219h-240l-28 -137h282l-45 -213h-282l-170 -803h-269zM791 0l215 1016h268l-215 -1016h-268zM1028 1262q0 61 41 104t111 43t110.5 -43t40.5 -104t-41 -104.5t-110 -43.5q-70 0 -111 43.5t-41 104.5z" />
<glyph horiz-adv-x="1300" d="M98 0l170 803h-200l45 213h200l76 356h508l-47 -219h-240l-28 -137h282l-45 -213h-282l-170 -803h-269zM791 0l290 1372h269l-291 -1372h-268z" />
<glyph horiz-adv-x="1175" d="M160 317h20q20 -25 54 -47t75 -39.5t87 -27.5t91 -10q133 0 214 53t118 151q-98 -41 -196 -41q-80 0 -165 32t-157 94.5t-118 155.5t-46 218q0 90 34 181t96.5 167t153.5 129t206 70l39 176h227l-41 -184q92 -20 155.5 -55t98.5 -68l-51 -217h-21q-23 25 -55.5 47 t-73.5 39.5t-87 28t-91 10.5q-135 0 -216 -54.5t-118 -152.5q49 20 100.5 31.5t98.5 11.5q80 0 165 -32t156.5 -94.5t117.5 -155.5t46 -218q0 -90 -32.5 -180t-94 -165t-150.5 -129t-200 -71l-37 -184h-227l39 188q-98 16 -165 53.5t-101 71.5zM670 575q43 0 83 8.5t74 22.5 q-31 86 -107.5 138.5t-174.5 52.5q-86 0 -158 -33q31 -84 108 -136.5t175 -52.5z" />
<glyph horiz-adv-x="1218" d="M-6 0l291 1372h968l-372 -543h358l-584 -829h-264l426 618h-336l336 517h-315l-240 -1135h-268z" />
<glyph horiz-adv-x="1851" d="M1642 0h-1392v1372h1392v-1372zM1454 1194h-1016v-1016h1016v1016zM1106 283l-203 301h-78v-301h-176v790h346q72 0 123 -20.5t84 -55t48.5 -79t15.5 -93.5q0 -102 -55.5 -155.5t-125.5 -69.5l220 -307v-10h-199zM825 735h140q66 0 95.5 23.5t29.5 66.5q0 47 -30 70 t-99 23h-136v-183z" />
<glyph horiz-adv-x="1851" d="M1245 539v-187q-47 -31 -115.5 -52t-130.5 -21q-90 0 -165.5 28.5t-131 81.5t-86 128t-30.5 165t31.5 165t87 128t132 82.5t167.5 29.5q53 0 116.5 -19t110.5 -50v-176h-12q-39 39 -95.5 59.5t-117.5 20.5q-57 0 -100.5 -20.5t-73 -53.5t-45 -77t-15.5 -89 q0 -49 16.5 -91t47 -75t72.5 -51.5t96 -18.5q78 0 138 29t93 64h10zM1642 0h-1392v1372h1392v-1372zM1454 1194h-1016v-1016h1016v1016z" />
<glyph horiz-adv-x="1093" d="M920 608l-601 -727h541l-47 -219h-944l602 729h-174l45 217h578zM840 872q0 -78 -49.5 -125t-120.5 -47q-72 0 -121 47.5t-49 124.5q0 76 49 124t121 48t121 -48t49 -124z" />
<glyph horiz-adv-x="503" d="M221 1372h324l-162 -764h-184l127 600h-140z" />
<glyph horiz-adv-x="1579" d="M1202 408q4 18 10.5 41.5t13.5 48t13 46t12 36.5h-2q-16 -27 -41.5 -63t-60.5 -77l-68 -84q-18 -23 -36.5 -44t-38.5 -42l-3 -2q14 2 26.5 2h25.5h121zM823 262l410 502h217l-104 -494h98l-33 -153h-98l-25 -117h-174l25 117h-346zM125 20l1094 1352h202v-20l-1093 -1352 h-203v20zM227 1372h324l-162 -764h-184l127 600h-139z" />
<glyph horiz-adv-x="1595" d="M887 150l348 288q72 59 72 117q0 27 -28 51.5t-83 24.5q-66 0 -124 -26.5t-93 -61.5h-10l41 182q45 31 102 49.5t131 18.5q55 0 101.5 -17.5t78 -48.5t50 -72t18.5 -88q0 -80 -43 -138t-90 -97l-232 -182q12 2 34 5t44.5 5t43 3t32.5 1h150l-35 -164h-539zM227 1372h324 l-162 -764h-184l127 600h-139zM113 20l1093 1352h203v-20l-1094 -1352h-202v20z" />
<glyph horiz-adv-x="2070" d="M1247 813q-23 23 -63.5 45.5t-91.5 22.5q-61 0 -114.5 -21.5t-92.5 -59.5t-61.5 -91.5t-22.5 -114.5q0 -41 15 -77t42 -62.5t59.5 -42t69.5 -15.5q53 0 101.5 18.5t82.5 51.5zM1544 115q-123 0 -208 52t-119 120q-47 -47 -111 -82t-166 -35q-84 0 -156.5 31.5t-126 89 t-85 135.5t-31.5 168q0 106 44 198.5t115.5 161t163.5 108.5t189 40q33 0 69.5 -8.5t69.5 -20.5t59.5 -27.5t38.5 -29.5l13 67h256l-117 -548q-4 -18 -6 -41t-2 -35q0 -53 34.5 -83t81.5 -30q35 0 69 18.5t60.5 60.5t43 111.5t16.5 174.5q0 129 -50.5 239.5t-138.5 193.5 t-208.5 130t-262.5 47q-154 0 -281.5 -50t-222 -140.5t-146.5 -216.5t-52 -277q0 -152 54 -275.5t147.5 -211t217.5 -135.5t263 -48q115 0 213 23.5t158 58.5h14v-258q-66 -31 -157 -48t-230 -17q-219 0 -395.5 70.5t-300 193.5t-190.5 288.5t-67 354.5q0 195 70 363.5 t199 294.5t310 199t402 73q213 0 382 -76t286 -197t179.5 -271.5t62.5 -301.5q0 -158 -37 -271.5t-98.5 -187.5t-143.5 -108.5t-172 -34.5z" />
<glyph d="M154 233h245l174 818l-241 -127h-21l56 252l325 196h217l-241 -1139h250l-50 -233h-764z" />
<glyph horiz-adv-x="729" d="M168 0l151 721l-241 -135h-21l52 239l348 191h194l-215 -1016h-268z" />
</font>
</defs>
</svg>
