<?xml version="1.0" standalone="no"?>
<!DOCTYPE svg PUBLIC "-//W3C//DTD SVG 1.1//EN" "http://www.w3.org/Graphics/SVG/1.1/DTD/svg11.dtd" >
<svg xmlns="http://www.w3.org/2000/svg" xmlns:xlink="http://www.w3.org/1999/xlink" version="1.1">
<metadata></metadata>
<defs>
<font id="programmeregular_italic" horiz-adv-x="1122" >
<font-face units-per-em="2048" ascent="1681" descent="-367" />
<missing-glyph horiz-adv-x="507" />
<glyph unicode="&#xfb01;" horiz-adv-x="1245" d="M647 1393q59 0 108.5 -9.5t75.5 -19.5l-36 -174q-23 8 -50.5 13t-56.5 5q-84 0 -114.5 -45t-49.5 -147h279l-37 -174h-279l-180 -842h-215l180 842h-186l37 174h186q18 76 33.5 148.5t69.5 131.5q45 49 109.5 73t125.5 24zM764 0l215 1016h215l-215 -1016h-215z M1004 1280q0 57 37.5 93t91.5 36q53 0 91 -36t38 -93t-38 -93t-91 -36t-91 36t-38 93z" />
<glyph unicode="&#xfb02;" horiz-adv-x="1255" d="M647 1393q59 0 108.5 -9.5t75.5 -19.5l-36 -174q-23 8 -50.5 13t-56.5 5q-84 0 -114.5 -45t-49.5 -147h279l-37 -174h-279l-180 -842h-215l180 842h-186l37 174h186q18 76 33.5 148.5t69.5 131.5q45 49 109.5 73t125.5 24zM768 0l291 1372h215l-291 -1372h-215z" />
<glyph horiz-adv-x="0" />
<glyph unicode="&#xd;" horiz-adv-x="512" />
<glyph horiz-adv-x="0" />
<glyph horiz-adv-x="0" />
<glyph unicode=" "  horiz-adv-x="507" />
<glyph unicode="&#x09;" horiz-adv-x="507" />
<glyph unicode="&#xa0;" horiz-adv-x="507" />
<glyph unicode="!" horiz-adv-x="589" d="M352 1372h205l-211 -995h-205zM57 113q0 61 42 101t100 40q57 0 99 -40t42 -101t-42 -101.5t-99 -40.5t-99.5 40.5t-42.5 101.5z" />
<glyph unicode="&#x22;" horiz-adv-x="802" d="M289 1372h205l-121 -471h-164zM637 1372h205l-121 -471h-164z" />
<glyph unicode="#" horiz-adv-x="1378" d="M70 569h299l106 262h-270l39 185h307l147 356h195l-148 -356h195l147 356h195l-147 -356h260l-39 -185h-297l-107 -262h269l-39 -184h-305l-158 -385h-195l158 385h-195l-157 -385h-195l158 385h-262zM563 569h195l106 262h-194z" />
<glyph unicode="$" horiz-adv-x="1105" d="M412 1044q0 -72 36.5 -109.5t100.5 -70.5l205 -112q39 -23 79.5 -52.5t74.5 -73.5t55.5 -103.5t21.5 -139.5q0 -84 -30.5 -155.5t-88 -127t-139.5 -91.5t-184 -44l-37 -178h-205l41 193q-109 23 -188.5 68.5t-120.5 86.5l41 205h20q25 -33 70 -64.5t98 -56t112.5 -40 t112.5 -15.5q59 0 109.5 15.5t86.5 43t56.5 64.5t20.5 80q0 86 -42 134t-114 87l-153 80q-57 31 -106.5 64.5t-84.5 77.5t-55.5 98.5t-20.5 123.5q0 68 29 131.5t80 113.5t123.5 84t163.5 44l36 172h205l-39 -184q86 -18 151.5 -52t106.5 -71l-45 -199h-20q-18 23 -51 47.5 t-76 45t-93 33.5t-102 13q-113 0 -177 -49t-64 -117z" />
<glyph unicode="%" horiz-adv-x="1730" d="M430 776q53 0 92 33t63.5 81t37 103.5t12.5 102.5q0 66 -25.5 105.5t-81.5 39.5q-53 0 -92 -33.5t-63.5 -83t-36.5 -105.5t-12 -101q0 -63 25.5 -102.5t80.5 -39.5zM1231 -16q-123 0 -196.5 74.5t-73.5 195.5q0 82 25.5 169t75.5 157.5t126 116.5t174 46 q123 0 192.5 -73.5t69.5 -194.5q0 -82 -23.5 -169t-72.5 -158.5t-123 -117.5t-174 -46zM412 629q-123 0 -194 74.5t-71 195.5q0 82 26 169t76 157.5t125 117t173 46.5q123 0 193.5 -74t70.5 -195q0 -82 -24.5 -169t-74.5 -158.5t-125 -117.5t-175 -46zM1243 131q53 0 92 33 t63.5 81t37 103t12.5 103q0 66 -25.5 105.5t-81.5 39.5q-53 0 -92 -34t-63.5 -83t-36.5 -105.5t-12 -101.5q0 -63 25.5 -102t80.5 -39zM420 0h-189v14l1123 1358h190v-14z" />
<glyph unicode="&#x26;" horiz-adv-x="1261" d="M827 610q16 -41 26.5 -65.5t18 -41t12.5 -29.5t11 -32q35 66 56.5 123.5t37.5 139.5h187q-14 -72 -32 -131.5t-38.5 -111.5t-47 -99.5t-59.5 -96.5l125 -266h-227l-51 102q-23 -18 -59.5 -42.5t-85 -46t-102.5 -36t-110 -14.5q-109 0 -191.5 36t-141 95.5t-88 135 t-29.5 155.5q0 92 37 166t99.5 131t144 97t169.5 65q-10 14 -22 37.5t-23.5 53.5t-19.5 63.5t-8 64.5q0 80 29.5 144.5t81 109.5t116 68.5t135.5 23.5q80 0 140.5 -24.5t101.5 -64.5t61.5 -90t20.5 -102q0 -72 -32 -130t-81 -104t-109.5 -80t-117.5 -56zM262 385 q0 -41 15.5 -82t44 -72.5t69.5 -51t94 -19.5q78 0 153 30.5t118 71.5l-193 424q-55 -16 -109.5 -40.5t-96.5 -61.5t-68.5 -86.5t-26.5 -112.5zM684 903q39 14 78 34.5t69.5 48.5t50 63.5t19.5 78.5q0 47 -38 75t-85 28q-76 0 -116.5 -52.5t-40.5 -115.5q0 -43 23.5 -87 t39.5 -73z" />
<glyph unicode="'" horiz-adv-x="454" d="M289 1372h205l-121 -471h-164z" />
<glyph unicode="(" horiz-adv-x="688" d="M819 1409v-14q-121 -94 -223 -210t-177 -248t-118 -279.5t-43 -303.5q0 -82 18.5 -171t51 -175t77 -162.5t93.5 -132.5v-14h-211q-53 63 -95 144t-73 168t-47.5 175t-16.5 168q0 160 40 309.5t110.5 284.5t167 252t211.5 209h235z" />
<glyph unicode=")" horiz-adv-x="690" d="M-145 -301v14q119 94 222 210t178 248t118 278.5t43 304.5q0 82 -18.5 171t-51.5 175t-77 162.5t-93 132.5v14h211q51 -66 94 -145.5t74 -166.5t47 -175t16 -168q0 -164 -38.5 -313.5t-107.5 -282.5t-165 -249t-213 -210h-239z" />
<glyph unicode="*" horiz-adv-x="1019" d="M551 786l-248 -264l-127 111l256 268l-270 105l69 151l275 -98l49 313h182l-51 -319l324 98l20 -170l-325 -98l139 -262l-152 -97z" />
<glyph unicode="+" horiz-adv-x="1099" d="M537 41h-205l84 393h-371l39 189h371l84 393h204l-84 -393h371l-39 -189h-370z" />
<glyph unicode="," horiz-adv-x="542" d="M98 246h248l-303 -471h-145z" />
<glyph unicode="-" horiz-adv-x="806" d="M94 434l39 189h553l-39 -189h-553z" />
<glyph unicode="." horiz-adv-x="516" d="M16 121q0 66 44 107.5t106 41.5q61 0 105 -42t44 -107q0 -66 -44 -108t-105 -42t-105.5 42t-44.5 108z" />
<glyph unicode="/" horiz-adv-x="890" d="M-55 0l823 1372h229l-825 -1372h-227z" />
<glyph unicode="0" horiz-adv-x="1226" d="M522 -29q-125 0 -207 45t-131 117t-69.5 160t-20.5 174q0 162 46 328t130 301t205 220t268 85q98 0 177 -35t134.5 -99.5t86 -155.5t30.5 -204q0 -160 -42 -325.5t-123.5 -302t-203.5 -222.5t-280 -86zM532 168q98 0 176 70.5t132.5 179t83 238.5t28.5 251q0 133 -54 216 t-165 83q-96 0 -174 -69.5t-132 -177t-84 -238.5t-30 -254q0 -57 14.5 -111.5t42 -95.5t68.5 -66.5t94 -25.5z" />
<glyph unicode="1" horiz-adv-x="729" d="M180 1176l355 196h165l-290 -1372h-215l237 1118l-285 -157h-14z" />
<glyph unicode="2" horiz-adv-x="1060" d="M12 164l545 504q41 39 85 81t80 88t59.5 94t23.5 101q0 86 -63.5 130t-159.5 44q-47 0 -99.5 -11t-100.5 -31.5t-91 -46t-72 -56.5h-14l45 225q33 27 76 48.5t91 35.5t95 22.5t90 8.5q197 0 311.5 -96.5t114.5 -266.5q0 -78 -31.5 -147.5t-79 -131t-101.5 -113.5 t-101 -95l-404 -363h586l-41 -188h-879z" />
<glyph unicode="3" horiz-adv-x="1075" d="M707 1184h-478l41 188h774l-30 -143l-396 -336q66 -12 126.5 -46t106.5 -85t73.5 -121t27.5 -152q0 -119 -45 -215t-122.5 -163.5t-185 -103.5t-230.5 -36q-119 0 -219.5 35t-149.5 80l41 190h14q20 -20 55 -40.5t77 -36t88.5 -24.5t93.5 -9q78 0 144.5 23.5t114.5 65.5 t75.5 101.5t27.5 132.5q0 51 -20.5 97.5t-55 80t-84 53t-104.5 19.5q-57 0 -105.5 -14t-80.5 -37h-11l35 160z" />
<glyph unicode="4" horiz-adv-x="1150" d="M776 1372h285l-195 -917h178l-40 -189h-179l-55 -266h-215l55 266h-624l37 170zM805 1139q-23 -33 -58.5 -84t-95.5 -123l-381 -477h381l103 473q18 80 30.5 124t22.5 87h-2z" />
<glyph unicode="5" horiz-adv-x="1085" d="M381 883q100 59 213 59q66 0 136.5 -25.5t127.5 -80t94 -137.5t37 -197q0 -102 -41 -197.5t-116.5 -169.5t-183 -119t-238.5 -45q-59 0 -116.5 9.5t-109 24.5t-92.5 35.5t-67 45.5l41 195h14q25 -25 63.5 -46.5t84.5 -37t95.5 -23.5t92.5 -8q80 0 144.5 28.5t110.5 76.5 t71.5 108.5t25.5 122.5q0 61 -19.5 108t-52 80t-74.5 49.5t-87 16.5q-84 0 -146.5 -36t-103.5 -89h-162l158 741h770l-41 -188h-566z" />
<glyph unicode="6" horiz-adv-x="1173" d="M707 1372h233v-14l-260 -316q-41 -51 -69.5 -79.5l-53.5 -53.5q29 10 60.5 15.5t60.5 5.5q84 0 159.5 -34t132 -93.5t89.5 -139t33 -171.5q0 -111 -42 -205t-117 -165t-177.5 -111t-223.5 -40q-115 0 -203.5 38t-150 99.5t-93.5 142.5t-32 167q0 68 19.5 127t48.5 111.5 t63.5 96.5t65.5 81zM274 434q0 -61 21.5 -110.5t57.5 -84t84 -54t104 -19.5q76 0 137 26.5t104 71.5t65.5 104.5t22.5 123.5q0 53 -19.5 101t-53 84t-82.5 57.5t-107 21.5q-53 0 -105 -15.5t-93 -46.5q-61 -45 -98.5 -113.5t-37.5 -146.5z" />
<glyph unicode="7" horiz-adv-x="1017" d="M1182 1372l-920 -1372h-248l785 1184h-613l39 188h957z" />
<glyph unicode="8" horiz-adv-x="1165" d="M502 -29q-104 0 -187.5 31t-140.5 86t-88 130t-31 161q0 70 25.5 131t66.5 110.5t94.5 85t108.5 54.5q-31 16 -54.5 42.5t-39.5 59.5t-25.5 69t-9.5 68q0 76 35 148t98.5 128t149.5 91t190 35q88 0 164 -24.5t132.5 -72t88 -115t31.5 -153.5q0 -92 -59.5 -183 t-169.5 -142q63 -37 107 -119t44 -178t-41 -177t-112.5 -139.5t-167.5 -92.5t-209 -34zM520 168q61 0 114.5 17.5t92.5 49t61.5 77.5t22.5 106q0 92 -60.5 158.5t-172.5 66.5q-63 0 -117.5 -19.5t-95.5 -53t-65 -81t-24 -104.5q0 -96 69 -156.5t175 -60.5zM893 1034 q0 86 -59.5 131t-151.5 45q-51 0 -95 -17t-77 -45t-52.5 -66t-19.5 -76q0 -78 53.5 -132.5t141.5 -54.5q113 0 186.5 58.5t73.5 156.5z" />
<glyph unicode="9" horiz-adv-x="1173" d="M508 0h-229v14l256 316q41 51 71.5 80.5t55.5 54.5q-29 -10 -64 -16.5t-63 -6.5q-80 0 -154 35t-131 94.5t-92 139.5t-35 170q0 106 43 201.5t118.5 166t176 111.5t217.5 41q115 0 205 -38t151.5 -99.5t94 -142.5t32.5 -167q0 -68 -19.5 -127t-48 -111t-63.5 -96.5 t-65 -80.5zM940 938q0 61 -21.5 110.5t-58.5 84t-87 54t-105 19.5q-72 0 -131.5 -26.5t-102.5 -71.5t-66.5 -104.5t-23.5 -122.5q0 -53 19.5 -101.5t54.5 -84.5t84 -57.5t108 -21.5q53 0 106.5 15.5t94.5 46.5q61 45 95 112.5t34 147.5z" />
<glyph unicode=":" horiz-adv-x="563" d="M37 121q0 66 44 107.5t105 41.5t105.5 -42t44.5 -107q0 -66 -44 -108t-106 -42q-61 0 -105 42t-44 108zM182 844q0 66 44 107.5t106 41.5q61 0 105 -42t44 -107q0 -66 -44 -108t-105 -42t-105.5 42t-44.5 108z" />
<glyph unicode=";" horiz-adv-x="581" d="M121 246h248l-303 -471h-146zM199 844q0 66 44 107.5t105 41.5t105.5 -42t44.5 -107q0 -66 -44 -108t-106 -42q-61 0 -105 42t-44 108z" />
<glyph unicode="&#x3c;" horiz-adv-x="1044" d="M397 494l445 -304l-41 -190h-15l-739 500v14l957 502h14l-47 -213z" />
<glyph unicode="=" horiz-adv-x="1181" d="M1061 631h-922l39 188h922zM975 236h-920l41 190h920z" />
<glyph unicode="&#x3e;" horiz-adv-x="1044" d="M614 522l-444 305l39 189h14l740 -502v-14l-957 -500h-14l47 217z" />
<glyph unicode="?" horiz-adv-x="929" d="M268 377l6 31q16 86 42 144t62 101t81 79t102 75q76 53 121 115.5t45 128.5q0 72 -52 117.5t-149 45.5q-92 0 -179 -38.5t-157 -104.5h-14l47 225q59 47 145.5 80t180.5 33q80 0 152.5 -25.5t128 -72.5t87 -112.5t31.5 -145.5q0 -63 -22.5 -116.5t-57 -97.5t-74.5 -80 t-77 -63q-39 -29 -77 -54.5t-70.5 -59t-57.5 -81.5t-35 -124h-209zM184 113q0 61 42 101t100 40q57 0 99 -40t42 -101t-42 -101.5t-99 -40.5t-99.5 40.5t-42.5 101.5z" />
<glyph unicode="@" horiz-adv-x="1961" d="M1188 723q-25 27 -72 52.5t-112 25.5q-74 0 -133.5 -29t-100.5 -77t-63.5 -108.5t-22.5 -121.5q0 -96 54.5 -160.5t162.5 -64.5q61 0 109.5 24.5t95.5 71.5zM1364 -70l-49 -233q-59 -25 -145.5 -44.5t-196.5 -19.5q-195 0 -358.5 68t-282.5 185.5t-185.5 277.5t-66.5 342 q0 184 64.5 347t184.5 286t291 194.5t381 71.5q197 0 356 -74t270.5 -191.5t172 -264t60.5 -293.5q0 -127 -40 -229.5t-105.5 -176.5t-148.5 -113.5t-167 -39.5q-80 0 -157 36.5t-116 112.5q-53 -55 -128.5 -87t-163.5 -32q-90 0 -159 37t-116 94.5t-70.5 124t-23.5 127.5 q0 115 42 215.5t113.5 175t170 117.5t208.5 43q72 0 132.5 -24.5t95.5 -59.5l12 64h201l-129 -605q-4 -12 -4 -22v-21q0 -41 32.5 -71.5t75.5 -30.5t86 27.5t77 76t55.5 114t21.5 143.5q0 125 -50.5 239.5t-138.5 201.5t-207.5 139t-261.5 52q-150 0 -278.5 -54t-223 -148.5 t-147.5 -222.5t-53 -275q0 -145 54 -270t146.5 -216.5t216.5 -143.5t263 -52q121 0 221 30.5t154 71.5h14z" />
<glyph unicode="A" horiz-adv-x="1351" d="M967 1372l258 -1372h-215l-64 332h-627l-202 -332h-228l840 1372h238zM807 1165q-90 -160 -186.5 -323.5t-190.5 -321.5h488l-70 426q-10 53 -19.5 110.5t-17.5 108.5h-4z" />
<glyph unicode="B" horiz-adv-x="1306" d="M334 1372h526q184 0 293 -89t109 -251q0 -63 -18.5 -118.5t-50.5 -99.5t-74 -76.5t-87 -51.5q25 -10 51.5 -31.5t48 -53.5t35 -76t13.5 -101q0 -109 -44 -187.5t-116 -132t-161 -79t-177 -25.5h-639zM516 1182l-84 -396h328q127 0 205.5 60.5t78.5 173.5q0 43 -17 73.5 t-45 50t-62.5 29t-71.5 9.5h-332zM301 199h385q57 0 108.5 15t90.5 44t60.5 70t21.5 94q0 86 -63.5 134t-155.5 48h-363z" />
<glyph unicode="C" horiz-adv-x="1267" d="M860 1409q86 0 155.5 -15.5t125 -38t95.5 -49t67 -49.5l-48 -202h-14q-27 31 -66.5 58.5t-89 49t-106.5 34.5t-117 13q-117 0 -216 -48t-169.5 -131t-110.5 -192.5t-40 -230.5q0 -96 32.5 -178t91 -141.5t137.5 -92t171 -32.5q57 0 112.5 10t104.5 25.5t88 35t63 39.5h15 l-49 -227q-47 -31 -143.5 -57.5t-213.5 -26.5q-125 0 -239.5 44t-202.5 128t-141.5 203t-53.5 270q0 166 58.5 311.5t161 254t241.5 172t301 63.5z" />
<glyph unicode="D" horiz-adv-x="1423" d="M627 1372q106 0 190 -9t150.5 -27.5t120 -47t98.5 -65.5q35 -29 68.5 -70t59 -92t41 -113.5t15.5 -134.5q0 -127 -28.5 -233.5t-79 -193.5t-118 -155.5t-145.5 -117.5q-72 -47 -203.5 -80t-318.5 -33h-434l291 1372h293zM512 1176l-209 -979h193q115 0 222 23.5t169 64.5 q111 72 184.5 200.5t73.5 319.5q0 92 -27.5 159.5t-73.5 108.5q-63 59 -161.5 81t-229.5 22h-141z" />
<glyph unicode="E" horiz-adv-x="1204" d="M1266 1372l-41 -196h-713l-74 -351h672l-43 -196h-672l-92 -432h723l-41 -197h-942l291 1372h932z" />
<glyph unicode="F" horiz-adv-x="1150" d="M1235 1372l-41 -196h-682l-76 -353h639l-41 -194h-639l-133 -629h-219l291 1372h901z" />
<glyph unicode="G" horiz-adv-x="1376" d="M858 1409q86 0 156.5 -16.5t126 -39t95.5 -50t64 -48.5l-47 -200h-14q-25 27 -63.5 55.5t-88 50t-107.5 35.5t-122 14q-119 0 -217 -48t-168 -130t-108.5 -191.5t-38.5 -232.5q0 -102 33.5 -184t92 -139.5t136.5 -89t168 -31.5q92 0 159.5 16.5t90.5 32.5l73 342h-360 l41 193h567l-139 -658q-29 -23 -75 -45t-104.5 -40.5t-128 -30t-147.5 -11.5q-121 0 -234.5 43t-202.5 126t-143.5 203t-54.5 273q0 174 60.5 321.5t164 254t241.5 166t294 59.5z" />
<glyph unicode="H" horiz-adv-x="1406" d="M1028 631h-633l-133 -631h-219l291 1372h219l-115 -545h633l115 545h219l-291 -1372h-219z" />
<glyph unicode="I" horiz-adv-x="555" d="M334 1372h219l-291 -1372h-219z" />
<glyph unicode="J" horiz-adv-x="798" d="M592 356q-20 -98 -52 -166.5t-75 -111.5q-66 -63 -143.5 -89t-180.5 -26q-84 0 -137 10.5t-88 24.5l39 190q29 -10 81 -18t116 -8q47 0 88 14t65 35q14 12 24.5 25.5t19.5 39t19.5 66.5t24.5 109l197 921h219z" />
<glyph unicode="K" horiz-adv-x="1267" d="M262 0h-219l291 1372h219l-127 -610l676 610h272v-14l-641 -598l441 -746v-14h-242l-367 637l-205 -176z" />
<glyph unicode="L" horiz-adv-x="1071" d="M334 1372h219l-250 -1175h658l-41 -197h-877z" />
<glyph unicode="M" horiz-adv-x="1673" d="M1362 924q10 51 22.5 104t26.5 102h-2q-31 -51 -60.5 -104t-64.5 -102l-383 -570h-209l-149 566q-14 51 -26.5 104t-22.5 106h-2q-8 -51 -17.5 -103t-19.5 -103l-197 -924h-215l291 1372h299q39 -156 78 -309.5t75 -308.5q10 -47 20.5 -92.5t20.5 -92.5h2 q29 47 56.5 92.5t56.5 92.5q102 156 203.5 309.5t206.5 308.5h319l-291 -1372h-215z" />
<glyph unicode="N" horiz-adv-x="1458" d="M1024 305q4 27 8 51.5t9.5 53t11.5 63.5t16 82l168 817h219l-291 -1372h-207l-389 842q-31 66 -48 111.5t-40 99.5h-2q-16 -102 -37 -203l-180 -850h-219l291 1372h205l376 -817q35 -78 58.5 -132t48.5 -118h2z" />
<glyph unicode="O" horiz-adv-x="1576" d="M739 164q127 0 229.5 50t175.5 134t111.5 192.5t38.5 223.5q0 94 -29.5 175t-84 141.5t-131 94t-170.5 33.5q-127 0 -229.5 -49t-175.5 -132t-111.5 -191.5t-38.5 -227.5q0 -92 31.5 -173t88 -141.5t132 -95t163.5 -34.5zM739 -37q-141 0 -259 47t-204 133t-133 205 t-47 260q0 172 62.5 318.5t170 254t251 168t303.5 60.5q143 0 261 -47t202 -133t130 -205t46 -260q0 -174 -63.5 -321.5t-171 -254t-249 -166t-299.5 -59.5z" />
<glyph unicode="P" horiz-adv-x="1230" d="M367 494l-105 -494h-219l291 1372h489q100 0 179 -28.5t134.5 -80t85 -119t29.5 -147.5q0 -111 -41 -203t-113.5 -159.5t-173 -104t-221.5 -36.5h-335zM717 690q72 0 130 22.5t98 61.5t61.5 93.5t21.5 119.5q0 92 -60.5 140.5t-164.5 48.5h-291l-102 -486h307z" />
<glyph unicode="Q" horiz-adv-x="1576" d="M739 -37q-141 0 -259 47t-204 133t-133 205t-47 260q0 172 62.5 318.5t170 254t251 168t303.5 60.5q143 0 261 -47t202 -133t130 -205t46 -260q0 -186 -68 -333.5t-188 -256.5l131 -197v-14h-230l-61 96q-88 -51 -178.5 -73.5t-188.5 -22.5zM862 469h230l65 -115 q70 86 103.5 192.5t33.5 217.5q0 94 -29.5 175t-84 141.5t-131 94t-170.5 33.5q-127 0 -229.5 -49t-175.5 -132t-111.5 -191.5t-38.5 -227.5q0 -92 31.5 -173t88 -141.5t132 -95t163.5 -34.5q78 0 142.5 16.5t122.5 46.5l-142 228v14z" />
<glyph unicode="R" horiz-adv-x="1273" d="M1241 969q0 -104 -38 -186.5t-99.5 -138.5t-141 -87t-163.5 -31l334 -512v-14h-240l-324 522h-198l-109 -522h-219l291 1372h461q113 0 196.5 -30.5t139 -84t83 -128t27.5 -160.5zM1018 965q0 211 -250 211h-256l-96 -457h332q123 0 196.5 62.5t73.5 183.5z" />
<glyph unicode="S" horiz-adv-x="1075" d="M403 1044q0 -72 37 -109.5t101 -70.5l204 -112q39 -23 80 -52.5t75 -73.5t55.5 -103.5t21.5 -139.5q0 -88 -35 -165t-99.5 -133t-157.5 -89t-208 -33q-78 0 -148.5 17.5t-130 43t-103.5 55.5t-70 56l41 205h20q25 -33 70 -64.5t98 -56t112.5 -40t112.5 -15.5 q59 0 109.5 15.5t86.5 43t56.5 64.5t20.5 80q0 86 -42 134t-114 87l-154 80q-57 31 -106 64.5t-84 77.5t-55.5 98.5t-20.5 123.5q0 74 33 141.5t93 120t144 84t187 31.5q133 0 237.5 -43t161.5 -96l-45 -199h-20q-18 23 -51 47.5t-76 45t-93.5 33.5t-101.5 13 q-113 0 -177.5 -49t-64.5 -117z" />
<glyph unicode="T" horiz-adv-x="1200" d="M365 0l249 1176h-458l41 196h1136l-41 -196h-458l-250 -1176h-219z" />
<glyph unicode="U" horiz-adv-x="1361" d="M319 1372h220l-177 -825q-8 -35 -14 -75t-6 -75q0 -117 76 -175t188 -58q137 0 228 65q51 37 79.5 89.5t51.5 158.5l190 895h223l-194 -891q-18 -86 -41 -151.5t-50.5 -114.5t-64.5 -87t-82 -69q-139 -96 -344 -96q-106 0 -194.5 27.5t-151.5 81t-99 130.5t-36 177 q0 27 5 73t15 87z" />
<glyph unicode="V" horiz-adv-x="1304" d="M428 0l-252 1372h215l148 -917q14 -92 23 -148.5t18 -97.5h2q23 45 57.5 114.5t67.5 131.5l475 917h235l-747 -1372h-242z" />
<glyph unicode="W" horiz-adv-x="1994" d="M1153 0l-51 840q-2 43 -4 72.5t-4 54t-3 49t-1 55.5h-3q-25 -59 -47 -107.5t-55 -115.5l-405 -848h-236l-154 1372h207l66 -756q10 -123 19.5 -204.5t19.5 -161.5h2q29 63 64.5 146t99.5 216l360 760h229l46 -766q8 -131 12 -212t10 -146h2q14 29 30.5 61.5t39 74.5 t50.5 96.5t62 125.5l373 766h232l-699 -1372h-262z" />
<glyph unicode="X" horiz-adv-x="1284" d="M-119 0v14l660 709l-340 635v14h233l262 -489l459 489h272v-14l-632 -660l352 -684v-14h-234l-274 539l-494 -539h-264z" />
<glyph unicode="Y" horiz-adv-x="1236" d="M1364 1352l-633 -734l-131 -618h-219l137 641l-336 711v20h215l252 -555l471 555h244v-20z" />
<glyph unicode="Z" horiz-adv-x="1138" d="M225 1372h1016l-907 -1175h674l-41 -197h-1045l907 1176h-645z" />
<glyph unicode="[" horiz-adv-x="673" d="M453 -147l-33 -154h-428l362 1710h428l-32 -154h-224l-297 -1402h224z" />
<glyph unicode="\" horiz-adv-x="841" d="M461 0l-244 1372h201l244 -1372h-201z" />
<glyph unicode="]" horiz-adv-x="675" d="M-90 -147h223l297 1402h-223l33 154h430l-363 -1710h-430z" />
<glyph unicode="^" horiz-adv-x="919" d="M590 1100h-2l-242 -414h-231l434 686h170l139 -686h-203z" />
<glyph unicode="_" horiz-adv-x="1128" d="M-63 -297l38 184h877l-39 -184h-876z" />
<glyph unicode="`" horiz-adv-x="706" d="M293 1372h278l156 -248h-188z" />
<glyph unicode="a" horiz-adv-x="1048" d="M203 770l43 205q16 10 50 22.5t77 22.5t91 17t95 7q104 0 177 -25.5t120 -66.5t68.5 -92t21.5 -104q0 -27 -4 -50.5t-8 -41.5l-141 -664h-195l18 76q-33 -37 -109.5 -71t-170.5 -34q-80 0 -140.5 23.5t-102.5 65.5t-63.5 97.5t-21.5 121.5q0 76 34 142t95.5 115.5 t145.5 78t182 28.5q35 0 72.5 -4t71.5 -10t59.5 -12.5t36.5 -10.5l12 58q4 16 6 30.5t2 26.5q0 57 -44 96t-155 39q-90 0 -176 -25.5t-133 -60.5h-14zM487 479q-121 0 -191.5 -55t-70.5 -139q0 -63 49.5 -99t118.5 -36q70 0 133.5 25.5t102.5 70.5l45 207q-16 8 -67.5 17 t-119.5 9z" />
<glyph unicode="b" horiz-adv-x="1226" d="M553 -29q-61 0 -112.5 12.5t-91.5 31t-69.5 40t-46.5 39.5l-20 -94h-195l291 1372h215l-84 -399q12 8 36 21.5t55.5 23.5t71.5 18t85 8q86 0 167 -34.5t143.5 -97t100.5 -151.5t38 -196q0 -121 -45 -228.5t-123 -189t-185.5 -129t-230.5 -47.5zM547 166q78 0 145.5 28.5 t117.5 81t79 126t29 163.5q0 59 -22 111.5t-59.5 90.5t-89 60.5t-108.5 22.5q-86 0 -146.5 -24.5t-95.5 -53.5l-108 -502q41 -47 105.5 -75.5t152.5 -28.5z" />
<glyph unicode="c" horiz-adv-x="1019" d="M879 256l-43 -209q-45 -31 -125 -53.5t-166 -22.5q-115 0 -206 39t-154.5 105.5t-96.5 153.5t-33 186q0 121 46 228.5t126 187t187.5 126.5t228.5 47q117 0 208 -41.5t132 -89.5l-43 -194h-14q-14 20 -40 43.5t-62 43t-81 32t-98 12.5q-70 0 -136.5 -27.5t-118.5 -79 t-84 -124t-32 -164.5q0 -66 24 -119t64.5 -91t95 -58.5t117.5 -20.5q47 0 92.5 8t83 21.5t66.5 30t47 30.5h15z" />
<glyph unicode="d" horiz-adv-x="1228" d="M647 1044q106 0 185 -37.5t114 -74.5l94 440h217l-299 -1372h-196l18 74q-39 -37 -116.5 -70t-180.5 -33q-90 0 -168.5 34t-136 96.5t-90.5 150.5t-33 199q0 123 46 230t127 188t188.5 128t230.5 47zM645 850q-78 0 -145.5 -28.5t-117.5 -81t-79 -126t-29 -163.5 q0 -59 17.5 -111.5t50.5 -91.5t82 -60.5t115 -21.5q90 0 158.5 28.5t97.5 59.5l106 483q-37 45 -102.5 79t-153.5 34z" />
<glyph unicode="e" horiz-adv-x="1083" d="M264 420q0 -70 27.5 -119t73 -80t99.5 -45t109 -14q43 0 88.5 7t86 20.5t75.5 32t60 38.5h14l-43 -205q-49 -39 -138 -61.5t-190 -22.5q-98 0 -184 34t-148.5 95.5t-99.5 147.5t-37 192q0 123 41 232.5t115 192.5t175 131t222 48q109 0 185.5 -37.5t125 -101t71 -143.5 t22.5 -164q0 -39 -7.5 -88t-19.5 -90h-723zM797 594q4 20 4 41q0 43 -13.5 84t-39 72.5t-64.5 50t-92 18.5q-115 0 -196 -72.5t-107 -193.5h508z" />
<glyph unicode="f" horiz-adv-x="745" d="M647 1393q59 0 108.5 -9.5t75.5 -19.5l-36 -174q-23 8 -50.5 13t-56.5 5q-84 0 -114.5 -45t-49.5 -147h279l-37 -174h-279l-180 -842h-215l180 842h-186l37 174h186q18 76 33.5 148.5t69.5 131.5q45 49 109.5 73t125.5 24z" />
<glyph unicode="g" horiz-adv-x="1204" d="M961 1016h192l-186 -883q-29 -131 -72 -225t-111.5 -155.5t-167 -90.5t-235.5 -29q-119 0 -209 26t-168 60l39 191h14q51 -25 134 -54.5t186 -29.5q78 0 141.5 13.5t110.5 47t76.5 90t42.5 142.5q-27 -25 -96.5 -53.5t-168.5 -28.5q-84 0 -160.5 31.5t-134 90 t-91.5 141.5t-34 185q0 113 45.5 214.5t122 178t179 121.5t217.5 45q72 0 127 -15t93 -36.5t61.5 -42t31.5 -30.5zM879 741q-41 45 -103.5 77t-138.5 32q-72 0 -135.5 -26.5t-111.5 -75t-76.5 -115t-28.5 -148.5q0 -61 20.5 -107t55 -79t78.5 -49.5t93 -16.5q98 0 165 33 t94 58z" />
<glyph unicode="h" horiz-adv-x="1128" d="M526 1372l-92 -430q18 18 50 35.5t69 33t79 24.5t83 9q68 0 124 -18t97 -54t63.5 -87t22.5 -119q0 -41 -7 -81t-14 -73l-131 -612h-215l127 592q4 23 10.5 56.5t6.5 56.5q0 72 -44 109.5t-122 37.5q-41 0 -79 -11.5t-69.5 -27.5t-56.5 -34.5t-39 -35.5l-158 -743h-215 l293 1372h217z" />
<glyph unicode="i" horiz-adv-x="499" d="M18 0l215 1016h216l-216 -1016h-215zM258 1280q0 57 38 93t91 36t91 -36t38 -93t-38 -93t-91 -36t-91 36t-38 93z" />
<glyph unicode="j" horiz-adv-x="505" d="M-98 -358q-59 0 -104.5 7t-80.5 17l39 182q23 -6 52.5 -11t52.5 -5q29 0 54.5 3t51.5 26q16 14 27.5 38.5t20 54.5t14.5 58.5t10 48.5l201 955h215l-217 -1022q-10 -41 -17.5 -80t-20 -75t-31.5 -68.5t-52 -63.5q-41 -37 -96.5 -51t-118.5 -14zM262 1280q0 57 38 93 t91 36t91 -36t38 -93t-38 -93t-91 -36t-91 36t-38 93z" />
<glyph unicode="k" horiz-adv-x="1056" d="M1102 995l-527 -479l347 -496v-20h-244l-340 492l-105 -492h-215l291 1372h215l-172 -809l496 453h254v-21z" />
<glyph unicode="l" horiz-adv-x="509" d="M23 0l290 1372h215l-290 -1372h-215z" />
<glyph unicode="m" horiz-adv-x="1669" d="M231 0h-215l217 1016h195l-20 -94q18 18 44.5 39.5t61.5 40t78 30.5t92 12q100 0 165.5 -40.5t94.5 -92.5q45 47 125 90t195 43q63 0 118.5 -17t96.5 -51t64.5 -83t23.5 -115q0 -31 -5.5 -60.5t-11.5 -58.5l-139 -659h-215l137 643q4 23 8.5 46.5t4.5 45.5q0 70 -40 96.5 t-102 26.5q-66 0 -126 -26.5t-101 -69.5q-2 -25 -6 -48.5t-8 -45.5l-142 -668h-215l137 643q4 23 8.5 46.5t4.5 45.5q0 70 -37 96.5t-103 26.5q-72 0 -133 -29.5t-90 -68.5z" />
<glyph unicode="n" horiz-adv-x="1130" d="M451 1016l-15 -74q18 18 50 35.5t69 33t79 24.5t83 9q68 0 124 -18t97 -54t63.5 -87t22.5 -119q0 -41 -7 -81t-13 -73l-132 -612h-215l127 592q4 23 10.5 56.5t6.5 56.5q0 72 -44 109.5t-122 37.5q-41 0 -79 -11.5t-69.5 -27.5t-56 -34.5t-39.5 -35.5l-158 -743h-215 l215 1016h218z" />
<glyph unicode="o" horiz-adv-x="1212" d="M647 1044q111 0 200 -37.5t150.5 -103t94 -152.5t32.5 -186q0 -119 -46 -226.5t-126 -189t-187.5 -130t-229.5 -48.5q-115 0 -204 39t-150.5 104.5t-93.5 151.5t-32 180q0 123 46 231.5t127 190.5t188.5 129t230.5 47zM274 446q0 -123 70 -200.5t201 -77.5q80 0 146.5 35 t113.5 90t73.5 127t26.5 145q0 125 -69.5 205t-200.5 80q-82 0 -148.5 -35t-113.5 -92t-73 -130t-26 -147z" />
<glyph unicode="p" horiz-adv-x="1226" d="M549 -16q-106 0 -185 37.5t-114 74.5l-90 -422h-217l295 1354h196l-18 -74q39 37 116.5 70t180.5 33q90 0 169 -34t136 -96.5t90 -150.5t33 -198q0 -123 -46 -230.5t-127 -188.5t-188.5 -128t-230.5 -47zM551 178q78 0 145.5 29t117.5 81t79 125.5t29 164.5 q0 59 -17.5 111t-50.5 90t-83 60.5t-114 22.5q-90 0 -158.5 -28.5t-97.5 -59.5l-106 -483q37 -45 102.5 -79t153.5 -34z" />
<glyph unicode="q" horiz-adv-x="1224" d="M639 1044q61 0 112.5 -12t91.5 -30.5t69.5 -40t45.5 -39.5l21 94h195l-291 -1354h-215l84 381q-12 -10 -36 -22.5t-55.5 -22.5t-71.5 -18.5t-85 -8.5q-86 0 -167 35t-143.5 97.5t-100.5 150.5t-38 197q0 121 45 228t123 189t185.5 129t230.5 47zM645 850 q-78 0 -145.5 -28.5t-117.5 -81t-79 -126t-29 -163.5q0 -59 21.5 -111.5t59.5 -90.5t89.5 -60.5t108.5 -22.5q86 0 146.5 24.5t95.5 53.5l108 501q-41 47 -105.5 76t-152.5 29z" />
<glyph unicode="r" horiz-adv-x="720" d="M735 825q-23 4 -49.5 7.5t-56.5 3.5q-76 0 -137.5 -26t-104.5 -79l-154 -731h-215l215 1016h195l-22 -101q41 53 111.5 89t144.5 36q39 0 67.5 -5t46.5 -11z" />
<glyph unicode="s" horiz-adv-x="880" d="M750 750q-41 49 -110 79.5t-130 30.5q-80 0 -119 -33.5t-39 -74.5q0 -49 43 -87t113 -73q129 -66 184.5 -133.5t55.5 -175.5q0 -59 -28 -115.5t-79 -99.5t-126 -70t-167 -27q-47 0 -96 10.5t-97.5 29t-89 44t-69.5 56.5l47 190h14q51 -59 135 -100t164 -41q78 0 125 33.5 t47 85.5q0 53 -48 88.5t-126 78.5q-47 25 -87 52.5t-69.5 62.5t-46 80t-16.5 104q0 61 27.5 115.5t76 95.5t114 64.5t143.5 23.5q57 0 106 -11t89 -27.5t67.5 -34t44.5 -29.5l-39 -192h-14z" />
<glyph unicode="t" horiz-adv-x="757" d="M297 842h-221l37 174h221l57 266h215l-57 -266h256l-37 -174h-256l-96 -455q-10 -47 -16.5 -79t-6.5 -62q0 -27 9.5 -42.5t24.5 -23.5t35.5 -10t41.5 -2q37 0 66.5 3t45.5 7l-34 -176q-43 -12 -87 -16t-92 -4q-43 0 -87 11t-76 36q-29 23 -50.5 57.5t-21.5 87.5 q0 41 6 81t14 79z" />
<glyph unicode="u" d="M639 0l14 74q-18 -18 -50 -36t-68.5 -33t-78.5 -24.5t-83 -9.5q-135 0 -218 72t-83 207q0 41 7 81t13 72l131 613h215l-127 -592q-4 -23 -10 -56.5t-6 -56.5q0 -147 162 -147q41 0 78.5 11t69.5 27.5t55.5 35t37.5 34.5l158 744h215l-215 -1016h-217z" />
<glyph unicode="v" horiz-adv-x="1103" d="M475 227q57 113 123 228l315 561h230l-596 -1016h-215l-215 1016h209l108 -565q10 -55 20.5 -111.5t18.5 -112.5h2z" />
<glyph unicode="w" horiz-adv-x="1693" d="M1501 1016h225l-534 -1016h-234l-65 545q-4 39 -9 94t-7 109h-5q-35 -84 -94 -203l-268 -545h-234l-149 1016h205l76 -578q6 -53 12 -107.5t8 -107.5h2q23 53 47.5 107.5t48.5 107.5l289 578h207l70 -578q6 -53 12 -107.5t10 -107.5h2q23 53 45.5 107.5t50.5 107.5z" />
<glyph unicode="x" horiz-adv-x="1058" d="M635 526l301 -512v-14h-221l-217 383l-346 -383h-240v14l485 525l-270 462v15h221l189 -330l297 330h239v-15z" />
<glyph unicode="y" horiz-adv-x="1105" d="M918 1016h235l-836 -1354h-219l246 401l-225 953h209l121 -561q10 -47 19 -98.5t15 -94.5h2q25 49 50.5 97.5t54.5 95.5z" />
<glyph unicode="z" horiz-adv-x="993" d="M160 1016h874l-700 -832h497l-38 -184h-859l707 831h-522z" />
<glyph unicode="{" horiz-adv-x="630" d="M692 1251q-14 0 -31.5 1t-27.5 1q-39 0 -63.5 -9t-40 -29.5t-25.5 -53.5t-19 -78l-43 -204q-8 -41 -17 -80t-25.5 -73t-43 -61.5t-69.5 -43.5v-5q37 -20 50 -49.5t13 -70.5q0 -35 -5 -69t-13 -69l-72 -331q-4 -23 -9 -47.5t-5 -49.5q0 -27 17.5 -41t42 -21t52 -8t48.5 -1 l-33 -158h-115q-43 0 -85 6t-73.5 23.5t-51 49.5t-19.5 85q0 31 5 61.5t11 59.5l98 456q6 25 7 52q0 33 -14.5 54t-47.5 25l23 103q53 8 75.5 40t32.5 79l68 329q18 88 40.5 143.5t60.5 87t96.5 43t146.5 11.5h94z" />
<glyph unicode="|" horiz-adv-x="569" d="M354 1409h209l-362 -1710h-209z" />
<glyph unicode="}" horiz-adv-x="630" d="M356 553q-76 37 -75 119q0 37 5 72.5t13 70.5l57 268q4 23 10.5 48.5t6.5 50.5t-11.5 38t-30 20t-39 8t-38.5 1q-6 0 -21.5 1t-19.5 1l33 158h86q74 0 124 -9t78.5 -28.5t41 -51.5t12.5 -75q0 -31 -5 -61.5t-12 -59.5l-86 -415q-6 -25 -6 -52q0 -66 62 -73l-23 -103 q-53 -8 -75.5 -43t-32.5 -82l-80 -370q-18 -88 -38 -143.5t-54.5 -87t-90 -43t-143.5 -11.5h-115l33 158h78q66 0 89.5 41t41.5 127l57 268q12 57 24.5 98t31 70t45 49t67.5 37v4z" />
<glyph unicode="~" horiz-adv-x="1071" d="M106 463l37 188q43 41 96.5 57.5t112.5 16.5q63 0 110.5 -22.5t90.5 -48t90 -48t111 -22.5q49 0 96 13t88 48h14l-39 -188q-41 -39 -101 -55.5t-114 -16.5q-68 0 -119 21.5t-97 48t-91 48t-98 21.5q-47 0 -92 -13t-80 -48h-15z" />
<glyph unicode="&#xa1;" horiz-adv-x="548" d="M186 -338h-204l206 977h205zM477 903q0 -61 -42 -101t-99 -40t-99 40t-42 101t42 101t99 40t99 -40t42 -101z" />
<glyph unicode="&#xa2;" horiz-adv-x="1050" d="M889 256l-43 -209q-37 -27 -98.5 -46t-131.5 -26l-38 -188h-205l41 203q-84 20 -148.5 64t-108.5 105.5t-67.5 137.5t-23.5 158q0 109 37.5 207t105 175.5t159 130t197.5 68.5l41 193h205l-41 -199q76 -16 135.5 -49t87.5 -68l-43 -194h-14q-14 20 -40 43.5t-61.5 43 t-80.5 32t-99 12.5q-70 0 -136 -27.5t-118.5 -79t-84 -124t-31.5 -164.5q0 -66 23.5 -119t64.5 -91t95 -58.5t118 -20.5q47 0 92 8t83 21.5t66.5 30t46.5 30.5h15z" />
<glyph unicode="&#xa3;" horiz-adv-x="1064" d="M752 1409q100 0 184 -41t127 -94l-45 -215h-14q-31 68 -91.5 110.5t-164.5 42.5q-100 0 -166 -62.5t-66 -166.5q0 -43 7 -87t18 -87h329l-36 -174h-256q4 -27 7 -51.5t3 -51.5q0 -113 -57.5 -197.5t-153.5 -137.5v-7h530l-41 -190h-886l38 180q74 18 138.5 47t112.5 73 t76 105.5t28 143.5q0 39 -11 86h-247l37 174h165v4q-8 39 -14 79t-6 81q0 98 35 179t96 138.5t144.5 88t179.5 30.5z" />
<glyph unicode="&#xa4;" horiz-adv-x="1196" d="M1051 332l-138 -137l-90 90q-47 -29 -101 -44.5t-114 -15.5q-59 0 -113.5 15.5t-101.5 44.5l-90 -90l-137 137l92 90q-29 47 -44 100t-15 113q0 59 15 111.5t44 99.5l-92 92l137 137l90 -92q96 61 215 61q59 0 113.5 -16t101.5 -45l90 92l138 -137l-93 -92 q29 -47 44.5 -99.5t15.5 -111.5t-15.5 -112.5t-44.5 -100.5zM850 635q0 53 -18.5 98t-51 77t-77 50.5t-95.5 18.5t-95 -18.5t-77 -50.5t-51 -77t-18 -98t18 -98t51 -77t77 -50.5t95 -18.5t95.5 18.5t77 50.5t51 77t18.5 98z" />
<glyph unicode="&#xa5;" horiz-adv-x="1341" d="M1430 1352l-500 -568h217l-33 -159h-326l-4 -7l-24 -114h327l-32 -160h-330l-72 -344h-219l74 344h-336l33 160h336l26 121h-336l33 159h236l-277 568v20h215l262 -557l476 557h254v-20z" />
<glyph unicode="&#xa6;" horiz-adv-x="483" d="M172 750l141 659h209l-141 -659h-209zM-49 -299l139 659h209l-139 -659h-209z" />
<glyph unicode="&#xa7;" horiz-adv-x="976" d="M631 1223q-72 0 -122 -40t-50 -112q0 -47 35.5 -84t89.5 -72l133 -94q29 -20 59.5 -46.5t55 -59.5t40 -71t15.5 -81q0 -123 -66.5 -213t-183.5 -133q37 -35 60.5 -91t23.5 -120q0 -98 -35 -168.5t-93 -117t-137 -68t-165 -21.5q-98 0 -182 33t-136 74l45 207h15 q43 -55 111.5 -90t162.5 -35q37 0 71 7t61.5 25.5t44 48t16.5 72.5q0 31 -15.5 57.5t-38 48t-49 40t-47.5 35.5l-131 96q-70 49 -109.5 117.5t-39.5 152.5q0 129 73.5 213t182.5 125q-39 41 -62.5 90t-23.5 113q0 78 31.5 142.5t84 110.5t122 70.5t143.5 24.5 q109 0 189.5 -31.5t127.5 -70.5l-43 -199h-14q-41 53 -105.5 84t-144.5 31zM291 555q0 -37 17.5 -68.5t45 -59.5t64.5 -51.5t74 -47.5q70 12 122 59t52 125q0 37 -17.5 67.5t-45.5 58.5t-62.5 53.5t-71.5 49.5q-29 -6 -59.5 -20t-57 -35.5t-44 -54.5t-17.5 -76z" />
<glyph unicode="&#xa8;" horiz-adv-x="933" d="M287 1268q0 53 35.5 88t87.5 35q51 0 86.5 -35t35.5 -88t-35.5 -88t-86.5 -35t-87 35t-36 88zM709 1268q0 53 35.5 88t86.5 35t87 -35t36 -88t-35.5 -88t-87.5 -35q-51 0 -86.5 35t-35.5 88z" />
<glyph unicode="&#xa9;" horiz-adv-x="1748" d="M1169 498v-174q-47 -35 -109.5 -52.5t-127.5 -17.5q-94 0 -175 31.5t-141.5 88t-94.5 135.5t-34 175q0 94 34 174t93.5 137.5t140.5 89t177 31.5q57 0 120.5 -16.5t112.5 -48.5v-170h-12q-41 41 -103.5 61.5t-115.5 20.5q-66 0 -117 -21.5t-87 -58.5t-55.5 -88.5 t-19.5 -110.5t21.5 -109.5t58.5 -87t87 -57t110 -20.5q66 0 129 25.5t98 62.5h10zM1669 680q0 -162 -60.5 -303t-165 -245.5t-245.5 -164t-303 -59.5q-164 0 -305 59.5t-245.5 164t-165 245.5t-60.5 303t60.5 302t165 244.5t245.5 164t305 59.5q162 0 303 -59.5t245.5 -164 t165 -244.5t60.5 -302zM1505 680q0 129 -47 241.5t-130 196.5t-193.5 132t-239.5 48t-241.5 -48t-194.5 -132t-129 -196.5t-47 -241.5t47 -240.5t129 -195.5t194.5 -132.5t241.5 -48.5t240.5 48.5t193.5 132.5t129 195.5t47 240.5z" />
<glyph unicode="&#xaa;" horiz-adv-x="739" d="M287 1225l26 135q23 14 74 27.5t111 13.5q104 0 173.5 -43t69.5 -123q0 -35 -8 -70l-80 -381h-149l10 45q-20 -23 -65.5 -42t-90.5 -19q-90 0 -141 53t-51 131q0 43 20.5 83t58.5 70t90 48t118 18q33 0 70.5 -7t49.5 -13q8 27 9 51q0 31 -30 49.5t-85 18.5 q-57 0 -103.5 -16.5t-64.5 -28.5h-12zM449 1057q-55 0 -95.5 -28t-40.5 -66q0 -29 23.5 -51.5t64.5 -22.5q35 0 73 16.5t54 32.5l21 102q-10 4 -38.5 10.5t-61.5 6.5z" />
<glyph unicode="&#xab;" horiz-adv-x="1116" d="M291 520l182 -397v-14h-201l-198 430l350 385h221v-15zM733 520l182 -397v-14h-200l-199 430l350 385h221v-15z" />
<glyph unicode="&#xac;" horiz-adv-x="1157" d="M735 250l82 381h-694l41 188h903l-123 -569h-209z" />
<glyph unicode="&#xad;" horiz-adv-x="806" d="M94 434l39 189h553l-39 -189h-553z" />
<glyph unicode="&#xae;" horiz-adv-x="1746" d="M1067 268l-213 318h-98v-318h-160v832h348q70 0 123 -21.5t88 -57.5t52.5 -83t17.5 -98q0 -41 -14.5 -80t-42 -71t-65.5 -54.5t-83 -30.5l229 -325v-11h-182zM756 733h157q82 0 116 30t34 77t-33 77.5t-119 30.5h-155v-215zM1669 680q0 -162 -60.5 -303t-165 -245.5 t-245.5 -164t-303 -59.5q-164 0 -305 59.5t-245.5 164t-165 245.5t-60.5 303t60.5 302t165 244.5t245.5 164t305 59.5q162 0 303 -59.5t245.5 -164t165 -244.5t60.5 -302zM1505 680q0 129 -47 241.5t-130 196.5t-193.5 132t-239.5 48t-241.5 -48t-194.5 -132t-129 -196.5 t-47 -241.5t47 -240.5t129 -195.5t194.5 -132.5t241.5 -48.5t240.5 48.5t193.5 132.5t129 195.5t47 240.5z" />
<glyph unicode="&#xaf;" horiz-adv-x="911" d="M272 1204l35 168h645l-34 -168h-646z" />
<glyph unicode="&#xb0;" horiz-adv-x="751" d="M762 1100q0 -61 -21.5 -112.5t-59.5 -89.5t-89 -59.5t-113 -21.5q-61 0 -112.5 21.5t-89 59.5t-59 89t-21.5 113q0 61 21.5 112.5t59 89t89 59t112.5 21.5t112.5 -21.5t89.5 -59t59.5 -89t21.5 -112.5zM332 1100q0 -70 40 -112t107 -42q68 0 108 42t40 112t-40 111.5 t-108 41.5t-107.5 -41.5t-39.5 -111.5z" />
<glyph unicode="&#xb1;" horiz-adv-x="1155" d="M-6 0l39 188h919l-39 -188h-919zM410 287l61 284h-356l39 189h356l61 284h205l-61 -284h358l-39 -189h-358l-62 -284h-204z" />
<glyph unicode="&#xb2;" horiz-adv-x="747" d="M152 727l317 285q2 4 3 4t3 2q43 39 78 80t35 88q0 29 -30 55.5t-89 26.5q-33 0 -63.5 -8.5t-57 -20.5t-47 -26.5t-33.5 -26.5h-12l31 151q23 18 80 41t122 23q129 0 190.5 -59.5t61.5 -147.5q0 -66 -38.5 -124t-98.5 -112l-166 -147q-10 -10 -24.5 -21.5t-28.5 -23.5 q-16 -14 -33 -29q27 2 42.5 2h45.5h217l-28 -131h-502z" />
<glyph unicode="&#xb3;" horiz-adv-x="718" d="M494 1098q78 -12 130 -76t52 -148q0 -66 -25.5 -119t-69.5 -91.5t-104.5 -60t-130.5 -21.5q-31 0 -63.5 6t-61 15t-51.5 20.5t-35 21.5l29 133h10q23 -25 70 -44t102 -19q78 0 127 46t49 113q0 51 -36.5 86t-98.5 35q-39 0 -69.5 -11t-38.5 -19h-7l23 102l151 121 q18 16 42 33.5t32 23.5q-8 0 -32.5 -1t-47.5 -1h-194l28 129h476l-19 -82z" />
<glyph unicode="&#xb4;" horiz-adv-x="706" d="M444 1124h-200l190 248h293z" />
<glyph unicode="&#xb5;" horiz-adv-x="1187" d="M-25 -338l287 1354h215l-133 -629q-4 -18 -6 -35.5t-2 -36.5q0 -80 54 -113.5t128 -33.5q61 0 112.5 27.5t92.5 68.5l160 752h215l-215 -1016h-195l21 94q-51 -49 -117 -86t-152 -37q-53 0 -98 14.5t-74 43.5l-78 -367h-215z" />
<glyph unicode="&#xb6;" horiz-adv-x="1325" d="M553 616q-80 2 -153.5 20.5t-130 57.5t-90.5 99.5t-34 146.5q0 117 45.5 199t121 134t173 75.5t199.5 23.5h711l-35 -164h-156l-327 -1546h-170l327 1546h-180l-328 -1546h-176z" />
<glyph unicode="&#xb7;" horiz-adv-x="538" d="M131 664q0 66 44 107.5t106 41.5q61 0 105 -42t44 -107q0 -66 -44 -108t-105 -42t-105.5 42t-44.5 108z" />
<glyph unicode="&#xb8;" horiz-adv-x="628" d="M414 -119l-64 -311h-381l29 149h213l35 162h168z" />
<glyph unicode="&#xb9;" horiz-adv-x="536" d="M186 1081h-10l33 154l246 137h108l-162 -764h-151l121 576z" />
<glyph unicode="&#xba;" horiz-adv-x="829" d="M539 1401q139 0 223 -79t84 -206q0 -74 -27.5 -139.5t-75 -115.5t-113 -79.5t-141.5 -29.5q-135 0 -221 77.5t-86 206.5q0 72 28 138.5t76 116.5t112.5 80t140.5 30zM348 1036q0 -55 38 -98t101 -43q49 0 85 20.5t60.5 52t36 71.5t11.5 77q0 59 -39 101.5t-102 42.5 q-45 0 -81 -19.5t-60.5 -52.5t-37 -73t-12.5 -79z" />
<glyph unicode="&#xbb;" horiz-adv-x="1116" d="M795 512l-183 397v15h201l199 -430l-350 -385h-222v14zM352 512l-182 397v15h201l198 -430l-350 -385h-221v14z" />
<glyph unicode="&#xbc;" horiz-adv-x="1538" d="M817 248l404 516h186l-107 -498h99l-27 -131h-98l-29 -135h-149l28 135h-331zM1186 418q10 41 17 69.5t12.5 50t10.5 40t11 40.5h-2q-12 -20 -22.5 -36.5t-24.5 -37t-34.5 -49t-55.5 -75.5l-115 -154h170zM317 0h-170v10l1102 1362h172v-10zM182 1081h-10l33 154l246 137 h108l-162 -764h-151l121 576z" />
<glyph unicode="&#xbd;" horiz-adv-x="1587" d="M313 0h-170v10l1102 1362h172v-10zM182 1081h-10l33 154l246 137h108l-162 -764h-151l121 576zM905 119l318 284q2 4 3 4.5t3 2.5q43 39 77.5 79.5t34.5 88.5q0 29 -29.5 55t-88.5 26q-33 0 -64 -8t-57.5 -20.5t-47 -26.5t-32.5 -26h-12l30 151q23 18 80.5 41t122.5 23 q129 0 190.5 -59.5t61.5 -147.5q0 -66 -39 -124.5t-98 -111.5l-166 -147q-10 -10 -24.5 -21.5t-28.5 -23.5q-16 -14 -33 -29q27 2 42 2h46h217l-29 -131h-501z" />
<glyph unicode="&#xbe;" horiz-adv-x="1607" d="M889 248l403 516h187l-107 -498h98l-26 -131h-98l-29 -135h-150l29 135h-332zM1257 418q10 41 17.5 69.5t12.5 50t10.5 40t11.5 40.5h-2q-12 -20 -22.5 -36.5t-25 -37t-35 -50t-55.5 -74.5l-114 -154h170zM469 1098q78 -12 130 -76t52 -148q0 -66 -25.5 -119t-69.5 -91.5 t-104.5 -60t-129.5 -21.5q-31 0 -64 6t-61.5 15t-51 20.5t-34.5 21.5l28 133h11q23 -25 69.5 -44t102.5 -19q78 0 127 46t49 113q0 51 -37 86t-99 35q-39 0 -68.5 -11t-39.5 -19h-6l22 102l152 121q18 16 41.5 33.5t32.5 23.5q-8 0 -33 -1t-47 -1h-195l29 129h475l-18 -82z M377 0h-170v10l1102 1362h172v-10z" />
<glyph unicode="&#xbf;" horiz-adv-x="919" d="M625 639l-4 -25q-12 -78 -36 -132t-56.5 -94t-73.5 -70.5t-90 -63.5q-31 -23 -66 -48.5t-64.5 -57t-48 -70.5t-18.5 -86q0 -72 52 -118t149 -46q92 0 179 39t157 104h14l-47 -225q-59 -47 -145.5 -80t-180.5 -33q-80 0 -152.5 26t-128 73t-87 112.5t-31.5 145.5 q0 63 21.5 115.5t53 95.5t70.5 76.5t76 62.5q39 29 79 51.5t73.5 53t60.5 75.5t37 119h207zM711 903q0 -61 -42 -101t-100 -40q-57 0 -99 40t-42 101t42 101t99 40t99.5 -40t42.5 -101z" />
<glyph unicode="&#xc0;" horiz-adv-x="1351" d="M967 1372l258 -1372h-215l-64 332h-627l-202 -332h-228l840 1372h238zM807 1165q-90 -160 -186.5 -323.5t-190.5 -321.5h488l-70 426q-10 53 -19.5 110.5t-17.5 108.5h-4zM522 1737h279l155 -248h-188z" />
<glyph unicode="&#xc1;" horiz-adv-x="1351" d="M967 1372l258 -1372h-215l-64 332h-627l-202 -332h-228l840 1372h238zM807 1165q-90 -160 -186.5 -323.5t-190.5 -321.5h488l-70 426q-10 53 -19.5 110.5t-17.5 108.5h-4zM954 1489h-200l190 248h293z" />
<glyph unicode="&#xc2;" horiz-adv-x="1351" d="M967 1372l258 -1372h-215l-64 332h-627l-202 -332h-228l840 1372h238zM807 1165q-90 -160 -186.5 -323.5t-190.5 -321.5h488l-70 426q-10 53 -19.5 110.5t-17.5 108.5h-4zM1167 1489h-176l-96 137l-145 -137h-195l225 248h250z" />
<glyph unicode="&#xc3;" horiz-adv-x="1351" d="M760 1606q-31 0 -51.5 -23.5t-28.5 -58.5l-143 24q18 88 73.5 147.5t151.5 59.5q45 0 78.5 -15.5t56.5 -31.5q25 -18 44.5 -32.5t51.5 -14.5q31 0 51.5 24.5t28.5 59.5l141 -25q-20 -98 -77.5 -152.5t-149.5 -54.5q-47 0 -82 13.5t-61 32.5q-18 16 -38.5 31.5t-45.5 15.5 zM967 1372l258 -1372h-215l-64 332h-627l-202 -332h-228l840 1372h238zM807 1165q-90 -160 -186.5 -323.5t-190.5 -321.5h488l-70 426q-10 53 -19.5 110.5t-17.5 108.5h-4z" />
<glyph unicode="&#xc4;" horiz-adv-x="1351" d="M967 1372l258 -1372h-215l-64 332h-627l-202 -332h-228l840 1372h238zM807 1165q-90 -160 -186.5 -323.5t-190.5 -321.5h488l-70 426q-10 53 -19.5 110.5t-17.5 108.5h-4zM543 1632q0 53 35.5 88t87.5 35q51 0 86.5 -34.5t35.5 -88.5q0 -53 -35.5 -88t-86.5 -35t-87 35 t-36 88zM965 1632q0 53 35.5 88t86.5 35t87 -34.5t36 -88.5q0 -53 -35.5 -88t-87.5 -35q-51 0 -86.5 35t-35.5 88z" />
<glyph unicode="&#xc5;" horiz-adv-x="1351" d="M1063 1473q0 -49 -22.5 -91.5t-63.5 -68.5l248 -1313h-215l-64 332h-627l-202 -332h-228l820 1337q-53 53 -54 136q0 41 15.5 76.5t43 62t64.5 42t80 15.5t80 -15.5t64.5 -42t44 -62t16.5 -76.5zM807 1165q-90 -160 -186.5 -323.5t-190.5 -321.5h488l-70 426 q-10 53 -19.5 110.5t-17.5 108.5h-4zM950 1473q0 41 -25.5 68.5t-66.5 27.5t-67.5 -28t-26.5 -68q0 -41 26.5 -70t67.5 -29t66.5 29t25.5 70z" />
<glyph unicode="&#xc6;" horiz-adv-x="1925" d="M1987 1372l-41 -196h-715l-76 -351h674l-41 -196h-674l-92 -432h725l-41 -197h-944l69 330h-487l-233 -330h-242l973 1372h1145zM930 1178l-455 -658h395l142 658h-82z" />
<glyph unicode="&#xc7;" horiz-adv-x="1267" d="M860 1409q86 0 155.5 -15.5t125 -38t95.5 -49t67 -49.5l-48 -202h-14q-27 31 -66.5 58.5t-89 49t-106.5 34.5t-117 13q-117 0 -216 -48t-169.5 -131t-110.5 -192.5t-40 -230.5q0 -96 32.5 -178t91 -141.5t137.5 -92t171 -32.5q57 0 112.5 10t104.5 25.5t88 35t63 39.5h15 l-49 -227q-47 -31 -143.5 -57.5t-213.5 -26.5q-125 0 -239.5 44t-202.5 128t-141.5 203t-53.5 270q0 166 58.5 311.5t161 254t241.5 172t301 63.5zM825 -119l-63 -311h-381l29 149h213l34 162h168z" />
<glyph unicode="&#xc8;" horiz-adv-x="1204" d="M1266 1372l-41 -196h-713l-74 -351h672l-43 -196h-672l-92 -432h723l-41 -197h-942l291 1372h932zM506 1737h278l156 -248h-188z" />
<glyph unicode="&#xc9;" horiz-adv-x="1204" d="M1266 1372l-41 -196h-713l-74 -351h672l-43 -196h-672l-92 -432h723l-41 -197h-942l291 1372h932zM874 1489h-200l190 248h293z" />
<glyph unicode="&#xca;" horiz-adv-x="1204" d="M1266 1372l-41 -196h-713l-74 -351h672l-43 -196h-672l-92 -432h723l-41 -197h-942l291 1372h932zM1135 1489h-177l-96 137l-145 -137h-195l226 248h249z" />
<glyph unicode="&#xcb;" horiz-adv-x="1204" d="M1266 1372l-41 -196h-713l-74 -351h672l-43 -196h-672l-92 -432h723l-41 -197h-942l291 1372h932zM471 1632q0 53 36 88t87 35t87 -34.5t36 -88.5q0 -53 -36 -88t-87 -35t-87 35t-36 88zM893 1632q0 53 36 88t87 35t87 -34.5t36 -88.5q0 -53 -36 -88t-87 -35t-87 35 t-36 88z" />
<glyph unicode="&#xcc;" horiz-adv-x="555" d="M334 1372h219l-291 -1372h-219zM143 1737h279l156 -248h-189z" />
<glyph unicode="&#xcd;" horiz-adv-x="555" d="M334 1372h219l-291 -1372h-219zM551 1489h-201l191 248h293z" />
<glyph unicode="&#xce;" horiz-adv-x="555" d="M334 1372h219l-291 -1372h-219zM764 1489h-176l-96 137l-146 -137h-194l225 248h250z" />
<glyph unicode="&#xcf;" horiz-adv-x="555" d="M334 1372h219l-291 -1372h-219zM133 1632q0 53 36 88t87 35t87 -34.5t36 -88.5q0 -53 -36 -88t-87 -35t-87 35t-36 88zM555 1632q0 53 36 88t87 35t87 -34.5t36 -88.5q0 -53 -36 -88t-87 -35t-87 35t-36 88z" />
<glyph unicode="&#xd0;" horiz-adv-x="1439" d="M39 776h184l127 596h293q106 0 190.5 -9t151 -27.5t119.5 -47t98 -65.5q35 -29 69 -70t59.5 -92t40.5 -113.5t15 -134.5q0 -127 -28.5 -233.5t-78.5 -193.5t-117.5 -155.5t-145.5 -117.5q-72 -47 -204 -80t-318 -33h-435l127 602h-184zM528 1176l-86 -400h330l-37 -174 h-329l-87 -405h193q115 0 222.5 23.5t168.5 64.5q111 72 184.5 200.5t73.5 319.5q0 92 -27.5 159.5t-72.5 108.5q-63 59 -161.5 81t-229.5 22h-142z" />
<glyph unicode="&#xd1;" horiz-adv-x="1458" d="M1024 305q4 27 8 51.5t9.5 53t11.5 63.5t16 82l168 817h219l-291 -1372h-207l-389 842q-31 66 -48 111.5t-40 99.5h-2q-16 -102 -37 -203l-180 -850h-219l291 1372h205l376 -817q35 -78 58.5 -132t48.5 -118h2zM799 1606q-31 0 -51.5 -23.5t-28.5 -58.5l-144 24 q18 88 74 147.5t152 59.5q45 0 78.5 -15.5t56.5 -31.5q25 -18 44 -32.5t52 -14.5q31 0 51.5 24.5t28.5 59.5l141 -25q-20 -98 -77.5 -152.5t-149.5 -54.5q-47 0 -82 13.5t-61 32.5q-18 16 -38.5 31.5t-45.5 15.5z" />
<glyph unicode="&#xd2;" horiz-adv-x="1576" d="M739 164q127 0 229.5 50t175.5 134t111.5 192.5t38.5 223.5q0 94 -29.5 175t-84 141.5t-131 94t-170.5 33.5q-127 0 -229.5 -49t-175.5 -132t-111.5 -191.5t-38.5 -227.5q0 -92 31.5 -173t88 -141.5t132 -95t163.5 -34.5zM739 -37q-141 0 -259 47t-204 133t-133 205 t-47 260q0 172 62.5 318.5t170 254t251 168t303.5 60.5q143 0 261 -47t202 -133t130 -205t46 -260q0 -174 -63.5 -321.5t-171 -254t-249 -166t-299.5 -59.5zM578 1737h278l156 -248h-189z" />
<glyph unicode="&#xd3;" horiz-adv-x="1576" d="M739 164q127 0 229.5 50t175.5 134t111.5 192.5t38.5 223.5q0 94 -29.5 175t-84 141.5t-131 94t-170.5 33.5q-127 0 -229.5 -49t-175.5 -132t-111.5 -191.5t-38.5 -227.5q0 -92 31.5 -173t88 -141.5t132 -95t163.5 -34.5zM739 -37q-141 0 -259 47t-204 133t-133 205 t-47 260q0 172 62.5 318.5t170 254t251 168t303.5 60.5q143 0 261 -47t202 -133t130 -205t46 -260q0 -174 -63.5 -321.5t-171 -254t-249 -166t-299.5 -59.5zM946 1489h-201l191 248h293z" />
<glyph unicode="&#xd4;" horiz-adv-x="1576" d="M739 164q127 0 229.5 50t175.5 134t111.5 192.5t38.5 223.5q0 94 -29.5 175t-84 141.5t-131 94t-170.5 33.5q-127 0 -229.5 -49t-175.5 -132t-111.5 -191.5t-38.5 -227.5q0 -92 31.5 -173t88 -141.5t132 -95t163.5 -34.5zM739 -37q-141 0 -259 47t-204 133t-133 205 t-47 260q0 172 62.5 318.5t170 254t251 168t303.5 60.5q143 0 261 -47t202 -133t130 -205t46 -260q0 -174 -63.5 -321.5t-171 -254t-249 -166t-299.5 -59.5zM1202 1489h-176l-96 137l-146 -137h-194l225 248h250z" />
<glyph unicode="&#xd5;" horiz-adv-x="1576" d="M825 1606q-31 0 -51 -23.5t-29 -58.5l-143 24q18 88 73.5 147.5t151.5 59.5q45 0 79 -15.5t57 -31.5q25 -18 44 -32.5t52 -14.5q31 0 51 24.5t29 59.5l141 -25q-20 -98 -77.5 -152.5t-149.5 -54.5q-47 0 -82 13.5t-62 32.5q-18 16 -38.5 31.5t-45.5 15.5zM739 164 q127 0 229.5 50t175.5 134t111.5 192.5t38.5 223.5q0 94 -29.5 175t-84 141.5t-131 94t-170.5 33.5q-127 0 -229.5 -49t-175.5 -132t-111.5 -191.5t-38.5 -227.5q0 -92 31.5 -173t88 -141.5t132 -95t163.5 -34.5zM739 -37q-141 0 -259 47t-204 133t-133 205t-47 260 q0 172 62.5 318.5t170 254t251 168t303.5 60.5q143 0 261 -47t202 -133t130 -205t46 -260q0 -174 -63.5 -321.5t-171 -254t-249 -166t-299.5 -59.5z" />
<glyph unicode="&#xd6;" horiz-adv-x="1576" d="M739 164q127 0 229.5 50t175.5 134t111.5 192.5t38.5 223.5q0 94 -29.5 175t-84 141.5t-131 94t-170.5 33.5q-127 0 -229.5 -49t-175.5 -132t-111.5 -191.5t-38.5 -227.5q0 -92 31.5 -173t88 -141.5t132 -95t163.5 -34.5zM739 -37q-141 0 -259 47t-204 133t-133 205 t-47 260q0 172 62.5 318.5t170 254t251 168t303.5 60.5q143 0 261 -47t202 -133t130 -205t46 -260q0 -174 -63.5 -321.5t-171 -254t-249 -166t-299.5 -59.5zM594 1632q0 53 36 88t87 35t87 -34.5t36 -88.5q0 -53 -36 -88t-87 -35t-87 35t-36 88zM1016 1632q0 53 35.5 88 t87.5 35q51 0 87 -34.5t36 -88.5q0 -53 -36 -88t-87 -35t-87 35t-36 88z" />
<glyph unicode="&#xd7;" horiz-adv-x="1150" d="M702 518l273 -348l-156 -129l-274 350l-428 -350l-117 149l430 351l-274 346l157 129l273 -348l418 348l116 -150z" />
<glyph unicode="&#xd8;" horiz-adv-x="1574" d="M739 -37q-125 0 -230.5 37t-189.5 102l-178 -161l-110 125l176 159q-53 78 -82 175.5t-29 207.5q0 172 62.5 318.5t170 254t251 168t303.5 60.5q135 0 247.5 -43t196.5 -121l172 158l111 -125l-178 -162q43 -76 66.5 -164t23.5 -188q0 -174 -63.5 -321.5t-171 -254 t-249 -166t-299.5 -59.5zM879 1208q-127 0 -229.5 -49t-175.5 -132t-111.5 -191.5t-38.5 -227.5q0 -61 14 -118.5t41 -106.5l784 715q-53 53 -125.5 81.5t-158.5 28.5zM739 164q127 0 229.5 50t175.5 134t111.5 192.5t38.5 223.5q0 53 -10 101t-27 91l-772 -702 q109 -90 254 -90z" />
<glyph unicode="&#xd9;" horiz-adv-x="1361" d="M319 1372h220l-177 -825q-8 -35 -14 -75t-6 -75q0 -117 76 -175t188 -58q137 0 228 65q51 37 79.5 89.5t51.5 158.5l190 895h223l-194 -891q-18 -86 -41 -151.5t-50.5 -114.5t-64.5 -87t-82 -69q-139 -96 -344 -96q-106 0 -194.5 27.5t-151.5 81t-99 130.5t-36 177 q0 27 5 73t15 87zM549 1737h278l156 -248h-188z" />
<glyph unicode="&#xda;" horiz-adv-x="1361" d="M319 1372h220l-177 -825q-8 -35 -14 -75t-6 -75q0 -117 76 -175t188 -58q137 0 228 65q51 37 79.5 89.5t51.5 158.5l190 895h223l-194 -891q-18 -86 -41 -151.5t-50.5 -114.5t-64.5 -87t-82 -69q-139 -96 -344 -96q-106 0 -194.5 27.5t-151.5 81t-99 130.5t-36 177 q0 27 5 73t15 87zM907 1489h-200l190 248h293z" />
<glyph unicode="&#xdb;" horiz-adv-x="1361" d="M319 1372h220l-177 -825q-8 -35 -14 -75t-6 -75q0 -117 76 -175t188 -58q137 0 228 65q51 37 79.5 89.5t51.5 158.5l190 895h223l-194 -891q-18 -86 -41 -151.5t-50.5 -114.5t-64.5 -87t-82 -69q-139 -96 -344 -96q-106 0 -194.5 27.5t-151.5 81t-99 130.5t-36 177 q0 27 5 73t15 87zM1157 1489h-176l-96 137l-146 -137h-194l225 248h250z" />
<glyph unicode="&#xdc;" horiz-adv-x="1361" d="M530 1632q0 53 36 88t87 35t87 -34.5t36 -88.5q0 -53 -35.5 -88t-87.5 -35q-51 0 -87 35t-36 88zM952 1632q0 53 36 88t87 35t87 -34.5t36 -88.5q0 -53 -36 -88t-87 -35t-87 35t-36 88zM319 1372h220l-177 -825q-8 -35 -14 -75t-6 -75q0 -117 76 -175t188 -58 q137 0 228 65q51 37 79.5 89.5t51.5 158.5l190 895h223l-194 -891q-18 -86 -41 -151.5t-50.5 -114.5t-64.5 -87t-82 -69q-139 -96 -344 -96q-106 0 -194.5 27.5t-151.5 81t-99 130.5t-36 177q0 27 5 73t15 87z" />
<glyph unicode="&#xdd;" horiz-adv-x="1261" d="M842 1489h-201l190 248h293zM1389 1352l-646 -734l-131 -618h-219l137 641l-348 711v20h215l262 -557l476 557h254v-20z" />
<glyph unicode="&#xde;" horiz-adv-x="1232" d="M43 0l291 1372h215l-47 -217h315q90 0 163 -30.5t123 -84t77.5 -126t27.5 -154.5q0 -133 -47 -229.5t-126 -158t-183 -90t-221 -28.5h-320l-53 -254h-215zM641 442q160 0 256 79t96 239q0 98 -62.5 152.5t-182.5 54.5h-285l-113 -525h291z" />
<glyph unicode="&#xdf;" horiz-adv-x="1146" d="M514 162q57 0 111.5 19.5t96.5 55t66.5 86t24.5 109.5q0 92 -56.5 143.5t-146.5 51.5h-114l41 196h96q45 0 91 17.5t83 50.5t59.5 77t22.5 97q0 78 -50.5 113.5t-117.5 35.5q-115 0 -189.5 -77.5t-99.5 -196.5l-199 -940h-215l203 958q20 98 64.5 181.5t110 143.5 t151.5 93t190 33q74 0 141.5 -19.5t118 -59.5t80 -100.5t29.5 -142.5q0 -61 -20.5 -113t-54.5 -97.5t-79 -81t-94 -64.5v-2q78 -39 125 -120t47 -171q0 -47 -8 -87t-23 -77q-59 -152 -192 -227.5t-311 -75.5q-35 0 -84.5 6.5t-81.5 18.5l41 192h20q64 -26 123 -26z" />
<glyph unicode="&#xe0;" horiz-adv-x="1048" d="M203 770l43 205q16 10 50 22.5t77 22.5t91 17t95 7q104 0 177 -25.5t120 -66.5t68.5 -92t21.5 -104q0 -27 -4 -50.5t-8 -41.5l-141 -664h-195l18 76q-33 -37 -109.5 -71t-170.5 -34q-80 0 -140.5 23.5t-102.5 65.5t-63.5 97.5t-21.5 121.5q0 76 34 142t95.5 115.5 t145.5 78t182 28.5q35 0 72.5 -4t71.5 -10t59.5 -12.5t36.5 -10.5l12 58q4 16 6 30.5t2 26.5q0 57 -44 96t-155 39q-90 0 -176 -25.5t-133 -60.5h-14zM487 479q-121 0 -191.5 -55t-70.5 -139q0 -63 49.5 -99t118.5 -36q70 0 133.5 25.5t102.5 70.5l45 207q-16 8 -67.5 17 t-119.5 9zM297 1372h278l156 -248h-188z" />
<glyph unicode="&#xe1;" horiz-adv-x="1048" d="M203 770l43 205q16 10 50 22.5t77 22.5t91 17t95 7q104 0 177 -25.5t120 -66.5t68.5 -92t21.5 -104q0 -27 -4 -50.5t-8 -41.5l-141 -664h-195l18 76q-33 -37 -109.5 -71t-170.5 -34q-80 0 -140.5 23.5t-102.5 65.5t-63.5 97.5t-21.5 121.5q0 76 34 142t95.5 115.5 t145.5 78t182 28.5q35 0 72.5 -4t71.5 -10t59.5 -12.5t36.5 -10.5l12 58q4 16 6 30.5t2 26.5q0 57 -44 96t-155 39q-90 0 -176 -25.5t-133 -60.5h-14zM487 479q-121 0 -191.5 -55t-70.5 -139q0 -63 49.5 -99t118.5 -36q70 0 133.5 25.5t102.5 70.5l45 207q-16 8 -67.5 17 t-119.5 9zM655 1124h-200l190 248h293z" />
<glyph unicode="&#xe2;" horiz-adv-x="1048" d="M203 770l43 205q16 10 50 22.5t77 22.5t91 17t95 7q104 0 177 -25.5t120 -66.5t68.5 -92t21.5 -104q0 -27 -4 -50.5t-8 -41.5l-141 -664h-195l18 76q-33 -37 -109.5 -71t-170.5 -34q-80 0 -140.5 23.5t-102.5 65.5t-63.5 97.5t-21.5 121.5q0 76 34 142t95.5 115.5 t145.5 78t182 28.5q35 0 72.5 -4t71.5 -10t59.5 -12.5t36.5 -10.5l12 58q4 16 6 30.5t2 26.5q0 57 -44 96t-155 39q-90 0 -176 -25.5t-133 -60.5h-14zM487 479q-121 0 -191.5 -55t-70.5 -139q0 -63 49.5 -99t118.5 -36q70 0 133.5 25.5t102.5 70.5l45 207q-16 8 -67.5 17 t-119.5 9zM918 1124h-177l-96 138l-145 -138h-195l225 248h250z" />
<glyph unicode="&#xe3;" horiz-adv-x="1048" d="M203 770l43 205q16 10 50 22.5t77 22.5t91 17t95 7q104 0 177 -25.5t120 -66.5t68.5 -92t21.5 -104q0 -27 -4 -50.5t-8 -41.5l-141 -664h-195l18 76q-33 -37 -109.5 -71t-170.5 -34q-80 0 -140.5 23.5t-102.5 65.5t-63.5 97.5t-21.5 121.5q0 76 34 142t95.5 115.5 t145.5 78t182 28.5q35 0 72.5 -4t71.5 -10t59.5 -12.5t36.5 -10.5l12 58q4 16 6 30.5t2 26.5q0 57 -44 96t-155 39q-90 0 -176 -25.5t-133 -60.5h-14zM487 479q-121 0 -191.5 -55t-70.5 -139q0 -63 49.5 -99t118.5 -36q70 0 133.5 25.5t102.5 70.5l45 207q-16 8 -67.5 17 t-119.5 9zM535 1241q-31 0 -51.5 -23.5t-28.5 -58.5l-144 25q18 88 73.5 147.5t152.5 59.5q45 0 78.5 -15.5t56.5 -32.5q25 -18 44 -32.5t52 -14.5q31 0 51.5 25t28.5 59l141 -24q-20 -98 -77.5 -152.5t-149.5 -54.5q-47 0 -82 13.5t-62 31.5q-18 16 -38 31.5t-45 15.5z" />
<glyph unicode="&#xe4;" horiz-adv-x="1048" d="M203 770l43 205q16 10 50 22.5t77 22.5t91 17t95 7q104 0 177 -25.5t120 -66.5t68.5 -92t21.5 -104q0 -27 -4 -50.5t-8 -41.5l-141 -664h-195l18 76q-33 -37 -109.5 -71t-170.5 -34q-80 0 -140.5 23.5t-102.5 65.5t-63.5 97.5t-21.5 121.5q0 76 34 142t95.5 115.5 t145.5 78t182 28.5q35 0 72.5 -4t71.5 -10t59.5 -12.5t36.5 -10.5l12 58q4 16 6 30.5t2 26.5q0 57 -44 96t-155 39q-90 0 -176 -25.5t-133 -60.5h-14zM487 479q-121 0 -191.5 -55t-70.5 -139q0 -63 49.5 -99t118.5 -36q70 0 133.5 25.5t102.5 70.5l45 207q-16 8 -67.5 17 t-119.5 9zM289 1268q0 53 35.5 88t87.5 35q51 0 87 -35t36 -88t-36 -88t-87 -35t-87 35t-36 88zM711 1268q0 53 35.5 88t87.5 35q51 0 86.5 -35t35.5 -88t-35.5 -88t-86.5 -35t-87 35t-36 88z" />
<glyph unicode="&#xe5;" horiz-adv-x="1048" d="M203 770l43 205q16 10 50 22.5t77 22.5t91 17t95 7q104 0 177 -25.5t120 -66.5t68.5 -92t21.5 -104q0 -27 -4 -50.5t-8 -41.5l-141 -664h-195l18 76q-33 -37 -109.5 -71t-170.5 -34q-80 0 -140.5 23.5t-102.5 65.5t-63.5 97.5t-21.5 121.5q0 76 34 142t95.5 115.5 t145.5 78t182 28.5q35 0 72.5 -4t71.5 -10t59.5 -12.5t36.5 -10.5l12 58q4 16 6 30.5t2 26.5q0 57 -44 96t-155 39q-90 0 -176 -25.5t-133 -60.5h-14zM487 479q-121 0 -191.5 -55t-70.5 -139q0 -63 49.5 -99t118.5 -36q70 0 133.5 25.5t102.5 70.5l45 207q-16 8 -67.5 17 t-119.5 9zM862 1290q0 -41 -16.5 -76.5t-44 -62.5t-64.5 -42t-80 -15t-79.5 15t-64.5 42t-43 62.5t-15 76.5t15 77t43 62.5t64.5 42t79.5 15.5t80 -15.5t64.5 -42t44 -62.5t16.5 -77zM750 1290q0 41 -26 68.5t-67 27.5t-67.5 -27.5t-26.5 -68.5t26.5 -69.5t67.5 -28.5 t67 28.5t26 69.5z" />
<glyph unicode="&#xe6;" horiz-adv-x="1701" d="M883 420q0 -70 27.5 -119t72.5 -80t99.5 -45t109.5 -14q43 0 88 7t86 20.5t76 32t59 38.5h15l-43 -205q-49 -39 -138.5 -61.5t-189.5 -22.5q-123 0 -216 49.5t-149 141.5q-59 -76 -163.5 -133.5t-256.5 -57.5q-166 0 -259 84t-93 224q0 76 34 142t95.5 115.5t145.5 78 t182 28.5q35 0 72.5 -4t71.5 -10t59.5 -12.5t36.5 -10.5l12 58q4 16 6 30.5t2 26.5q0 57 -44 96t-155 39q-90 0 -176 -25.5t-133 -60.5h-14l43 205q16 10 50 22.5t77 22.5t91 17t95 7q131 0 209 -38.5t117 -98.5q66 63 151.5 100t192.5 37q109 0 185.5 -37.5t124.5 -101 t70.5 -143.5t22.5 -164q0 -39 -7 -88t-19 -90h-723zM487 479q-121 0 -191.5 -55t-70.5 -139q0 -63 49.5 -99t118.5 -36q70 0 133.5 25.5t102.5 70.5l45 207q-16 8 -67.5 17t-119.5 9zM1415 594q4 20 4 41q0 43 -13 84t-39 72.5t-64.5 50t-92.5 18.5q-115 0 -195.5 -72.5 t-107.5 -193.5h508z" />
<glyph unicode="&#xe7;" horiz-adv-x="1019" d="M879 256l-43 -209q-45 -31 -125 -53.5t-166 -22.5q-115 0 -206 39t-154.5 105.5t-96.5 153.5t-33 186q0 121 46 228.5t126 187t187.5 126.5t228.5 47q117 0 208 -41.5t132 -89.5l-43 -194h-14q-14 20 -40 43.5t-62 43t-81 32t-98 12.5q-70 0 -136.5 -27.5t-118.5 -79 t-84 -124t-32 -164.5q0 -66 24 -119t64.5 -91t95 -58.5t117.5 -20.5q47 0 92.5 8t83 21.5t66.5 30t47 30.5h15zM645 -119l-63 -311h-381l28 149h213l35 162h168z" />
<glyph unicode="&#xe8;" horiz-adv-x="1083" d="M297 1372h278l156 -248h-188zM264 420q0 -70 27.5 -119t73 -80t99.5 -45t109 -14q43 0 88.5 7t86 20.5t75.5 32t60 38.5h14l-43 -205q-49 -39 -138 -61.5t-190 -22.5q-98 0 -184 34t-148.5 95.5t-99.5 147.5t-37 192q0 123 41 232.5t115 192.5t175 131t222 48 q109 0 185.5 -37.5t125 -101t71 -143.5t22.5 -164q0 -39 -7.5 -88t-19.5 -90h-723zM797 594q4 20 4 41q0 43 -13.5 84t-39 72.5t-64.5 50t-92 18.5q-115 0 -196 -72.5t-107 -193.5h508z" />
<glyph unicode="&#xe9;" horiz-adv-x="1083" d="M692 1124h-200l190 248h293zM264 420q0 -70 27.5 -119t73 -80t99.5 -45t109 -14q43 0 88.5 7t86 20.5t75.5 32t60 38.5h14l-43 -205q-49 -39 -138 -61.5t-190 -22.5q-98 0 -184 34t-148.5 95.5t-99.5 147.5t-37 192q0 123 41 232.5t115 192.5t175 131t222 48 q109 0 185.5 -37.5t125 -101t71 -143.5t22.5 -164q0 -39 -7.5 -88t-19.5 -90h-723zM797 594q4 20 4 41q0 43 -13.5 84t-39 72.5t-64.5 50t-92 18.5q-115 0 -196 -72.5t-107 -193.5h508z" />
<glyph unicode="&#xea;" horiz-adv-x="1083" d="M907 1124h-176l-96 138l-146 -138h-194l225 248h250zM264 420q0 -70 27.5 -119t73 -80t99.5 -45t109 -14q43 0 88.5 7t86 20.5t75.5 32t60 38.5h14l-43 -205q-49 -39 -138 -61.5t-190 -22.5q-98 0 -184 34t-148.5 95.5t-99.5 147.5t-37 192q0 123 41 232.5t115 192.5 t175 131t222 48q109 0 185.5 -37.5t125 -101t71 -143.5t22.5 -164q0 -39 -7.5 -88t-19.5 -90h-723zM797 594q4 20 4 41q0 43 -13.5 84t-39 72.5t-64.5 50t-92 18.5q-115 0 -196 -72.5t-107 -193.5h508z" />
<glyph unicode="&#xeb;" horiz-adv-x="1083" d="M291 1268q0 53 35.5 88t87.5 35q51 0 87 -35t36 -88t-36 -88t-87 -35t-87 35t-36 88zM713 1268q0 53 35.5 88t87.5 35q51 0 86.5 -35t35.5 -88t-35.5 -88t-86.5 -35t-87 35t-36 88zM264 420q0 -70 27.5 -119t73 -80t99.5 -45t109 -14q43 0 88.5 7t86 20.5t75.5 32 t60 38.5h14l-43 -205q-49 -39 -138 -61.5t-190 -22.5q-98 0 -184 34t-148.5 95.5t-99.5 147.5t-37 192q0 123 41 232.5t115 192.5t175 131t222 48q109 0 185.5 -37.5t125 -101t71 -143.5t22.5 -164q0 -39 -7.5 -88t-19.5 -90h-723zM797 594q4 20 4 41q0 43 -13.5 84 t-39 72.5t-64.5 50t-92 18.5q-115 0 -196 -72.5t-107 -193.5h508z" />
<glyph unicode="&#xec;" horiz-adv-x="499" d="M37 1372h278l156 -248h-188zM233 1016h216l-216 -1016h-215z" />
<glyph unicode="&#xed;" horiz-adv-x="499" d="M459 1124h-201l191 248h292zM18 0l215 1016h216l-216 -1016h-215z" />
<glyph unicode="&#xee;" horiz-adv-x="499" d="M664 1124h-177l-96 138l-145 -138h-195l225 248h250zM233 1016h216l-216 -1016h-215z" />
<glyph unicode="&#xef;" horiz-adv-x="499" d="M18 0l215 1016h216l-216 -1016h-215zM27 1268q0 53 35.5 88t87.5 35q51 0 86.5 -35t35.5 -88t-35.5 -88t-86.5 -35t-87 35t-36 88zM449 1268q0 53 35.5 88t86.5 35t87 -35t36 -88t-35.5 -88t-87.5 -35q-51 0 -86.5 35t-35.5 88z" />
<glyph unicode="&#xf0;" horiz-adv-x="1183" d="M281 1137l258 92l-66 121v22h242l37 -67l186 65l51 -133l-168 -59l146 -269q14 -27 34.5 -68.5t40 -91t32.5 -103.5t13 -105q0 -119 -44 -222.5t-120.5 -180.5t-180 -122t-220.5 -45q-100 0 -186 34t-149.5 93.5t-99.5 141.5t-36 178q0 131 48 236.5t123 179t169 112.5 t187 39q33 0 60.5 -3t37.5 -7l-70 127l-274 -98zM272 418q0 -57 19.5 -104.5t55.5 -81t84 -53t104 -19.5q72 0 132 30.5t104 81t68.5 115t24.5 133.5q0 76 -25.5 138.5t-66.5 125.5q-23 12 -54.5 21.5t-94.5 9.5q-61 0 -123 -25.5t-113 -74.5t-83 -124t-32 -173z" />
<glyph unicode="&#xf1;" horiz-adv-x="1130" d="M451 1016l-15 -74q18 18 50 35.5t69 33t79 24.5t83 9q68 0 124 -18t97 -54t63.5 -87t22.5 -119q0 -41 -7 -81t-13 -73l-132 -612h-215l127 592q4 23 10.5 56.5t6.5 56.5q0 72 -44 109.5t-122 37.5q-41 0 -79 -11.5t-69.5 -27.5t-56 -34.5t-39.5 -35.5l-158 -743h-215 l215 1016h218zM596 1243q-31 0 -51.5 -23.5t-28.5 -58.5l-143 25q18 88 73.5 147.5t151.5 59.5q45 0 79 -15.5t56 -31.5q25 -18 44.5 -33t51.5 -15q31 0 51.5 25t28.5 59l142 -24q-20 -98 -78 -152.5t-150 -54.5q-47 0 -81.5 13.5t-61.5 31.5q-18 16 -38.5 31.5t-45.5 15.5z " />
<glyph unicode="&#xf2;" horiz-adv-x="1212" d="M647 1044q111 0 200 -37.5t150.5 -103t94 -152.5t32.5 -186q0 -119 -46 -226.5t-126 -189t-187.5 -130t-229.5 -48.5q-115 0 -204 39t-150.5 104.5t-93.5 151.5t-32 180q0 123 46 231.5t127 190.5t188.5 129t230.5 47zM274 446q0 -123 70 -200.5t201 -77.5q80 0 146.5 35 t113.5 90t73.5 127t26.5 145q0 125 -69.5 205t-200.5 80q-82 0 -148.5 -35t-113.5 -92t-73 -130t-26 -147zM332 1372h278l156 -248h-188z" />
<glyph unicode="&#xf3;" horiz-adv-x="1212" d="M647 1044q111 0 200 -37.5t150.5 -103t94 -152.5t32.5 -186q0 -119 -46 -226.5t-126 -189t-187.5 -130t-229.5 -48.5q-115 0 -204 39t-150.5 104.5t-93.5 151.5t-32 180q0 123 46 231.5t127 190.5t188.5 129t230.5 47zM274 446q0 -123 70 -200.5t201 -77.5q80 0 146.5 35 t113.5 90t73.5 127t26.5 145q0 125 -69.5 205t-200.5 80q-82 0 -148.5 -35t-113.5 -92t-73 -130t-26 -147zM727 1124h-201l191 248h293z" />
<glyph unicode="&#xf4;" horiz-adv-x="1212" d="M647 1044q111 0 200 -37.5t150.5 -103t94 -152.5t32.5 -186q0 -119 -46 -226.5t-126 -189t-187.5 -130t-229.5 -48.5q-115 0 -204 39t-150.5 104.5t-93.5 151.5t-32 180q0 123 46 231.5t127 190.5t188.5 129t230.5 47zM274 446q0 -123 70 -200.5t201 -77.5q80 0 146.5 35 t113.5 90t73.5 127t26.5 145q0 125 -69.5 205t-200.5 80q-82 0 -148.5 -35t-113.5 -92t-73 -130t-26 -147zM991 1124h-176l-96 138l-146 -138h-194l225 248h250z" />
<glyph unicode="&#xf5;" horiz-adv-x="1212" d="M573 1239q-31 0 -51 -23.5t-28 -58.5l-144 25q18 88 73.5 147.5t151.5 59.5q45 0 79 -15.5t57 -32.5q25 -18 44 -32.5t52 -14.5q31 0 51.5 24.5t28.5 59.5l141 -24q-20 -98 -77.5 -152.5t-149.5 -54.5q-47 0 -82 13.5t-62 31.5q-18 16 -38.5 31.5t-45.5 15.5zM647 1044 q111 0 200 -37.5t150.5 -103t94 -152.5t32.5 -186q0 -119 -46 -226.5t-126 -189t-187.5 -130t-229.5 -48.5q-115 0 -204 39t-150.5 104.5t-93.5 151.5t-32 180q0 123 46 231.5t127 190.5t188.5 129t230.5 47zM274 446q0 -123 70 -200.5t201 -77.5q80 0 146.5 35t113.5 90 t73.5 127t26.5 145q0 125 -69.5 205t-200.5 80q-82 0 -148.5 -35t-113.5 -92t-73 -130t-26 -147z" />
<glyph unicode="&#xf6;" horiz-adv-x="1212" d="M647 1044q111 0 200 -37.5t150.5 -103t94 -152.5t32.5 -186q0 -119 -46 -226.5t-126 -189t-187.5 -130t-229.5 -48.5q-115 0 -204 39t-150.5 104.5t-93.5 151.5t-32 180q0 123 46 231.5t127 190.5t188.5 129t230.5 47zM274 446q0 -123 70 -200.5t201 -77.5q80 0 146.5 35 t113.5 90t73.5 127t26.5 145q0 125 -69.5 205t-200.5 80q-82 0 -148.5 -35t-113.5 -92t-73 -130t-26 -147zM360 1268q0 53 36 88t87 35t87 -35t36 -88t-35.5 -88t-87.5 -35q-51 0 -87 35t-36 88zM782 1268q0 53 36 88t87 35t87 -35t36 -88t-36 -88t-87 -35t-87 35t-36 88z " />
<glyph unicode="&#xf7;" horiz-adv-x="1134" d="M102 623h945l-39 -189h-945zM487 895q0 66 44 107.5t106 41.5q61 0 105 -41.5t44 -107.5t-44 -108t-105 -42t-105.5 42t-44.5 108zM324 150q0 66 44 107.5t105 41.5t105.5 -42t44.5 -107q0 -66 -44 -108t-106 -42q-61 0 -105 42t-44 108z" />
<glyph unicode="&#xf8;" horiz-adv-x="1212" d="M647 1044q92 0 168 -26.5t135 -73.5l109 103l106 -111l-112 -107q35 -57 53 -124.5t18 -139.5q0 -119 -46 -226.5t-126 -189t-187.5 -130t-229.5 -48.5q-92 0 -165 23.5t-130 66.5l-121 -114l-105 110l119 113q-78 121 -78 276q0 123 46 231.5t127 190.5t188.5 129 t230.5 47zM274 446q0 -70 21 -122l504 477q-33 23 -74 36t-90 13q-82 0 -148.5 -35t-113.5 -92t-73 -130t-26 -147zM905 565q0 55 -16 109l-496 -467q31 -18 68 -28.5t84 -10.5q80 0 146.5 35t113.5 90t73.5 126.5t26.5 145.5z" />
<glyph unicode="&#xf9;" d="M639 0l14 74q-18 -18 -50 -36t-68.5 -33t-78.5 -24.5t-83 -9.5q-135 0 -218 72t-83 207q0 41 7 81t13 72l131 613h215l-127 -592q-4 -23 -10 -56.5t-6 -56.5q0 -147 162 -147q41 0 78.5 11t69.5 27.5t55.5 35t37.5 34.5l158 744h215l-215 -1016h-217zM342 1372h279 l155 -248h-188z" />
<glyph unicode="&#xfa;" d="M639 0l14 74q-18 -18 -50 -36t-68.5 -33t-78.5 -24.5t-83 -9.5q-135 0 -218 72t-83 207q0 41 7 81t13 72l131 613h215l-127 -592q-4 -23 -10 -56.5t-6 -56.5q0 -147 162 -147q41 0 78.5 11t69.5 27.5t55.5 35t37.5 34.5l158 744h215l-215 -1016h-217zM750 1124h-201 l190 248h293z" />
<glyph unicode="&#xfb;" d="M963 1124h-177l-96 138l-145 -138h-195l225 248h250zM639 0l14 74q-18 -18 -50 -36t-68.5 -33t-78.5 -24.5t-83 -9.5q-135 0 -218 72t-83 207q0 41 7 81t13 72l131 613h215l-127 -592q-4 -23 -10 -56.5t-6 -56.5q0 -147 162 -147q41 0 78.5 11t69.5 27.5t55.5 35 t37.5 34.5l158 744h215l-215 -1016h-217z" />
<glyph unicode="&#xfc;" d="M639 0l14 74q-18 -18 -50 -36t-68.5 -33t-78.5 -24.5t-83 -9.5q-135 0 -218 72t-83 207q0 41 7 81t13 72l131 613h215l-127 -592q-4 -23 -10 -56.5t-6 -56.5q0 -147 162 -147q41 0 78.5 11t69.5 27.5t55.5 35t37.5 34.5l158 744h215l-215 -1016h-217zM352 1268 q0 53 36 88t87 35t87 -35t36 -88t-36 -88t-87 -35t-87 35t-36 88zM774 1268q0 53 36 88t87 35t87 -35t36 -88t-36 -88t-87 -35t-87 35t-36 88z" />
<glyph unicode="&#xfd;" horiz-adv-x="1105" d="M918 1016h235l-836 -1354h-219l246 401l-225 953h209l121 -561q10 -47 19 -98.5t15 -94.5h2q25 49 50.5 97.5t54.5 95.5zM696 1124h-200l190 248h293z" />
<glyph unicode="&#xfe;" horiz-adv-x="1226" d="M162 -338h-215l362 1710h215l-84 -399q12 8 36 21.5t55.5 23.5t71.5 18t85 8q86 0 167 -34.5t143.5 -97t100.5 -151.5t38 -196q0 -121 -45 -228.5t-123 -189t-185.5 -129t-230.5 -47.5q-106 0 -185 35t-120 70zM547 166q78 0 145.5 28.5t117.5 81t79 126t29 163.5 q0 59 -22 111.5t-59.5 90.5t-89 60.5t-108.5 22.5q-86 0 -146.5 -24.5t-95.5 -53.5l-108 -502q41 -47 105.5 -75.5t152.5 -28.5z" />
<glyph unicode="&#xff;" horiz-adv-x="1105" d="M918 1016h235l-836 -1354h-219l246 401l-225 953h209l121 -561q10 -47 19 -98.5t15 -94.5h2q25 49 50.5 97.5t54.5 95.5zM315 1268q0 53 36 88t87 35t87 -35t36 -88t-36 -88t-87 -35t-87 35t-36 88zM737 1268q0 53 36 88t87 35t87 -35t36 -88t-36 -88t-87 -35t-87 35 t-36 88z" />
<glyph unicode="&#x152;" horiz-adv-x="2279" d="M727 -37q-141 0 -258 47t-200 133t-128 205t-45 260q0 172 61.5 318.5t167 254t247 168t300.5 60.5q168 0 291 -65.5t197 -176.5l43 205h938l-41 -196h-713l-74 -351h672l-43 -196h-672l-92 -432h723l-41 -197h-907l35 170q-86 -98 -201 -152.5t-260 -54.5zM743 164 q125 0 227.5 50t175.5 134t112.5 192.5t39.5 223.5q0 96 -30.5 178t-86 141.5t-134 92t-175.5 32.5q-129 0 -231 -49t-173 -132t-107.5 -191.5t-36.5 -227.5q0 -92 31.5 -173t88 -141.5t133 -95t166.5 -34.5z" />
<glyph unicode="&#x153;" horiz-adv-x="1900" d="M647 1044q135 0 230.5 -54t148.5 -146q70 92 171 146t230 54q109 0 186 -37.5t125 -101t70.5 -143.5t22.5 -164q0 -39 -7 -88t-20 -90h-723q0 -70 28 -119t73 -80t99 -45t110 -14q43 0 88 7t86 20.5t75.5 32t59.5 38.5h14l-43 -205q-49 -39 -138 -61.5t-190 -22.5 q-129 0 -225 55.5t-151 153.5q-76 -96 -186.5 -152.5t-245.5 -56.5q-115 0 -204 39t-150.5 104.5t-93.5 151.5t-32 180q0 123 46 231.5t127 190.5t188.5 129t230.5 47zM274 446q0 -123 70 -200.5t201 -77.5q80 0 146.5 35t113.5 90t73.5 127t26.5 145q0 125 -69.5 205 t-200.5 80q-82 0 -148.5 -35t-113.5 -92t-73 -130t-26 -147zM1614 594q4 20 4 41q0 43 -13.5 84t-39 72.5t-64.5 50t-92 18.5q-115 0 -195.5 -72.5t-107.5 -193.5h508z" />
<glyph unicode="&#x178;" horiz-adv-x="1261" d="M459 1632q0 53 35.5 88t87.5 35q51 0 87 -34.5t36 -88.5q0 -53 -36 -88t-87 -35t-87 35t-36 88zM881 1632q0 53 35.5 88t87.5 35q51 0 86.5 -34.5t35.5 -88.5q0 -53 -35.5 -88t-86.5 -35t-87 35t-36 88zM1389 1352l-646 -734l-131 -618h-219l137 641l-348 711v20h215 l262 -557l476 557h254v-20z" />
<glyph unicode="&#x2c6;" horiz-adv-x="890" d="M881 1124h-176l-97 138l-145 -138h-195l226 248h249z" />
<glyph unicode="&#x2dc;" horiz-adv-x="913" d="M459 1241q-31 0 -51.5 -23.5t-28.5 -58.5l-143 25q18 88 73.5 147.5t151.5 59.5q45 0 78.5 -15.5t56.5 -32.5q25 -18 44 -32.5t52 -14.5q31 0 51.5 25t28.5 59l141 -24q-20 -98 -77.5 -152.5t-149.5 -54.5q-47 0 -82 13.5t-61 31.5q-18 16 -38.5 31.5t-45.5 15.5z" />
<glyph unicode="&#x2000;" horiz-adv-x="877" />
<glyph unicode="&#x2001;" horiz-adv-x="1755" />
<glyph unicode="&#x2002;" horiz-adv-x="877" />
<glyph unicode="&#x2003;" horiz-adv-x="1755" />
<glyph unicode="&#x2004;" horiz-adv-x="585" />
<glyph unicode="&#x2005;" horiz-adv-x="438" />
<glyph unicode="&#x2006;" horiz-adv-x="292" />
<glyph unicode="&#x2007;" horiz-adv-x="292" />
<glyph unicode="&#x2008;" horiz-adv-x="219" />
<glyph unicode="&#x2009;" horiz-adv-x="351" />
<glyph unicode="&#x200a;" horiz-adv-x="97" />
<glyph unicode="&#x2010;" horiz-adv-x="806" d="M94 434l39 189h553l-39 -189h-553z" />
<glyph unicode="&#x2011;" horiz-adv-x="806" d="M94 434l39 189h553l-39 -189h-553z" />
<glyph unicode="&#x2012;" horiz-adv-x="806" d="M94 434l39 189h553l-39 -189h-553z" />
<glyph unicode="&#x2013;" horiz-adv-x="1273" d="M133 623h1020l-39 -189h-1020z" />
<glyph unicode="&#x2014;" horiz-adv-x="1665" d="M94 434l39 189h1411l-39 -189h-1411z" />
<glyph unicode="&#x2018;" horiz-adv-x="542" d="M416 901h-254l305 471h151z" />
<glyph unicode="&#x2019;" horiz-adv-x="516" d="M377 1372h248l-306 -471h-145z" />
<glyph unicode="&#x201a;" horiz-adv-x="542" d="M98 246h248l-303 -471h-143z" />
<glyph unicode="&#x201c;" horiz-adv-x="931" d="M416 901h-254l305 471h151zM805 901h-254l305 471h152z" />
<glyph unicode="&#x201d;" horiz-adv-x="907" d="M625 1372l-306 -471h-145l203 471h248zM1016 1372l-305 -471h-146l203 471h248z" />
<glyph unicode="&#x201e;" horiz-adv-x="933" d="M98 246h248l-303 -471h-143zM489 246h248l-303 -471h-145z" />
<glyph unicode="&#x2022;" horiz-adv-x="876" d="M733 588q0 -61 -22.5 -115.5t-62.5 -94.5t-94 -63.5t-118 -23.5q-63 0 -117.5 23.5t-94.5 63.5t-62.5 94t-22.5 116q0 61 22.5 115.5t62.5 94.5t94.5 63.5t117.5 23.5t117.5 -23.5t94.5 -63.5t62.5 -94.5t22.5 -115.5z" />
<glyph unicode="&#x2026;" horiz-adv-x="1761" d="M16 121q0 66 44 107.5t106 41.5q61 0 105 -42t44 -107q0 -66 -44 -108t-105 -42t-105.5 42t-44.5 108zM639 121q0 66 44 107.5t105 41.5t105.5 -42t44.5 -107q0 -66 -44 -108t-106 -42q-61 0 -105 42t-44 108zM1262 121q0 66 44 107.5t105 41.5t105.5 -42t44.5 -107 q0 -66 -44 -108t-106 -42q-61 0 -105 42t-44 108z" />
<glyph unicode="&#x202f;" horiz-adv-x="351" />
<glyph unicode="&#x2030;" horiz-adv-x="2492" d="M432 776q53 0 92 33t63.5 81t37 103.5t12.5 102.5q0 66 -25.5 105.5t-81.5 39.5q-53 0 -92 -33.5t-63.5 -83t-36.5 -105.5t-12 -101q0 -63 25.5 -102.5t80.5 -39.5zM1233 -16q-123 0 -196.5 74.5t-73.5 195.5q0 82 25.5 169t75.5 157.5t126 116.5t174 46 q123 0 192.5 -73.5t69.5 -194.5q0 -82 -23.5 -169t-72.5 -158.5t-123 -117.5t-174 -46zM414 629q-123 0 -193.5 74.5t-70.5 195.5q0 82 25.5 169t75.5 157.5t125 117t173 46.5q123 0 193.5 -74t70.5 -195q0 -82 -24.5 -169t-74.5 -158.5t-125 -117.5t-175 -46zM1245 131 q53 0 92 33t63.5 81t37 103t12.5 103q0 66 -25.5 105.5t-81.5 39.5q-53 0 -92 -34t-63.5 -83t-36.5 -105.5t-12 -101.5q0 -63 25.5 -102t80.5 -39zM422 0h-189v14l1123 1358h190v-14zM1991 -16q-123 0 -197 74.5t-74 195.5q0 82 26 169t76 157.5t125.5 116.5t174.5 46 q123 0 192.5 -73.5t69.5 -194.5q0 -82 -23.5 -169t-73 -158.5t-123 -117.5t-173.5 -46zM2003 131q53 0 92 33t63.5 81t37 103t12.5 103q0 66 -25.5 105.5t-81.5 39.5q-53 0 -92 -34t-63.5 -83t-37 -105.5t-12.5 -101.5q0 -63 26 -102t81 -39z" />
<glyph unicode="&#x2039;" horiz-adv-x="673" d="M291 520l182 -397v-14h-201l-198 430l350 385h221v-15z" />
<glyph unicode="&#x203a;" horiz-adv-x="673" d="M352 512l-182 397v15h201l198 -430l-350 -385h-221v14z" />
<glyph unicode="&#x205f;" horiz-adv-x="438" />
<glyph unicode="&#x20ac;" horiz-adv-x="1265" d="M49 463l33 160h135q2 31 5 61.5t9 58.5h-122l32 160h133l7 12q41 106 107.5 196.5t154.5 156t196.5 103.5t237.5 38q100 0 189 -25.5t141 -64.5l-43 -207h-15q-51 47 -121.5 73.5t-158.5 26.5q-80 0 -148.5 -22.5t-126 -62.5t-101.5 -94t-77 -118l-6 -12h514l-33 -160 h-536q-10 -31 -13.5 -64.5t-3.5 -55.5h527l-33 -160h-490q12 -61 42 -115.5t75 -94.5t104.5 -62.5t133.5 -22.5q78 0 154.5 20.5t129.5 67.5h15l-45 -207q-25 -18 -60 -32.5t-73.5 -24.5t-79.5 -15.5t-76 -5.5q-123 0 -218 39t-163 106.5t-109 156.5t-53 190h-170z" />
<glyph unicode="&#x2122;" horiz-adv-x="1933" d="M369 541l143 680h-266l33 151h692l-33 -151h-266l-144 -680h-159zM1288 723l-90 487h-4q-4 -31 -10 -65q-4 -29 -11.5 -63.5t-13.5 -65.5l-100 -475h-158l176 831h246l88 -485l293 485h242l-177 -831h-157l100 475q6 31 14.5 65.5t16.5 63.5q8 35 18 65h-4l-293 -487 h-176z" />
<glyph unicode="&#x2190;" horiz-adv-x="1527" d="M123 528l430 430h252v-16l-326 -315h946v-197h-946l322 -315v-19h-248z" />
<glyph unicode="&#x2192;" horiz-adv-x="1527" d="M995 96h-247v19l321 315h-946v197h946l-326 315v16h252l430 -430z" />
<glyph unicode="&#x25fc;" horiz-adv-x="1013" d="M0 1014h1014v-1014h-1014v1014z" />
<glyph horiz-adv-x="1126" d="M821 827h-413l-177 -827h-215l293 1372h217l-75 -356h624l-215 -1016h-215z" />
<glyph horiz-adv-x="1667" d="M1362 827h-369l-176 -827h-215l176 827h-368l-177 -827h-215l215 1016h1383l-215 -1016h-215z" />
<glyph horiz-adv-x="1128" d="M821 827h-413l-175 -827h-215l215 1016h844l-215 -1016h-215z" />
<glyph d="M274 188h408l174 828h215l-215 -1016h-838l215 1016h216z" />
<glyph d="M963 1124h-177l-96 138l-145 -138h-195l225 248h250zM274 188h408l174 828h215l-215 -1016h-838l215 1016h216z" />
<glyph d="M342 1372h279l155 -248h-188zM274 188h408l174 828h215l-215 -1016h-838l215 1016h216z" />
<glyph d="M352 1268q0 53 36 88t87 35t87 -35t36 -88t-36 -88t-87 -35t-87 35t-36 88zM774 1268q0 53 36 88t87 35t87 -35t36 -88t-36 -88t-87 -35t-87 35t-36 88zM274 188h408l174 828h215l-215 -1016h-838l215 1016h216z" />
<glyph d="M750 1124h-201l190 248h293zM274 188h408l174 828h215l-215 -1016h-838l215 1016h216z" />
<glyph horiz-adv-x="1128" d="M596 1243q-31 0 -51.5 -23.5t-28.5 -58.5l-143 25q18 88 73.5 147.5t151.5 59.5q45 0 79 -15.5t56 -31.5q25 -18 44.5 -33t51.5 -15q31 0 51.5 25t28.5 59l142 -24q-20 -98 -78 -152.5t-150 -54.5q-47 0 -81.5 13.5t-61.5 31.5q-18 16 -38.5 31.5t-45.5 15.5zM821 827 h-413l-175 -827h-215l215 1016h844l-215 -1016h-215z" />
<glyph horiz-adv-x="817" d="M125 559l39 189h553l-39 -189h-553z" />
<glyph horiz-adv-x="1284" d="M164 748h1020l-39 -189h-1020z" />
<glyph horiz-adv-x="1675" d="M125 559l39 189h1411l-39 -189h-1411z" />
<glyph horiz-adv-x="817" d="M125 559l39 189h553l-39 -189h-553z" />
<glyph horiz-adv-x="1138" d="M332 662l182 -398v-14h-201l-198 430l350 385h221v-14zM774 662l182 -398v-14h-200l-199 430l350 385h221v-14z" />
<glyph horiz-adv-x="1136" d="M836 653l-183 398v14h201l199 -430l-351 -385h-221v14zM393 653l-182 398v14h201l198 -430l-350 -385h-221v14z" />
<glyph horiz-adv-x="696" d="M332 662l182 -398v-14h-201l-198 430l350 385h221v-14z" />
<glyph horiz-adv-x="694" d="M393 653l-182 398v14h201l198 -430l-350 -385h-221v14z" />
<glyph horiz-adv-x="708" d="M850 1530v-14q-121 -94 -223.5 -210t-177 -248t-117.5 -279.5t-43 -303.5q0 -82 18.5 -171t51 -175t76.5 -163t93 -132v-14h-211q-53 63 -95 144t-72.5 168t-47 175t-16.5 168q0 160 40 309.5t110.5 284.5t167 252t210.5 209h236z" />
<glyph horiz-adv-x="708" d="M-104 -180v14q119 94 222 210t178 248t118 278.5t43 303.5q0 82 -18.5 171.5t-51.5 175.5t-77 162.5t-93 132.5v14h211q51 -66 94 -145.5t74 -167t47 -175.5t16 -168q0 -164 -38.5 -313t-107.5 -282.5t-165 -249t-213 -209.5h-239z" />
<glyph horiz-adv-x="694" d="M485 -27l-32 -153h-428l362 1710h428l-33 -154h-223l-297 -1403h223z" />
<glyph horiz-adv-x="696" d="M-51 -27h223l297 1403h-223l33 154h430l-363 -1710h-430z" />
<glyph horiz-adv-x="647" d="M725 1370q-14 0 -31.5 1t-27.5 1q-39 0 -63.5 -9t-40 -29.5t-26 -53.5t-18.5 -78l-43 -205q-8 -41 -17 -79.5t-25.5 -72.5t-43.5 -61.5t-70 -44.5v-4q37 -20 50.5 -50t13.5 -71q0 -35 -5 -68.5t-13 -68.5l-72 -332q-4 -23 -9 -47t-5 -49q0 -27 17 -41t41.5 -21t52.5 -8.5 t48 -1.5l-32 -157h-115q-43 0 -85 6t-74 23.5t-51.5 49t-19.5 85.5q0 31 5.5 61.5t11.5 58.5l98 457q6 25 6 51q0 33 -14 54.5t-47 25.5l22 103q53 8 76 39.5t33 78.5l67 330q18 88 41 143.5t61 87t96 43t147 11.5h94z" />
<glyph horiz-adv-x="649" d="M391 672q-76 37 -76 119q0 37 5.5 72.5t13.5 70.5l57 268q4 23 10.5 48.5t6.5 49.5q0 25 -11.5 38.5t-30 20.5t-39 8t-38.5 1q-6 0 -21.5 1t-19.5 1l33 158h86q74 0 124 -9.5t78.5 -29t41 -51t12.5 -74.5q0 -31 -5.5 -61.5t-11.5 -59.5l-86 -416q-6 -25 -6 -51 q0 -66 61 -74l-22 -102q-53 -8 -75.5 -43t-33.5 -82l-79 -371q-18 -88 -38 -143t-54.5 -87t-90 -43t-143.5 -11h-115l33 157h78q66 0 89 41t42 127l57 269q12 57 24.5 98t31 69.5t45 49t67.5 37.5v4z" />
<glyph horiz-adv-x="583" d="M387 1530h209l-363 -1710h-208z" />
<glyph horiz-adv-x="1150" d="M727 641l272 -348l-155 -129l-275 350l-428 -350l-116 149l430 351l-275 346l158 129l272 -348l418 348l117 -150z" />
<glyph horiz-adv-x="1093" d="M559 166h-205l84 393h-370l38 189h371l84 393h205l-84 -393h371l-39 -189h-371z" />
<glyph horiz-adv-x="1075" d="M432 639l445 -303l-41 -191h-15l-739 500v14l956 502h15l-47 -213z" />
<glyph horiz-adv-x="1181" d="M1087 758h-921l39 188h921zM1001 362h-919l41 191h919z" />
<glyph horiz-adv-x="1079" d="M676 668l-445 305l39 188h15l739 -502v-14l-956 -500h-15l47 217z" />
<glyph horiz-adv-x="1187" d="M41 131l39 188h919l-38 -188h-920zM457 418l61 284h-356l39 189h356l61 285h205l-61 -285h358l-39 -189h-358l-61 -284h-205z" />
<glyph horiz-adv-x="1140" d="M745 369l82 381h-694l41 188h903l-123 -569h-209z" />
<glyph horiz-adv-x="1142" d="M133 748h944l-39 -189h-944zM518 1020q0 66 44 107.5t106 41.5q61 0 105 -42t44 -107q0 -66 -44 -108t-105 -42t-105.5 42t-44.5 108zM354 274q0 66 44 108t106 42q61 0 105 -42t44 -108t-44 -107.5t-105 -41.5t-105.5 41.5t-44.5 107.5z" />
<glyph horiz-adv-x="980" d="M10 174l527 358q66 45 99.5 87.5t33.5 101.5q0 51 -46 90t-122 39q-104 0 -191.5 -38t-136.5 -75h-20l45 213q25 14 60.5 31.5t78.5 31t91 22.5t97 9q90 0 159 -25.5t115 -68.5t69.5 -100t23.5 -123q0 -53 -23.5 -103.5t-64.5 -99.5t-97.5 -95t-121.5 -89l-252 -166v-2 q31 4 71.5 7t83.5 5t85 3t73 1h150l-39 -188h-783z" />
<glyph horiz-adv-x="1277" d="M80 508q0 115 41 213t113.5 170t172 112.5t214.5 40.5q117 0 216 -40.5t172.5 -113.5t114.5 -171t41 -211q0 -115 -41 -213t-114.5 -170t-173 -113t-215.5 -41q-115 0 -214.5 41t-172 113t-113.5 170t-41 213zM295 508q0 -72 24.5 -132.5t68.5 -104.5t103.5 -69.5 t129.5 -25.5t130 25.5t104 70.5t69.5 105.5t25.5 130.5t-25.5 130t-69.5 105t-104.5 71t-129.5 26q-70 0 -129.5 -26t-103.5 -71t-68.5 -105t-24.5 -130z" />
<glyph horiz-adv-x="1046" d="M551 553q63 -14 121.5 -49t102.5 -86t69.5 -119t25.5 -147q0 -119 -45 -215.5t-122.5 -164t-185 -103.5t-230.5 -36q-119 0 -219.5 35t-149.5 80l41 191h14q20 -20 55 -41t77 -36.5t88.5 -24.5t93.5 -9q78 0 144.5 23.5t114.5 65.5t75.5 101.5t27.5 133.5q0 51 -20.5 97 t-55 79.5t-84 53t-104.5 19.5q-57 0 -105.5 -14t-80.5 -37h-11l31 142l402 335h-478l41 189h774l-30 -144z" />
<glyph horiz-adv-x="1140" d="M-47 166l799 850h223l-174 -828h203l-41 -188h-203l-72 -338h-215l72 338h-627zM715 735q-119 -147 -240 -277t-250 -270h361q16 82 31.5 155t31 138.5t31.5 128t37 125.5h-2z" />
<glyph horiz-adv-x="1069" d="M299 545q100 59 213 59q66 0 136.5 -25.5t128 -80t94 -137t36.5 -197.5q0 -102 -41 -197.5t-116.5 -169t-183 -119t-238.5 -45.5q-59 0 -116.5 9.5t-109 25t-92.5 36t-67 44.5l41 195h14q25 -25 63.5 -46.5t85 -37t95.5 -23.5t92 -8q80 0 144.5 28.5t110.5 77t71.5 108.5 t25.5 122q0 61 -19.5 108t-52 80t-74.5 49.5t-87 16.5q-84 0 -146.5 -36t-103.5 -89h-162l154 723h786l-41 -189h-582z" />
<glyph horiz-adv-x="1173" d="M707 1372h233v-14l-260 -316q-41 -51 -69.5 -79.5l-53.5 -53.5q29 10 60.5 15.5t60.5 5.5q84 0 159.5 -34t132 -93.5t89.5 -139t33 -171.5q0 -111 -42 -205t-117 -165t-177.5 -111t-223.5 -40q-115 0 -203.5 38t-150 99.5t-93.5 142.5t-32 167q0 68 19.5 127t48.5 111.5 t63.5 96.5t65.5 81zM274 434q0 -61 21.5 -110.5t57.5 -84t84 -54t104 -19.5q76 0 137 26.5t104 71.5t65.5 104.5t22.5 123.5q0 53 -19.5 101t-53 84t-82.5 57.5t-107 21.5q-53 0 -105 -15.5t-93 -46.5q-61 -45 -98.5 -113.5t-37.5 -146.5z" />
<glyph horiz-adv-x="1007" d="M1098 1016l-908 -1354h-247l772 1165h-613l39 189h957z" />
<glyph horiz-adv-x="1165" d="M502 -29q-104 0 -187.5 31t-140.5 86t-88 130t-31 161q0 70 25.5 131t66.5 110.5t94.5 85t108.5 54.5q-31 16 -54.5 42.5t-39.5 59.5t-25.5 69t-9.5 68q0 76 35 148t98.5 128t149.5 91t190 35q88 0 164 -24.5t132.5 -72t88 -115t31.5 -153.5q0 -92 -59.5 -183 t-169.5 -142q63 -37 107 -119t44 -178t-41 -177t-112.5 -139.5t-167.5 -92.5t-209 -34zM520 168q61 0 114.5 17.5t92.5 49t61.5 77.5t22.5 106q0 92 -60.5 158.5t-172.5 66.5q-63 0 -117.5 -19.5t-95.5 -53t-65 -81t-24 -104.5q0 -96 69 -156.5t175 -60.5zM893 1034 q0 86 -59.5 131t-151.5 45q-51 0 -95 -17t-77 -45t-52.5 -66t-19.5 -76q0 -78 53.5 -132.5t141.5 -54.5q113 0 186.5 58.5t73.5 156.5z" />
<glyph horiz-adv-x="1148" d="M440 -338h-229v14l240 297q41 51 71.5 81t55.5 55q-29 -10 -64 -16.5t-63 -6.5q-80 0 -154 35t-131 94t-92 139t-35 170q0 106 43 201.5t118.5 166.5t176 111.5t217.5 40.5q115 0 205 -37.5t151.5 -99t94 -142.5t32.5 -167q0 -68 -19.5 -127t-48 -111.5t-63.5 -96.5 t-65 -81zM856 582q0 61 -21.5 110t-58.5 84t-87 54.5t-105 19.5q-72 0 -131.5 -26.5t-102.5 -71.5t-66.5 -104.5t-23.5 -123.5q0 -53 19.5 -101t54.5 -84t84 -57.5t108 -21.5q53 0 106.5 15.5t94.5 46.5q61 45 95 112.5t34 147.5z" />
<glyph horiz-adv-x="499" d="M18 0l215 1016h216l-216 -1016h-215zM258 1280q0 57 38 93t91 36t91 -36t38 -93t-38 -93t-91 -36t-91 36t-38 93z" />
<glyph horiz-adv-x="1167" d="M492 -29q-125 0 -207 45t-131.5 117t-70 160t-20.5 174q0 162 46.5 328t130.5 301t204.5 220t268.5 85q98 0 177 -35t134 -99.5t86 -155.5t31 -204q0 -160 -42 -325.5t-124 -302t-203.5 -222.5t-279.5 -86zM502 168q98 0 176 70.5t132 179t83 238.5t29 251 q0 133 -54.5 216t-165.5 83q-96 0 -173.5 -69.5t-132 -177t-84 -238.5t-29.5 -254q0 -57 14 -111.5t42 -95.5t69 -66.5t94 -25.5z" />
<glyph horiz-adv-x="1167" d="M66 164l544 504q41 39 85 81t80 88t59.5 94t23.5 101q0 86 -63.5 130t-159.5 44q-47 0 -99.5 -11t-100.5 -31.5t-91 -46t-72 -56.5h-14l45 225q33 27 76 48.5t91 35.5t95 22.5t90 8.5q197 0 311.5 -96.5t114.5 -266.5q0 -78 -31.5 -147.5t-78.5 -131t-101.5 -113.5 t-101.5 -95l-403 -363h585l-41 -188h-878z" />
<glyph horiz-adv-x="1167" d="M752 1184h-478l41 188h775l-31 -143l-395 -336q66 -12 126 -46t106 -85t73.5 -121t27.5 -152q0 -119 -45 -215t-122.5 -163.5t-185 -103.5t-230.5 -36q-119 0 -219.5 35t-149.5 80l41 190h14q20 -20 55 -40.5t77 -36t88.5 -24.5t93.5 -9q78 0 144.5 23.5t114.5 65.5 t75.5 101.5t27.5 132.5q0 51 -20.5 97.5t-55 80t-84 53t-104.5 19.5q-57 0 -105.5 -14t-80.5 -37h-11l35 160z" />
<glyph horiz-adv-x="1167" d="M784 1372h285l-195 -917h179l-41 -189h-178l-56 -266h-215l55 266h-624l37 170zM813 1139q-23 -33 -58.5 -84t-95.5 -123l-380 -477h380l103 473q18 80 30.5 124t22.5 87h-2z" />
<glyph horiz-adv-x="1167" d="M422 883q100 59 213 59q66 0 136.5 -25.5t127.5 -80t94 -137.5t37 -197q0 -102 -41 -197.5t-116.5 -169.5t-183 -119t-238.5 -45q-59 0 -117 9.5t-109 24.5t-92 35.5t-67 45.5l40 195h15q25 -25 63.5 -46.5t84.5 -37t95.5 -23.5t92.5 -8q80 0 144.5 28.5t110.5 76.5 t71.5 108.5t25.5 122.5q0 61 -19.5 108t-52 80t-74.5 49.5t-88 16.5q-84 0 -146 -36t-103 -89h-162l158 741h770l-41 -188h-566z" />
<glyph horiz-adv-x="1167" d="M702 1372h234v-14l-260 -316q-41 -51 -69.5 -79.5l-53.5 -53.5q29 10 60.5 15.5t60.5 5.5q84 0 159.5 -34t132 -93.5t89 -139t32.5 -171.5q0 -111 -41.5 -205t-116.5 -165t-177.5 -111t-223.5 -40q-115 0 -203.5 38t-150 99.5t-93.5 142.5t-32 167q0 68 19.5 127 t48 111.5t63.5 96.5t66 81zM270 434q0 -61 21.5 -110.5t57.5 -84t84 -54t104 -19.5q76 0 137 26.5t104 71.5t65.5 104.5t22.5 123.5q0 53 -19.5 101t-53 84t-82.5 57.5t-107 21.5q-53 0 -105.5 -15.5t-92.5 -46.5q-61 -45 -98.5 -113.5t-37.5 -146.5z" />
<glyph horiz-adv-x="1167" d="M1255 1372l-919 -1372h-248l784 1184h-612l39 188h956z" />
<glyph horiz-adv-x="1167" d="M502 -29q-104 0 -187.5 31t-140.5 86t-88 130t-31 161q0 70 25.5 131t66.5 110.5t94.5 85t108.5 54.5q-31 16 -54.5 42.5t-39.5 59.5t-25.5 69t-9.5 68q0 76 35 148t98.5 128t149.5 91t190 35q88 0 164 -24.5t132.5 -72t88 -115t31.5 -153.5q0 -92 -59.5 -183 t-169.5 -142q63 -37 107 -119t44 -178t-41 -177t-112.5 -139.5t-167.5 -92.5t-209 -34zM520 168q61 0 114.5 17.5t92.5 49t61.5 77.5t22.5 106q0 92 -60.5 158.5t-172.5 66.5q-63 0 -117.5 -19.5t-95.5 -53t-65 -81t-24 -104.5q0 -96 69 -156.5t175 -60.5zM893 1034 q0 86 -59.5 131t-151.5 45q-51 0 -95 -17t-77 -45t-52.5 -66t-19.5 -76q0 -78 53.5 -132.5t141.5 -54.5q113 0 186.5 58.5t73.5 156.5z" />
<glyph horiz-adv-x="1167" d="M504 0h-230v14l256 316q41 51 72 80.5t55 54.5q-29 -10 -63.5 -16.5t-63.5 -6.5q-80 0 -153.5 35t-131 94.5t-92 139.5t-34.5 170q0 106 43 201.5t118.5 166t176 111.5t217.5 41q115 0 205 -38t151.5 -99.5t94 -142.5t32.5 -167q0 -68 -19.5 -127t-48 -111t-63.5 -96.5 t-65 -80.5zM936 938q0 61 -21.5 110.5t-58.5 84t-87 54t-105 19.5q-72 0 -131.5 -26.5t-102.5 -71.5t-66.5 -104.5t-23.5 -122.5q0 -53 19.5 -101.5t54.5 -84.5t84 -57.5t108 -21.5q53 0 106.5 15.5t94.5 46.5q61 45 95 112.5t34 147.5z" />
<glyph horiz-adv-x="1062" d="M682 375h-571l661 801h-557l41 196h915l-667 -813h217zM209 113q0 61 42 101t99 40t99.5 -40t42.5 -101t-42 -101.5t-100 -40.5q-57 0 -99 40.5t-42 101.5z" />
<glyph horiz-adv-x="1296" d="M889 96q-86 -74 -178.5 -103.5t-184.5 -29.5q-106 0 -192 34t-147.5 93.5t-94.5 139t-33 171.5t36 175t96.5 149t141.5 111t173 65l-213 471h776l-41 -196h-412l250 -566q16 -39 35 -84t33 -86h2q29 59 40 126t19 139h187q-4 -123 -40 -239t-102 -206l123 -260h-227z M281 410q0 -51 20.5 -96.5t56 -79t81.5 -54t98 -20.5q70 0 138 25.5t122 74.5l-215 471q-139 -27 -220 -110.5t-81 -210.5z" />
<glyph horiz-adv-x="2162" d="M1587 -2q-43 0 -90 11t-90 34t-78 55.5t-53 75.5q-45 -49 -117 -85t-176 -36q-90 0 -158.5 38t-115.5 94.5t-71 124t-24 128.5q0 113 42 213.5t114 175t170 117.5t209 43q72 0 132 -24.5t95 -59.5l13 64h200l-129 -602q-4 -16 -4 -25.5v-20.5q0 -59 40 -90.5t106 -35.5 q84 0 128 59t44 188v723h-1323v-1292h1009v-188h-1218v1669h1740v-899q0 -219 -98 -337t-297 -118zM1337 723q-25 27 -71.5 52.5t-112.5 25.5q-74 0 -133 -30t-100 -77t-63.5 -108.5t-22.5 -122.5q0 -96 54 -159.5t163 -63.5q61 0 117.5 29.5t86.5 66.5z" />
<glyph horiz-adv-x="712" d="M205 1372h479l-291 -1372h-215l250 1184h-264z" />
<glyph horiz-adv-x="1376" d="M858 1409q86 0 156.5 -16.5t126 -39t95.5 -50t64 -48.5l-47 -200h-14q-25 27 -63.5 55.5t-88 50t-107.5 35.5t-122 14q-119 0 -217 -48t-168 -130t-108.5 -191.5t-38.5 -232.5q0 -102 33.5 -184t92 -139.5t136.5 -89t168 -31.5q92 0 159.5 16.5t90.5 32.5l73 342h-553 l41 193h760l-139 -658q-29 -23 -75 -45t-104.5 -40.5t-128 -30t-147.5 -11.5q-121 0 -234.5 43t-202.5 126t-143.5 203t-54.5 273q0 174 60.5 321.5t164 254t241.5 166t294 59.5z" />
<glyph horiz-adv-x="813" d="M-82 0l41 197h383l250 1175h219l-291 -1372h-602z" />
<glyph horiz-adv-x="1265" d="M1118 1372h256v-14l-680 -719l480 -625v-14h-240l-528 686l-144 -686h-219l291 1372h219l-94 -442l110 -139z" />
<glyph horiz-adv-x="1576" d="M930 -12q-47 -14 -93 -19.5t-98 -5.5q-141 0 -259 47t-204 133t-133 205t-47 260q0 172 62.5 318.5t170 254t251 168t303.5 60.5q143 0 261 -47t202 -133t130 -205t46 -260q0 -115 -29 -219.5t-80 -192.5t-121.5 -159.5t-156.5 -122.5l258 -394v-14h-258zM739 164 q127 0 229.5 50t175.5 134t111.5 192.5t38.5 223.5q0 94 -29.5 175t-84 141.5t-131 94t-170.5 33.5q-127 0 -229.5 -49t-175.5 -132t-111.5 -191.5t-38.5 -227.5q0 -92 31.5 -173t88 -141.5t132 -95t163.5 -34.5z" />
<glyph horiz-adv-x="1249" d="M467 954l188 -264q72 0 134.5 21.5t107.5 59.5t70.5 89t25.5 111q0 102 -64.5 153.5t-180.5 51.5h-236zM262 0h-219l291 1372h426q117 0 203 -30.5t142 -85t84 -128t28 -157.5q0 -104 -41 -183t-103.5 -135.5t-140.5 -89.5t-152 -43l355 -506v-14h-244l-479 702z" />
<glyph horiz-adv-x="1120" d="M709 1212q-141 0 -234.5 -65.5t-124.5 -185.5q98 43 207 43q78 0 161 -31t152.5 -92.5t113.5 -152.5t44 -210q0 -113 -42 -214t-117.5 -177t-182 -121t-233.5 -45q-63 0 -122 13.5t-106 33t-83 41t-54 39.5l41 201h14q18 -20 48 -43t70 -42.5t89 -32.5t103 -13 q141 0 235 65.5t125 184.5q-47 -23 -98 -32t-105 -9q-78 0 -161.5 30.5t-152.5 92t-114 152.5t-45 210q0 113 41 214t117 177t181.5 121t232.5 45q63 0 120.5 -13.5t103.5 -31.5t81 -41t53 -41l-43 -199h-14q-41 47 -118 88t-183 41zM647 553q49 0 93 11t79 28 q-23 104 -102.5 162.5t-196.5 58.5q-51 0 -95 -11t-79 -28q23 -104 103.5 -162.5t197.5 -58.5z" />
<glyph horiz-adv-x="1339" d="M334 1372h219l-250 -1175h565l250 1175h219l-290 -1372h-1004z" />
<glyph horiz-adv-x="1073" d="M823 788q-29 29 -85 49.5t-117 20.5t-116.5 -21.5t-99 -57.5t-73 -84t-41.5 -101h489zM543 -29q-113 0 -203 37t-152.5 102.5t-96.5 153.5t-34 191q0 121 45 228.5t123 187t181.5 126.5t218.5 47q74 0 137 -16t115.5 -43t91.5 -58.5t63 -62.5l-94 -444h-672 q4 -121 90 -189.5t226 -68.5q45 0 91 9t86 23.5t72.5 32t51.5 33.5h14l-43 -207q-47 -35 -132 -58.5t-179 -23.5z" />
<glyph horiz-adv-x="745" d="M834 1372l-37 -174h-234l-39 -182h279l-37 -174h-279l-178 -842h-215l178 842h-186l37 174h186l76 356h449z" />
<glyph horiz-adv-x="1204" d="M879 741q-41 45 -103.5 77t-138.5 32q-72 0 -135.5 -26.5t-111.5 -75t-76.5 -115t-28.5 -148.5q0 -61 20.5 -107t55 -79t78.5 -49.5t93 -16.5q98 0 165 33t94 58zM748 119q-27 -25 -96.5 -53.5t-168.5 -28.5q-84 0 -160.5 31.5t-134 90t-91.5 141.5t-34 185 q0 113 45.5 214.5t122 178t179 121.5t217.5 45q72 0 127 -15t93 -36.5t61.5 -42t31.5 -30.5l21 96h192l-289 -1354h-874l41 188h659z" />
<glyph horiz-adv-x="499" d="M-291 -338l37 174h236l251 1180h216l-289 -1354h-451zM254 1280q0 57 38 93t91 36t91 -36t38 -93t-38 -93t-91 -36t-91 36t-38 93z" />
<glyph horiz-adv-x="720" d="M233 0h-215l215 1016h543l-41 -189h-327z" />
<glyph horiz-adv-x="798" d="M813 1016l-37 -174h-256l-139 -654h246l-39 -188h-461l178 842h-221l37 174h221l57 266h215l-57 -266h256z" />
<glyph horiz-adv-x="1689" d="M1159 -29q-135 0 -229 50.5t-152 138.5q-59 -74 -161.5 -131.5t-256.5 -57.5q-166 0 -259 84t-93 224q0 76 34 142t95.5 115.5t145.5 78t182 28.5q35 0 72.5 -4t71.5 -10t59.5 -12.5t36.5 -10.5l12 58q4 16 6 30.5t2 26.5q0 57 -44 96t-155 39q-90 0 -176 -25.5 t-133 -60.5h-14l43 205q16 10 50 22.5t77 22.5t91 17t95 7q133 0 211 -40.5t117 -100.5q72 66 161 103.5t193 37.5q74 0 137.5 -16t115.5 -43t91 -58.5t64 -62.5l-95 -444h-671q4 -121 90 -189.5t225 -68.5q45 0 91 9t86 23.5t73 32t51 33.5h14l-43 -207q-47 -35 -132 -58.5 t-179 -23.5zM487 479q-121 0 -191.5 -55t-70.5 -139q0 -63 49.5 -99t118.5 -36q70 0 133.5 25.5t102.5 70.5l45 207q-16 8 -67.5 17t-119.5 9zM1440 788q-29 29 -85.5 49.5t-117.5 20.5t-116.5 -21.5t-98.5 -57.5t-72.5 -84t-42.5 -101h490z" />
<glyph horiz-adv-x="1073" d="M823 788q-29 29 -85 49.5t-117 20.5t-116.5 -21.5t-99 -57.5t-73 -84t-41.5 -101h489zM543 -29q-113 0 -203 37t-152.5 102.5t-96.5 153.5t-34 191q0 121 45 228.5t123 187t181.5 126.5t218.5 47q74 0 137 -16t115.5 -43t91.5 -58.5t63 -62.5l-94 -444h-672 q4 -121 90 -189.5t226 -68.5q45 0 91 9t86 23.5t72.5 32t51.5 33.5h14l-43 -207q-47 -35 -132 -58.5t-179 -23.5zM745 1124h-200l190 248h293z" />
<glyph horiz-adv-x="1073" d="M823 788q-29 29 -85 49.5t-117 20.5t-116.5 -21.5t-99 -57.5t-73 -84t-41.5 -101h489zM543 -29q-113 0 -203 37t-152.5 102.5t-96.5 153.5t-34 191q0 121 45 228.5t123 187t181.5 126.5t218.5 47q74 0 137 -16t115.5 -43t91.5 -58.5t63 -62.5l-94 -444h-672 q4 -121 90 -189.5t226 -68.5q45 0 91 9t86 23.5t72.5 32t51.5 33.5h14l-43 -207q-47 -35 -132 -58.5t-179 -23.5zM958 1124h-176l-96 138l-145 -138h-195l225 248h250z" />
<glyph horiz-adv-x="1073" d="M823 788q-29 29 -85 49.5t-117 20.5t-116.5 -21.5t-99 -57.5t-73 -84t-41.5 -101h489zM543 -29q-113 0 -203 37t-152.5 102.5t-96.5 153.5t-34 191q0 121 45 228.5t123 187t181.5 126.5t218.5 47q74 0 137 -16t115.5 -43t91.5 -58.5t63 -62.5l-94 -444h-672 q4 -121 90 -189.5t226 -68.5q45 0 91 9t86 23.5t72.5 32t51.5 33.5h14l-43 -207q-47 -35 -132 -58.5t-179 -23.5zM332 1268q0 53 35.5 88t87.5 35q51 0 87 -35t36 -88t-36 -88t-87 -35t-87 35t-36 88zM754 1268q0 53 35.5 88t87.5 35q51 0 86.5 -35t35.5 -88t-35.5 -88 t-86.5 -35t-87 35t-36 88z" />
<glyph horiz-adv-x="1073" d="M823 788q-29 29 -85 49.5t-117 20.5t-116.5 -21.5t-99 -57.5t-73 -84t-41.5 -101h489zM543 -29q-113 0 -203 37t-152.5 102.5t-96.5 153.5t-34 191q0 121 45 228.5t123 187t181.5 126.5t218.5 47q74 0 137 -16t115.5 -43t91.5 -58.5t63 -62.5l-94 -444h-672 q4 -121 90 -189.5t226 -68.5q45 0 91 9t86 23.5t72.5 32t51.5 33.5h14l-43 -207q-47 -35 -132 -58.5t-179 -23.5zM346 1372h279l155 -248h-188z" />
<glyph horiz-adv-x="1888" d="M1358 -29q-141 0 -239.5 55.5t-153.5 151.5q-76 -94 -185.5 -150.5t-244.5 -56.5q-115 0 -204 39t-150.5 104.5t-93.5 151.5t-32 180q0 123 46 231.5t127 190.5t188.5 129t230.5 47q135 0 231.5 -56t149.5 -148q72 94 178.5 149t233.5 55q74 0 137 -16t115.5 -43 t91.5 -58.5t63 -62.5l-94 -444h-672q4 -121 90 -189.5t226 -68.5q45 0 91 9t86 23.5t72.5 32t51.5 33.5h14l-43 -207q-47 -35 -132 -58.5t-179 -23.5zM274 446q0 -123 70 -200.5t201 -77.5q80 0 146.5 35t113.5 90t73.5 127t26.5 145q0 125 -69.5 205t-200.5 80 q-82 0 -148.5 -35t-113.5 -92t-73 -130t-26 -147zM1638 788q-29 29 -85 49.5t-117 20.5t-116.5 -21.5t-98.5 -57.5t-73 -84t-42 -101h489z" />
<glyph horiz-adv-x="1339" d="M334 1372h219l-250 -1175h565l250 1175h219l-290 -1372h-1004zM905 1489h-200l190 248h293z" />
<glyph horiz-adv-x="1339" d="M334 1372h219l-250 -1175h565l250 1175h219l-290 -1372h-1004zM1149 1489h-176l-96 137l-146 -137h-194l225 248h250z" />
<glyph horiz-adv-x="1339" d="M334 1372h219l-250 -1175h565l250 1175h219l-290 -1372h-1004zM522 1737h279l155 -248h-188z" />
<glyph horiz-adv-x="1339" d="M526 1632q0 53 36 88t87 35t87 -34.5t36 -88.5q0 -53 -36 -88t-87 -35t-87 35t-36 88zM948 1632q0 53 36 88t87 35t87 -34.5t36 -88.5q0 -53 -36 -88t-87 -35t-87 35t-36 88zM334 1372h219l-250 -1175h565l250 1175h219l-290 -1372h-1004z" />
<glyph horiz-adv-x="1245" d="M834 1372l-37 -174h-234l-39 -182h279l-37 -174h-279l-178 -842h-215l178 842h-186l37 174h186l76 356h449zM764 0l215 1016h215l-215 -1016h-215zM1004 1280q0 57 37.5 93t91.5 36q53 0 91 -36t38 -93t-38 -93t-91 -36t-91 36t-38 93z" />
<glyph horiz-adv-x="1255" d="M834 1372l-37 -174h-234l-39 -182h279l-37 -174h-279l-178 -842h-215l178 842h-186l37 174h186l76 356h449zM768 0l291 1372h215l-291 -1372h-215z" />
<glyph horiz-adv-x="1134" d="M715 1212q-141 0 -234.5 -65.5t-124.5 -185.5q98 43 207 43q78 0 161 -31t152.5 -92.5t113.5 -152.5t44 -210q0 -100 -33.5 -191t-95 -165t-148.5 -123t-192 -68l-37 -184h-204l38 182q-96 16 -167.5 53t-100.5 66l41 201h15q18 -20 47.5 -43t69.5 -42.5t89.5 -32.5 t102.5 -13q141 0 235 65.5t125 184.5q-47 -23 -98 -32t-105 -9q-78 0 -161.5 30.5t-152.5 92t-114 152.5t-45 210q0 100 34 192.5t95.5 166t148.5 123.5t193 67l37 176h205l-39 -178q92 -16 158.5 -52t97.5 -65l-43 -199h-14q-41 47 -118 88t-183 41zM653 553q49 0 93.5 11 t78.5 28q-23 104 -102.5 162.5t-196.5 58.5q-51 0 -95 -11t-79 -28q23 -104 103.5 -162.5t197.5 -58.5z" />
<glyph horiz-adv-x="1255" d="M1257 815l-571 -815h-225l432 627h-373l363 557h-398l-252 -1184h-215l291 1372h938l-383 -557h393z" />
<glyph horiz-adv-x="1853" d="M1632 0h-1370v1372h1370v-1372zM1473 1221h-1051v-1069h1051v1069zM1124 268l-213 318h-98v-318h-160v832h348q70 0 123.5 -21.5t88 -57.5t52 -83t17.5 -98q0 -41 -14.5 -80t-42 -71t-65.5 -54.5t-83 -30.5l230 -325v-11h-183zM813 733h158q82 0 115.5 30t33.5 77 t-32.5 77.5t-118.5 30.5h-156v-215z" />
<glyph horiz-adv-x="1853" d="M1249 498v-174q-47 -35 -109.5 -52.5t-127.5 -17.5q-94 0 -175 31.5t-141.5 88t-94.5 135.5t-34 175q0 94 34 174t93.5 137.5t140 89t177.5 31.5q57 0 120.5 -16.5t112.5 -48.5v-170h-12q-41 41 -103.5 61.5t-115.5 20.5q-66 0 -117 -21.5t-87 -58.5t-55.5 -88.5 t-19.5 -110.5t21.5 -109.5t58.5 -87t87 -57t110 -20.5q66 0 129 25.5t98 62.5h10zM1632 0h-1370v1372h1370v-1372zM1473 1221h-1051v-1069h1051v1069z" />
<glyph horiz-adv-x="1069" d="M344 641h571l-647 -782h557l-41 -197h-915l653 795h-217zM817 903q0 -61 -42 -101t-99 -40t-99 40t-42 101t41.5 101t99.5 40q57 0 99 -40t42 -101z" />
<glyph horiz-adv-x="524" d="M225 1372h326l-162 -764h-153l133 627h-172z" />
<glyph horiz-adv-x="1546" d="M821 248l404 516h186l-106 -498h98l-27 -131h-98l-29 -135h-149l28 135h-331zM1190 418q10 41 17 69.5t12.5 50t10.5 40t11 40.5h-2q-12 -20 -22.5 -36.5t-24.5 -37t-34.5 -50t-55.5 -74.5l-115 -154h170zM229 1372h326l-162 -764h-153l133 627h-172zM309 0h-170v10 l1102 1362h172v-10z" />
<glyph horiz-adv-x="1595" d="M907 119l318 284q2 4 3 4.5t3 2.5q43 39 77.5 79.5t34.5 88.5q0 29 -29.5 55t-88.5 26q-33 0 -64 -8t-57.5 -20.5t-47 -26.5t-32.5 -26h-12l30 151q23 18 80.5 41t122.5 23q129 0 190.5 -59.5t61.5 -147.5q0 -66 -39 -124.5t-98 -111.5l-166 -147q-10 -10 -24.5 -21.5 t-28.5 -23.5q-16 -14 -33 -29q27 2 42 2h46h217l-29 -131h-501zM229 1372h326l-162 -764h-153l133 627h-172zM313 0h-170v10l1102 1362h172v-10z" />
<glyph horiz-adv-x="1961" d="M1212 840q-25 27 -71.5 52.5t-112.5 25.5q-74 0 -133 -29t-100 -77t-63.5 -108.5t-22.5 -121.5q0 -96 54 -161t163 -65q61 0 109 25t95 72zM1389 47l-50 -233q-59 -25 -145 -44.5t-197 -19.5q-195 0 -358.5 67.5t-282 185.5t-185.5 277.5t-67 342.5q0 184 64.5 347 t184.5 285.5t291 194.5t382 72q197 0 355.5 -74t270 -191.5t172 -264t60.5 -294.5q0 -127 -40 -229t-105.5 -176t-148.5 -114t-167 -40q-80 0 -156.5 37t-115.5 113q-53 -55 -129 -87t-164 -32q-90 0 -158.5 37t-115.5 94t-71 124t-24 128q0 115 42 215t114 175t170 118 t209 43q72 0 132.5 -24.5t94.5 -59.5l13 63h200l-129 -604q-4 -12 -4 -22.5v-20.5q0 -41 33 -71.5t76 -30.5t86 27.5t76.5 75.5t55 113.5t21.5 143.5q0 125 -50 240t-138 202t-208 139t-261 52q-150 0 -279 -54t-223 -148.5t-147.5 -222.5t-53.5 -275q0 -145 54.5 -270.5 t146.5 -216.5t216 -143t263 -52q121 0 221.5 30.5t153.5 71.5h15z" />
<glyph horiz-adv-x="1167" d="M369 1176l354 196h166l-252 -1182h266l-39 -190h-743l39 190h264l197 928l-285 -157h-14z" />
<glyph horiz-adv-x="727" d="M113 821l352 195h172l-217 -1016h-217l162 764l-277 -154h-20z" />
</font>
</defs>
</svg>
