<?xml version="1.0" standalone="no"?>
<!DOCTYPE svg PUBLIC "-//W3C//DTD SVG 20010904//EN"
 "http://www.w3.org/TR/2001/REC-SVG-20010904/DTD/svg10.dtd">
<svg version="1.0" xmlns="http://www.w3.org/2000/svg"
 width="600.000000pt" height="600.000000pt" viewBox="0 0 600.000000 600.000000"
 preserveAspectRatio="xMidYMid meet">
<metadata>
Created by potrace 1.14, written by Peter Selinger 2001-2017
</metadata>
<g transform="translate(0.000000,600.000000) scale(0.100000,-0.100000)"
fill="#000000" stroke="none">
<path d="M1390 3150 l0 -2010 400 0 400 0 1 23 c0 12 0 406 1 875 0 742 4 887
20 843 2 -5 48 -58 103 -117 115 -125 191 -207 256 -279 25 -27 75 -81 110
-120 68 -74 131 -143 164 -179 11 -12 61 -66 110 -120 50 -54 99 -108 110
-120 11 -12 59 -65 107 -117 48 -52 96 -105 108 -119 11 -13 47 -52 78 -85 31
-34 81 -88 111 -121 30 -32 79 -86 110 -120 31 -33 94 -102 140 -152 l84 -92
469 0 468 0 0 31 c0 30 -4 35 -145 184 -16 17 -77 82 -135 144 -130 140 -128
138 -276 296 -67 72 -136 146 -154 165 -18 19 -87 94 -154 165 -68 72 -145
154 -172 184 -27 29 -71 77 -99 106 -27 29 -102 108 -165 176 -148 158 -220
235 -313 334 -42 45 -72 84 -68 90 32 42 473 625 579 765 72 96 198 263 279
370 81 107 153 202 160 210 6 8 65 85 129 170 64 85 187 247 272 359 114 150
156 213 159 238 l3 33 -434 0 -434 0 -114 -152 c-64 -84 -207 -274 -319 -423
-113 -148 -301 -398 -419 -555 -118 -157 -217 -287 -220 -290 -3 -3 -37 -47
-74 -97 -38 -51 -71 -93 -75 -93 -6 0 -176 177 -303 316 l-56 62 0 613 1 614
-402 3 -401 2 0 -2010z"/>
</g>
</svg>
