<?xml version="1.0" encoding="UTF-8" standalone="no"?>
<!DOCTYPE svg PUBLIC "-//W3C//DTD SVG 1.1//EN"
"http://www.w3.org/Graphics/SVG/1.1/DTD/svg11.dtd">
<svg viewBox="0 0 606 909" version="1.1" xmlns="http://www.w3.org/2000/svg" xmlns:xlink="http://www.w3.org/1999/xlink">
<defs>
<clipPath id="c0_3"><path d="M319.2,520.7V184.6H574.9V520.7Z"/></clipPath>
<style type="text/css"><![CDATA[
.g0_3{
fill: #FFF;
}
.g1_3{
fill: none;
stroke: #000;
stroke-width: 7.003;
stroke-miterlimit: 10;
}
.g2_3{
fill: none;
stroke: #000;
stroke-width: 0.933;
stroke-miterlimit: 10;
}
.g3_3{
fill: #000;
}
.g4_3{
fill: none;
stroke: #000;
stroke-width: 1.443;
stroke-miterlimit: 2;
}
.g5_3{
fill: #1C1C1C;
}
]]></style>
</defs>
<path d="M319.2,574.2H576V529.9H319.2v44.3Z" class="g0_3"/>
<path d="M162.7,138.7h27.2v18h72V763.6H42V207l120.5,-.9l.2,-67.4Z" class="g1_3"/>
<path d="M39.9,508.4l64,-24.8l12.5,31.1H259.6M39.8,501.9l67.3,-25.2l13,33H242.2M39.8,496.7l70.5,-26.5l13.4,34.6H242.2M39.9,491.3l73,-27.5l14.2,35.9H242.2M39.8,485.5l76.3,-28.7l14.5,37.8H242.2M39.9,480.6l79,-29.7L134,489.8H242.2v51.3h18.7" class="g2_3"/>
<path d="M147.7,660.7c-2.3,0,-4.2,-1.9,-4.2,-4.2c0,-2.3,1.9,-4.2,4.2,-4.2c2.4,0,4.2,1.9,4.2,4.2c0,2.3,-1.8,4.2,-4.2,4.2Z" class="g0_3"/>
<path d="M110.1,410.6c-2.3,0,-4.2,-1.9,-4.2,-4.2c0,-2.3,1.9,-4.2,4.2,-4.2c2.3,0,4.2,1.9,4.2,4.2c0,2.3,-1.9,4.2,-4.2,4.2Z" class="g0_3"/>
<path d="M189.5,410.6c-2.3,0,-4.2,-1.9,-4.2,-4.2c0,-2.3,1.9,-4.2,4.2,-4.2c2.3,0,4.2,1.9,4.2,4.2c0,2.3,-1.9,4.2,-4.2,4.2Z" class="g0_3"/>
<path d="M190.5,487.4c-2.4,0,-4.2,-1.9,-4.2,-4.2c0,-2.4,1.8,-4.2,4.2,-4.2c2.3,0,4.2,1.8,4.2,4.2c0,2.3,-1.9,4.2,-4.2,4.2Z" class="g0_3"/>
<path d="M110.1,326.7c-2.3,0,-4.2,-1.8,-4.2,-4.2c0,-2.3,1.9,-4.2,4.2,-4.2c2.3,0,4.2,1.9,4.2,4.2c0,2.4,-1.9,4.2,-4.2,4.2Z" class="g0_3"/>
<path d="M190.5,326.7c-2.4,0,-4.2,-1.8,-4.2,-4.2c0,-2.3,1.8,-4.2,4.2,-4.2c2.3,0,4.2,1.9,4.2,4.2c0,2.4,-1.9,4.2,-4.2,4.2Z" class="g0_3"/>
<path d="M110.1,242.9c-2.3,0,-4.2,-1.9,-4.2,-4.2c0,-2.3,1.9,-4.2,4.2,-4.2c2.3,0,4.2,1.9,4.2,4.2c0,2.3,-1.9,4.2,-4.2,4.2Z" class="g0_3"/>
<path d="M190.5,242.9c-2.4,0,-4.2,-1.9,-4.2,-4.2c0,-2.3,1.8,-4.2,4.2,-4.2c2.3,0,4.2,1.9,4.2,4.2c0,2.3,-1.9,4.2,-4.2,4.2Z" class="g0_3"/>
<path d="M150.3,485H139.2v-6h11.1v6Z" class="g0_3"/>
<path d="M165.2,542.7c0,3.5,-2.8,6.3,-6.3,6.3H136.6c-3.5,0,-6.3,-2.8,-6.3,-6.3c0,-3.5,2.8,-6.3,6.3,-6.3h22.3c3.5,0,6.3,2.8,6.3,6.3Z" class="g0_3"/>
<path d="M221.5,206.1h-59V187.5h59v18.6Z" class="g3_3"/>
<path d="M221.5,206.1h-59V187.5h59Z" class="g1_3"/>
<path d="M171.1,183.9H153.6V142.2h17.5v41.7Z" class="g0_3"/>
<path d="M98.5,366.7h25.7m81.7,-12.4H98.7M234.6,242.9v82.7M92.1,215.5H205.9M63.4,378V244.1M50.9,353.7V378m12.5,0c0,3.5,-2.8,6.3,-6.2,6.3c-3.5,0,-6.3,-2.8,-6.3,-6.3M98.7,366.7c-3.5,0,-6.2,-2.8,-6.2,-6.2c0,-3.4,2.7,-6.2,6.2,-6.2M63.4,244.2c0,-15.9,12.8,-28.7,28.7,-28.7m113.8,0c15.8,0,28.7,12.8,28.7,28.7m0,81.4c0,15.8,-12.9,28.7,-28.7,28.7m0,-107.3H90.2v-1.9H205.9Zm47.8,339.4h1.9V702.1h-1.9ZM130.1,307.3h-7.9v-7.9h7.9Zm7.9,0h-7.9v-7.9H138Zm7.9,0H138v-7.9h7.9Zm7.9,0h-7.9v-7.9h7.9Zm7.8,0h-7.8v-7.9h7.8Zm7.9,0h-7.9v-7.9h7.9Zm7.9,0h-7.9v-7.9h7.9ZM138,326.2h-7.9v-7.9H138Zm7.9,0H138v-7.9h7.9Zm7.9,0h-7.9v-7.9h7.9Zm7.8,0h-7.8v-7.9h7.8Zm7.9,0h-7.9v-7.9h7.9Zm-36.8,79.7c0,-2.2,1.8,-3.9,3.9,-3.9c2.1,0,3.8,1.7,3.8,3.9c0,2.1,-1.7,3.8,-3.8,3.8c-2.1,0,-3.9,-1.7,-3.9,-3.8Zm-21.4,13.9c0,-2.2,1.8,-3.9,3.9,-3.9c2.1,0,3.8,1.7,3.8,3.9c0,2.1,-1.7,3.8,-3.8,3.8c-2.1,0,-3.9,-1.7,-3.9,-3.8Zm14.6,35c0,-2.2,1.8,-3.9,3.9,-3.9c2.1,0,3.9,1.7,3.9,3.9c0,2.1,-1.8,3.8,-3.9,3.8c-2.1,0,-3.9,-1.7,-3.9,-3.8Zm6.1,13.7c0,-2.2,1.7,-3.9,3.9,-3.9c2.1,0,3.8,1.7,3.8,3.9c0,2.1,-1.7,3.8,-3.8,3.8c-2.2,0,-3.9,-1.7,-3.9,-3.8ZM171.9,482c0,-2.2,1.7,-3.9,3.9,-3.9c2.1,0,3.8,1.7,3.8,3.9c0,2.1,-1.7,3.8,-3.8,3.8c-2.2,0,-3.9,-1.7,-3.9,-3.8ZM186,466.8c0,-2.1,1.7,-3.8,3.8,-3.8c2.2,0,3.9,1.7,3.9,3.8c0,2.2,-1.7,3.9,-3.9,3.9c-2.1,0,-3.8,-1.7,-3.8,-3.9ZM148.1,405.9c0,-2.2,1.7,-3.9,3.8,-3.9c2.2,0,3.9,1.7,3.9,3.9c0,2.1,-1.7,3.8,-3.9,3.8c-2.1,0,-3.8,-1.7,-3.8,-3.8Zm14.7,0c0,-2.2,1.7,-3.9,3.8,-3.9c2.1,0,3.9,1.7,3.9,3.9c0,2.1,-1.8,3.8,-3.9,3.8c-2.1,0,-3.8,-1.7,-3.8,-3.8Zm39,0c0,-2.2,1.7,-3.9,3.8,-3.9c2.2,0,3.9,1.7,3.9,3.9c0,2.1,-1.7,3.8,-3.9,3.8c-2.1,0,-3.8,-1.7,-3.8,-3.8ZM186,422.6c0,-2.1,1.7,-3.8,3.8,-3.8c2.2,0,3.9,1.7,3.9,3.8c0,2.2,-1.7,3.9,-3.9,3.9c-2.1,0,-3.8,-1.7,-3.8,-3.9Zm-3.2,176.7h7.9v7.8h-7.9Zm0,7.8h7.9V615h-7.9Zm0,7.9h7.9v7.9h-7.9ZM163.3,599.3h7.9v7.8h-7.9Zm0,7.8h7.9V615h-7.9Zm0,7.9h7.9v7.9h-7.9Zm19.5,16.2h7.9v7.9h-7.9Zm0,7.9h7.9V647h-7.9Zm0,7.9h7.9v7.9h-7.9ZM163.3,631.2h7.9v7.9h-7.9Zm0,7.9h7.9V647h-7.9Zm0,7.9h7.9v7.9h-7.9Zm19.5,16.2h7.9v7.9h-7.9Zm0,7.9h7.9V679h-7.9Zm0,7.9h7.9v7.8h-7.9ZM163.3,663.2h7.9v7.9h-7.9Zm0,7.9h7.9V679h-7.9Zm0,7.9h7.9v7.8h-7.9ZM258.8,571.6H109.7v-1.9H258.8Zm-190.2,0H42v-1.9H68.6ZM258.8,716.4H109.7v-1.9H258.8Zm-190.2,0H42v-1.9H68.6Z" class="g2_3"/>
<path d="M67.6,547.4h1.9v78.1H67.6V547.4Z" class="g0_3"/>
<path d="M67.6,547.4h1.9v78.1H67.6Z" class="g2_3"/>
<path d="M127,619.3L96.1,539l1.8,-.6l30.9,80.2Z" class="g0_3"/>
<path d="M127,619.3L96.1,539l1.8,-.6l30.9,80.2l-1.8,.7Z" class="g2_3"/>
<path d="M157.3,164.9h11.6v-4.1H157.3l5.5,-4.4l-3.2,-2.9l-10.2,9.3l10.3,9.5l3.2,-3Z" class="g3_3"/>
<path d="M248.8,521.2c.9,0,1.6,-.7,1.6,-1.6c0,-.8,-.7,-1.5,-1.6,-1.5c-.9,0,-1.6,.7,-1.6,1.5c0,.9,.7,1.6,1.6,1.6Z" class="g3_3"/>
<path d="M254.9,534.4h1.5v-6.8h-1.5v6.8Z" class="g3_3"/>
<path d="M248.1,522v6.9h2.6v-1.3h-1.2V522Z" class="g3_3"/>
<path d="M250.7,525l-.2,-.1v1.7c1.1,.6,1.7,1.7,1.7,2.9c0,1.9,-1.5,3.5,-3.4,3.5c-1.9,0,-3.4,-1.6,-3.4,-3.5c0,-1.2,.6,-2.3,1.7,-2.9v-1.7l-.2,.1c-1.8,.8,-3,2.5,-3,4.5c0,2.7,2.2,4.9,4.9,4.9c2.7,0,4.9,-2.2,4.9,-4.9c0,-2,-1.2,-3.7,-3,-4.5Z" class="g3_3"/>
<path d="M254.2,510.3v-9.7l3.2,3.2l-3.2,-3.2l-3.2,3.2m-3.4,-3.2v9.7l-3.2,-3.2l3.2,3.2l3.3,-3.2m40.4,-92.9c2.1,0,3.7,-1.6,3.7,-3.6V394.7c0,-2,-1.6,-3.7,-3.7,-3.7H275.5c-2.1,0,-3.7,1.7,-3.7,3.7v15.9c0,2,1.6,3.6,3.7,3.6h15.8Z" class="g4_3"/>
<path d="M283,409.5h1.1v-5.2H283v5.2Z" class="g5_3"/>
<path d="M284.6,403.6v-4.3h-2.1v4.3h-2.2v-1.1h1v-4.4h4.4v4.4h1.1v1.1Z" class="g5_3"/>
<path d="M283.5,397.4c.7,0,1.2,-.5,1.2,-1.2c0,-.8,-.5,-1.3,-1.2,-1.3c-.7,0,-1.2,.5,-1.2,1.3c0,.7,.5,1.2,1.2,1.2Z" class="g5_3"/>
<path d="M290.2,397.4c.7,0,1.3,-.5,1.3,-1.2c0,-.8,-.6,-1.3,-1.3,-1.3c-.7,0,-1.3,.5,-1.3,1.3c0,.7,.6,1.2,1.3,1.2Z" class="g5_3"/>
<path d="M289.6,409.5h1.2v-5.2h-1.2v5.2Z" class="g5_3"/>
<path d="M292.4,398.1h-4.5v5.5h1.2v-4.3h2.2v4.3h1.2v-5.5Z" class="g5_3"/>
<path d="M276.9,397.4c.7,0,1.3,-.5,1.3,-1.2c0,-.8,-.6,-1.3,-1.3,-1.3c-.7,0,-1.3,.5,-1.3,1.3c0,.7,.6,1.2,1.3,1.2Z" class="g5_3"/>
<path d="M276.3,409.5h1.2v-5.2h-1.2v5.2Z" class="g5_3"/>
<path d="M279.2,398.1h-4.6v5.5h1.2v-4.3H278v4.3h1.2v-5.5Z" class="g5_3"/>
<path d="M287.8,387.4V376.5l3.6,3.6l-3.6,-3.6l-3.7,3.6m-3.7,-3.6v10.9l-3.6,-3.6l3.6,3.6l3.7,-3.6" class="g4_3"/>
<image clip-path="url(#c0_3)" preserveAspectRatio="none" x="319" y="183" width="256" height="339" xlink:href="img/1.jpg"/>
<path d="M255,415h16V389.9H255V415Z" class="g0_3"/>
<path d="M255,461.9h16V436.8H255v25.1Z" class="g0_3"/>
<path d="M273.3,451.4h11.6v-4.2H273.3l5.5,-4.3l-3.2,-3l-10.2,9.4l10.3,9.4l3.2,-2.9Z" class="g3_3"/>
<path d="M267.5,724.9H251.4v25h16.1v-25Z" class="g0_3"/>
</svg>