<?xml version="1.0" encoding="UTF-8" standalone="no"?>
<!DOCTYPE svg PUBLIC "-//W3C//DTD SVG 1.1//EN"
"http://www.w3.org/Graphics/SVG/1.1/DTD/svg11.dtd">
<svg viewBox="0 0 606 909" version="1.1" xmlns="http://www.w3.org/2000/svg" xmlns:xlink="http://www.w3.org/1999/xlink">
<defs>
<style type="text/css"><![CDATA[
.g0_2{
fill: #FFF;
}
.g1_2{
fill: #000;
}
.g2_2{
fill: #F9A25A;
}
]]></style>
</defs>
<path d="M73.4,806.2c0,-20.3,16.4,-36.7,36.7,-36.7c20.2,0,36.7,16.4,36.7,36.7c0,20.3,-16.5,36.7,-36.7,36.7c-20.3,0,-36.7,-16.4,-36.7,-36.7Z" class="g0_2"/>
<path d="M114.9,828.2c-.8,-1.1,-2.8,-3.2,-4.2,-3.2c-5.2,.2,-10.4,-4.8,-10.6,-5q-.1,0,-.1,-.1L85.8,802.6c-.3,-.2,-1.3,-1.3,-1.3,-2.8c0,-.6,.3,-1.6,1.3,-2.5c.5,-.4,1,-.7,1.6,-.9L85,793.7c-.1,-.2,-1.2,-1.5,-1.1,-3.1c0,-1,.5,-2,1.4,-2.7c.8,-.7,1.6,-1.1,2.4,-1.1c-.2,-.5,-.4,-1.1,-.4,-1.7c0,-1.1,.5,-2.1,1.5,-3c.9,-.7,1.9,-1.1,2.9,-1c.8,.1,1.4,.4,2,.8c.2,-.7,.6,-1.3,1.3,-2c2,-1.7,4.5,-.7,5.5,.1l.1,.1L116,796c.1,-.1,.2,-.1,.3,-.2c-1,-2.8,-1,-5.1,0,-6.8c1.3,-2.1,3.8,-2.4,3.9,-2.4c.5,-.1,.9,.2,1.1,.6c0,0,4,10.9,4.8,13c.8,2.2,.7,3.8,.6,4.1l-.4,6.7q0,.1,0,.2c0,0,-.2,1.5,1.3,3.1c.8,1,1.2,1.2,1.2,1.2c-.1,-.1,-.3,-.1,-.6,0c-.3,.2,-.4,.4,-.5,.7l2,.3c-.1,.4,-.4,.8,-.8,.9c-.8,.2,-1.5,-.3,-2.9,-1.8c-1.9,-2.2,-1.7,-4.3,-1.7,-4.7l.4,-6.7c0,0,0,-.1,0,-.1c0,0,.2,-1.3,-.5,-3.2c-.7,-1.8,-3.5,-9.5,-4.5,-12.1c-.5,.2,-1.2,.6,-1.7,1.3c-.7,1.2,-.6,3.1,.4,5.5c.1,.4,0,.9,-.3,1.2c0,0,-.6,.5,-1.1,1.3c-.1,.3,-.4,.5,-.7,.5c-.3,.1,-.6,0,-.9,-.3L99.2,781.5c-.3,-.2,-1.7,-1.1,-2.8,-.1c-1.4,1.2,-.7,2.4,-.6,2.6c.3,.4,.2,1.1,-.3,1.4c-.5,.3,-1.1,.1,-1.4,-.3c-.3,-.5,-1.5,-1.8,-2.6,-2c-.5,0,-.9,.1,-1.4,.5c-.5,.5,-.7,1,-.8,1.5c0,1.1,1,2.3,1.5,2.7c0,.1,.1,.1,.1,.2c.4,.4,.4,1,0,1.4c-.4,.4,-1,.4,-1.4,0l-.1,-.1c-.4,-.3,-1.5,-1.1,-2.8,.1c-1.4,1.2,-.4,2.5,-.1,2.9l4.9,5.6c.4,.5,.3,1.1,-.1,1.5c-.4,.3,-1,.3,-1.4,-.1v-.1c-.3,-.2,-1.5,-1.5,-2.8,-.4c-.3,.4,-.5,.7,-.5,1.1c-.1,.6,.5,1.2,.6,1.3c0,0,.1,.1,.1,.1l14.2,17.3c.5,.4,5,4.5,9.2,4.4c2.7,0,5.5,3.6,5.8,4Z" class="g1_2"/>
<path d="M107.3,798.6c-.2,0,-.5,-.1,-.7,-.3L94.2,785.2c-.4,-.4,-.4,-1,0,-1.4c.5,-.4,1.1,-.4,1.5,0l12.4,13.1c.3,.4,.3,1,-.1,1.4c-.2,.2,-.4,.3,-.7,.3Z" class="g1_2"/>
<path d="M102.2,803.4c-.2,0,-.5,-.1,-.7,-.3L89.4,789.4c-.3,-.5,-.3,-1.1,.1,-1.5c.4,-.3,1.1,-.3,1.5,.1l12,13.7c.4,.5,.3,1.1,-.1,1.5c-.2,.1,-.4,.2,-.7,.2Z" class="g1_2"/>
<path d="M98.3,808.3c-.3,0,-.6,-.1,-.8,-.3l-7.8,-8.9c-.3,-.4,-.3,-1,.1,-1.4c.4,-.4,1.1,-.3,1.4,.1l7.8,8.9c.4,.4,.4,1,-.1,1.4c-.1,.2,-.4,.2,-.6,.2Z" class="g1_2"/>
<path d="M119.3,839.8l-6.8,-7.9c-.8,-1,-.7,-2.4,.2,-3.3l14.8,-12.8c.9,-.8,2.4,-.7,3.2,.2l8.9,9.6l-1.5,1.4l-8.9,-9.6c-.1,-.2,-.3,-.2,-.4,-.1l-14.7,12.9c-.2,.1,-.2,.2,-.1,.4l6.8,7.9Z" class="g1_2"/>
<path d="M87.7,834l-4.9,-4.9l50.7,-50.7l4.9,4.8Z" class="g1_2"/>
<path d="M110,844.1c-21.2,0,-38.4,-17.3,-38.4,-38.4c0,-21.2,17.2,-38.4,38.4,-38.4c21.1,0,38.4,17.2,38.4,38.4c0,21.1,-17.3,38.4,-38.4,38.4M110,771c-19.1,0,-34.7,15.6,-34.7,34.7c0,19.1,15.6,34.6,34.7,34.6c19.1,0,34.6,-15.5,34.6,-34.6C144.6,786.6,129.1,771,110,771Z" class="g1_2"/>
<path d="M439.8,806.2c0,-20.2,16.4,-36.7,36.7,-36.7c20.3,0,36.7,16.5,36.7,36.7c0,20.3,-16.4,36.7,-36.7,36.7c-20.3,0,-36.7,-16.4,-36.7,-36.7Z" class="g0_2"/>
<path d="M470.7,790.9c3,0,5.1,-2.1,5.1,-5.1v-1.9c0,-3,-2.1,-5.1,-5.1,-5.1c-2.9,0,-5.1,2.1,-5.1,5.1v1.9c0,3,2.2,5.1,5.1,5.1m-2.8,-7c0,-1.7,1.1,-2.9,2.8,-2.9c1.7,0,2.8,1.2,2.8,2.9v1.9c0,1.7,-1.1,2.8,-2.8,2.8c-1.7,0,-2.8,-1.1,-2.8,-2.8Z" class="g1_2"/>
<path d="M469.6,831.3h2.3V812.1h-2.3v19.2Z" class="g1_2"/>
<path d="M486.1,812.2c1.8,0,3.1,-1.3,3.1,-3.1v-1.2c0,-1.8,-1.3,-3.1,-3.1,-3.1c-1.8,0,-3.1,1.3,-3.1,3.1v1.2c0,1.8,1.3,3.1,3.1,3.1m-1.7,-4.3c0,-1,.7,-1.7,1.7,-1.7c1.1,0,1.8,.7,1.8,1.7v1.2c0,1.1,-.7,1.8,-1.8,1.8c-1,0,-1.7,-.7,-1.7,-1.8Z" class="g1_2"/>
<path d="M486.6,812.7h-.9c-.5,0,-1.3,-.2,-1.5,-.4l-3.3,-3c.5,-.8,.9,-1.8,.9,-2.7v-8.9c0,-4.3,-7.3,-6.1,-11.1,-6.1c-3.7,0,-11,1.8,-11,6.1v8.9c0,2.2,1.7,4.4,4,4.9v19.8h2.2V799.6h-2.2v9.5c-1,-.5,-1.7,-1.6,-1.7,-2.5v-8.9c0,-.9,1.1,-1.9,3,-2.7c1.8,-.7,4,-1.1,5.7,-1.1c1.8,0,4,.4,5.7,1.1c2,.8,3.1,1.8,3.1,2.7v8.9c0,.9,-.7,2,-1.7,2.5v-9.5h-2.3v31.7h2.3V811.9c.1,.2,.2,.4,.4,.6l4.2,3.9v14.9h1.4v-9.5h1.7v9.5h1.3v-9.5h1.8v9.4h1.2v-7c1.2,-.3,2.3,-1.6,2.3,-2.9v-5.1c0,-2.4,-3.2,-3.5,-5.5,-3.5m4.1,8.6c0,.5,-.4,1.1,-.9,1.4v-6.1l-1.2,-.5v4.3h-4.8v-4.6l-4.6,-4.3c-.1,-.1,-.2,-.2,-.3,-.4c.4,-.2,.7,-.4,1,-.7l3.3,2.9c.6,.5,1.9,.8,2.5,.8h.9c1.9,0,4.1,.9,4.1,2.1Z" class="g1_2"/>
<path d="M476.1,844.6c-21.2,0,-38.4,-17.2,-38.4,-38.4c0,-21.2,17.2,-38.4,38.4,-38.4c21.2,0,38.4,17.2,38.4,38.4c0,21.2,-17.2,38.4,-38.4,38.4m0,-73c-19.1,0,-34.6,15.5,-34.6,34.6c0,19.1,15.5,34.6,34.6,34.6c19.1,0,34.6,-15.5,34.6,-34.6c0,-19.1,-15.5,-34.6,-34.6,-34.6Z" class="g1_2"/>
<path d="M256.2,808.1c0,-20.5,16.6,-37.1,37,-37.1c20.5,0,37.1,16.6,37.1,37.1c0,20.4,-16.6,37,-37.1,37c-20.4,0,-37,-16.6,-37,-37Z" class="g0_2"/>
<path d="M327.4,789.6c10,18.9,2.7,42.5,-16.2,52.5c-18.9,10,-42.5,2.7,-52.5,-16.2C248.7,807,256,783.4,274.9,773.4c18.9,-10,42.5,-2.7,52.5,16.2m-3.4,1.8c-9,-17.1,-30.3,-23.6,-47.3,-14.6c-17.1,9,-23.6,30.2,-14.6,47.3c9,17.1,30.2,23.6,47.3,14.6c17.1,-9,23.6,-30.3,14.6,-47.3Z" class="g1_2"/>
<path d="M310.1,811.2L288.6,794.3l-1.3,-10.5q0,-.1,0,-.1c-.7,-3.1,-3.4,-5.4,-6.5,-5.5c-.3,0,-.6,.1,-.8,.3c-.2,.3,-.3,.6,-.3,.9l1.3,12.5v.1c.1,.6,-.3,1.7,-.8,2.3l-1.4,1.8c-.5,.7,-1.5,1.3,-2.1,1.4q-.1,0,-.1,0L264.2,799c-.3,.1,-.5,.2,-.7,.5c-.2,.2,-.2,.5,-.1,.8c.8,3,3.7,5.2,6.8,5.1q.1,0,.1,0l10.4,-1.1l7.1,5.5l1.1,6.9c.1,.4,.4,.7,.8,.8l10.3,2.3l.5,-2l-9.6,-2.1l-1.2,-6.6c0,-.3,-.1,-.5,-.4,-.7l-7.6,-6c-.2,-.1,-.5,-.2,-.8,-.2l-10.7,1.1c-1.8,.1,-3.5,-.9,-4.3,-2.4l10.9,-1.4c1.4,0,2.8,-1.1,3.6,-2.1l1.4,-1.8c.8,-1,1.5,-2.6,1.2,-4l-1.1,-11.1c1.6,.5,3,1.8,3.4,3.6l1.3,10.9c0,.2,.2,.5,.4,.6l21.9,17.2Z" class="g1_2"/>
<path d="M305.3,816.9l-3,-2.4l-.2,1l-7.8,-2c-.4,-.1,-.7,-.5,-.7,-.9l-.5,-5.8c0,-.4,.2,-.8,.6,-1c.3,-.2,.8,-.1,1.1,.1l11.8,9.3Zm-9.7,-5.2l4.7,1.2L295.4,809Z" class="g1_2"/>
<path d="M278.4,794.4v0c-.9,1.2,-2.2,1.9,-3.7,2c-1.3,.1,-2.7,-.3,-3.9,-1.2l-1.2,-.9c-1.2,-1,-1.9,-2.2,-2.1,-3.6c-.3,-1.4,.1,-2.8,1,-4c1,-1.2,2.3,-1.9,3.7,-2.1c1.4,-.1,2.8,.4,4,1.3l1.1,.9c1.2,.9,2,2.2,2.2,3.5c.2,1,0,1.9,-.3,2.7c-.2,.5,-.4,1,-.8,1.4m-8.9,-4c.1,.8,.6,1.6,1.4,2.2l1.2,1c.7,.5,1.6,.8,2.5,.8c.8,-.1,1.6,-.5,2.2,-1.3c.6,-.7,.8,-1.6,.7,-2.4c-.2,-.9,-.7,-1.7,-1.4,-2.3l-1.2,-.9c-.8,-.6,-1.7,-.9,-2.5,-.8c-.9,.1,-1.7,.5,-2.2,1.2c-.2,.3,-.4,.6,-.5,.9c-.2,.5,-.3,1.1,-.2,1.6Z" class="g1_2"/>
<path d="M277.9,808.9v0Z" class="g2_2"/>
<path d="M277.9,808.9v0Z" class="g0_2"/>
<path d="M292.3,844.6h-2.4v-9.5h2.4v9.5Z" class="g1_2"/>
<path d="M289.9,832.9h9.5v2.3h-9.5v-2.3Z" class="g1_2"/>
<path d="M301.8,835.2h-2.4v-9.5h2.4v9.5Z" class="g1_2"/>
<path d="M299.4,823.4H309v2.3h-9.6v-2.3Z" class="g1_2"/>
<path d="M311.3,825.7H309v-9.5h2.3v9.5Z" class="g1_2"/>
<path d="M309,813.9h9.5v2.3H309v-2.3Z" class="g1_2"/>
<path d="M320.8,816.2h-2.3v-9.5h2.3v9.5Z" class="g1_2"/>
<path d="M318.5,804.4H328v2.3h-9.5v-2.3Z" class="g1_2"/>
<path d="M330.3,806.7H328v-9.5h2.3v9.5Z" class="g1_2"/>
</svg>