<?xml version="1.0" encoding="UTF-8" standalone="no"?>
<!DOCTYPE svg PUBLIC "-//W3C//DTD SVG 1.1//EN"
"http://www.w3.org/Graphics/SVG/1.1/DTD/svg11.dtd">
<svg viewBox="0 0 606 909" version="1.1" xmlns="http://www.w3.org/2000/svg" xmlns:xlink="http://www.w3.org/1999/xlink">
<defs>
<clipPath id="c0"><path d="M.5,909.4V0H606.3V909.4Z"/></clipPath>
<clipPath id="c1"><path d="M0,909.4V0H606.3V909.4Z"/></clipPath>
<clipPath id="c2"><path d="M94.5,461.2V420.5H220.9v40.7Z"/></clipPath>
<style type="text/css"><![CDATA[
.g0{
fill: #000;
}
.g1{
fill: none;
stroke: #FFF;
stroke-width: 0.381;
}
.g2{
fill: #FFF;
}
]]></style>
</defs>
<image clip-path="url(#c0)" preserveAspectRatio="none" x="1" y="-1" width="607" height="912" xlink:href="img/1.jpg"/>
<image clip-path="url(#c1)" preserveAspectRatio="none" x="47" y="136" width="573" height="773" xlink:href="img/2.png"/>
<path d="M62.4,909.4H606.3V150.3H62.4V909.4Z" class="g0"/>
<path d="M383.4,551.1H576M383.4,801.7H576" class="g1"/>
<image clip-path="url(#c2)" preserveAspectRatio="none" x="95" y="420" width="126" height="41" xlink:href="img/3.png"/>
<path d="M145,506.1c.5,-.2,1.1,-.9,.8,-1.7c-.2,-.4,-.4,-.7,-.6,-.8l-.4,.1c.3,.2,.6,.4,.7,.8c.2,.5,0,1,-.6,1.3c-.7,.3,-1.3,0,-1.5,-.5c-.2,-.4,-.1,-.8,0,-.9l-.4,.2c0,.1,0,.4,.1,.6c.4,.9,1.2,1.2,1.9,.9Z" class="g2"/>
<path d="M142.6,503.3l.1,.5q.2,-.1,.8,-.3l1.2,-.3c.1,0,.3,0,.6,0l-.1,-.5c-.1,.1,-.3,.2,-.7,.3l-.5,.1l-.3,-1.3l.6,-.1c.4,-.1,.5,-.1,.7,-.1l-.2,-.4c-.1,0,-.3,.1,-.8,.3l-1.2,.2c-.2,.1,-.4,.1,-.6,.1l.1,.4c.1,0,.3,-.1,.6,-.2l.6,-.1l.3,1.3l-.6,.1c-.4,.1,-.5,0,-.6,0Z" class="g2"/>
<path d="M142.6,500.7l1.4,-.1q.5,-.1,.8,0v-.5c-.3,.1,-.6,.2,-.9,.2h-.4l.6,-.5c.2,-.2,.4,-.4,.6,-.7v-.3c-.6,.6,-.8,.8,-1.1,1.1l-.2,-.2c-.1,-.2,-.3,-.4,-.7,-.4c-.2,0,-.3,.1,-.4,.2c-.1,.1,-.3,.4,-.3,.6l.1,.7c.2,-.1,.3,-.1,.5,-.1m-.3,-.8c.2,-.2,.4,-.3,.5,-.3c.2,0,.3,.1,.4,.1c.1,.1,.2,.4,.3,.6l-.7,.1c-.3,0,-.4,0,-.6,0c0,-.1,0,-.3,.1,-.5Z" class="g2"/>
<path d="M144.7,497.7v-.5c-.1,0,-.3,-.1,-.7,-.4l-.2,-.2c0,-.4,.1,-.6,.1,-.9l.4,-.1c.2,-.1,.3,-.1,.5,-.1c0,0,.1,0,.2,.1V495q-.2,.1,-.3,.1c-.1,.1,-.6,.2,-.8,.3l-1.7,.4l1.4,1c.6,.5,.7,.5,1.1,.9m-2,-1.7l1,-.3l-.2,.8Z" class="g2"/>
<path d="M143.1,494.1l1.3,.4c.1,0,.2,.1,.5,0c.2,-.1,.4,-.3,.5,-.6c.1,-.3,.1,-.6,-.1,-1c.1,.1,.3,.1,.4,.2l.1,-.4c-.2,0,-.3,0,-.6,-.1l-1.2,-.4q-.5,-.2,-.8,-.3l-.1,.4q.3,0,.9,.2l.7,.2c.1,.1,.2,.1,.3,.2c.1,.1,.3,.4,.2,.8c0,0,-.2,.5,-.6,.5c-.2,0,-.4,-.1,-.5,-.1l-.8,-.3c-.4,-.1,-.5,-.2,-.6,-.3l-.2,.5c.3,0,.4,0,.6,.1Z" class="g2"/>
<path d="M144.8,491.7c.5,.3,1.3,.3,1.9,-.7c.2,-.4,.3,-.7,.3,-.8l-.3,-.2c0,0,-.4,-.2,-.5,-.3c-.1,-.1,-.2,-.1,-.2,-.3l-.3,.5q.3,.1,.4,.1l.5,.3h.1c0,.1,0,.3,-.2,.5c-.4,.9,-1.2,.8,-1.6,.6c-.6,-.4,-.8,-1,-.4,-1.6c.2,-.4,.5,-.5,.7,-.6l-.4,-.2c-.3,.3,-.4,.5,-.5,.7c-.6,1,.1,1.8,.5,2Z" class="g2"/>
<path d="M146.9,489.1c.1,.1,.2,.2,.4,.2c.3,0,.6,-.1,.8,-.4c.2,-.2,.2,-.5,.2,-.9c.1,.1,.2,.2,.3,.2l.2,-.3c-.1,0,-.2,-.1,-.5,-.3l-.9,-.7q-.5,-.4,-.7,-.6l-.3,.3c.3,.1,.4,.2,.8,.5l.6,.5c.1,.1,.2,.1,.2,.2c.1,.2,.2,.5,-.1,.8c0,.1,-.3,.5,-.7,.3c-.2,0,-.3,-.2,-.5,-.3l-.6,-.5c-.3,-.3,-.4,-.4,-.5,-.5l-.3,.4c.2,.1,.4,.2,.5,.3Z" class="g2"/>
<path d="M148.5,486.4c.7,-.1,.8,-.2,1,0c.1,.2,.1,.5,-.1,.7c-.2,.2,-.4,.1,-.6,.1c.1,.1,.3,.3,.4,.4c.1,-.1,.2,-.2,.3,-.3c.4,-.3,.5,-.8,.2,-1.1c-.4,-.4,-.7,-.3,-1,-.1c-.2,0,-.5,.1,-.7,-.1c-.2,-.2,-.2,-.5,0,-.7c.2,-.1,.4,-.1,.6,-.1c-.1,0,-.3,-.2,-.3,-.3c-.2,0,-.3,.1,-.4,.2c-.3,.3,-.4,.8,-.1,1.1c.1,.1,.3,.3,.7,.2Z" class="g2"/>
<path d="M149.6,484l1.1,1.6c.1,.1,.2,.3,.2,.5l.4,-.3c-.1,-.1,-.2,-.1,-.4,-.4l-.8,-1.2c-.1,-.1,-.2,-.2,-.3,-.3c.4,-.3,.5,-.3,.7,-.3c-.1,-.2,-.1,-.3,-.1,-.4l-1.6,1.1l.2,.4c.1,-.3,.3,-.4,.6,-.7Z" class="g2"/>
<path d="M151.3,483.4l.8,1.3c.1,.2,.1,.3,.2,.5l.4,-.2c-.2,-.2,-.3,-.3,-.3,-.4l-.9,-1.5c-.1,-.2,-.1,-.3,-.1,-.5l-.5,.3c.2,.1,.3,.2,.4,.5Z" class="g2"/>
<path d="M152.5,482.8l.6,1.3c0,.2,.1,.3,.1,.6l.4,-.2c-.1,-.1,-.2,-.2,-.4,-.7l-.5,-1.2l2,1.1c.1,.1,.2,.2,.3,.2l.3,-.1c-.1,-.1,-.2,-.3,-.2,-.4l-.6,-1.4c-.2,-.4,-.2,-.5,-.2,-.7l-.5,.2c.2,.1,.3,.2,.5,.7l.5,1.2c-.2,-.1,-.4,-.2,-.6,-.3l-1.5,-.9q-.1,-.1,-.2,-.2l-.5,.3c.1,0,.2,0,.3,.1c.1,.1,.1,.3,.2,.4Z" class="g2"/>
<path d="M155.8,482.9c0,0,0,.2,.2,.4c.2,.1,.5,.2,.8,.1c.3,0,.6,-.2,.8,-.5c0,.1,.1,.2,.1,.3l.4,-.1c-.2,-.1,-.2,-.2,-.3,-.5l-.2,-1.2q-.2,-.6,-.1,-.9l-.5,.1c.1,.3,.2,.3,.3,.9l.1,.7c.1,.1,.1,.2,.1,.3c-.1,.2,-.2,.5,-.6,.6c0,0,-.5,.1,-.7,-.2c-.1,-.2,-.2,-.4,-.2,-.5l-.2,-.9c-.1,-.4,-.1,-.5,-.1,-.6l-.5,.1c.2,.2,.2,.3,.3,.5Z" class="g2"/>
<path d="M158.7,481.7c.6,.3,.8,.4,.8,.6c0,.3,-.2,.5,-.4,.5c-.3,.1,-.5,-.1,-.6,-.3c0,.2,.1,.4,.1,.6c.1,0,.3,0,.4,0c.4,0,.8,-.4,.8,-.9c0,-.4,-.4,-.5,-.7,-.6c-.2,-.1,-.5,-.2,-.5,-.5c0,-.3,.2,-.5,.4,-.5c.3,0,.4,.2,.5,.2c0,0,0,-.3,0,-.4c-.1,0,-.3,-.1,-.4,-.1c-.5,.1,-.8,.4,-.8,.9c0,.1,.1,.4,.4,.5Z" class="g2"/>
<path d="M162,482.5l.1,-.7h.1q.2,.1,.6,.2l.2,-.3c-.5,-.1,-.8,-.1,-.9,-.1l.1,-1h.2c.3,0,.3,.1,.7,.2l.2,-.3l-1.5,-.2c.1,.2,.1,.3,.1,.8l-.2,1.3c0,.4,-.1,.5,-.1,.6l.5,.1c-.1,-.2,-.1,-.3,-.1,-.6Z" class="g2"/>
<path d="M162.7,483.1l.5,.1c0,-.2,.1,-.3,.4,-.6l.2,-.3c.4,.1,.6,.1,.9,.2l.1,.4c0,.2,0,.3,0,.5c0,0,0,.1,-.1,.2l.6,.1c-.1,-.2,-.1,-.3,-.1,-.4c0,-.1,-.2,-.6,-.2,-.8l-.3,-1.7l-1.1,1.3q-.5,.6,-.9,1m1.8,-1.8l.2,.9l-.8,-.1Z" class="g2"/>
<path d="M167,484c.2,-.1,.3,-.2,.3,-.3c.2,-.4,-.2,-.8,-.3,-.9c.3,-.1,.6,-.2,.7,-.4c0,-.1,0,-.2,-.1,-.4c-.1,-.3,-.4,-.5,-.5,-.5l-.5,-.2c0,.2,0,.3,-.1,.5l-.6,1.6c0,.2,-.1,.2,-.3,.4l.6,.2c.1,.1,.5,.2,.8,0m-.1,-2.4c.1,.1,.2,.1,.3,.2c.1,.1,.2,.3,.1,.5c-.1,.2,-.2,.4,-.8,.3Zm-.4,1.1c.3,.1,.6,.5,.5,.8c-.1,.3,-.5,.4,-.8,.3h-.1Z" class="g2"/>
<path d="M167.4,484.5l.4,.3c.1,-.3,.2,-.6,.3,-.8l.2,-.4l.2,.8c0,.3,.1,.6,.2,.8l.3,.2c-.2,-.8,-.2,-1.1,-.3,-1.5h.2c.3,0,.5,-.1,.7,-.4c.1,-.2,.1,-.4,.1,-.5c-.1,-.2,-.3,-.5,-.4,-.6l-.6,-.3q-.1,.3,-.2,.6l-.6,1.2c-.3,.4,-.3,.5,-.5,.6m1.3,-1.5c.1,-.3,.2,-.4,.2,-.5c.1,0,.3,.1,.4,.3c.1,.2,.1,.5,0,.6c-.1,.2,-.2,.2,-.3,.3c-.1,0,-.4,-.1,-.7,-.1Z" class="g2"/>
<path d="M169.3,485.6l.4,.3c.1,-.3,.1,-.4,.2,-.5l.9,-1.4q.2,-.3,.4,-.4l-.4,-.3c-.1,.2,-.1,.3,-.3,.6l-.8,1.3c-.1,.2,-.2,.2,-.4,.4Z" class="g2"/>
<path d="M170.2,486.2l.4,.3c.1,-.3,.2,-.5,.4,-.7l.4,-.5v.3l.1,.9c0,.5,0,.6,-.1,.7l.5,.3c-.1,-.5,-.2,-1.9,-.1,-2h.2l1,-.1c.1,-.1,.2,-.1,.5,-.1l-.4,-.3c-.2,.1,-.3,.1,-.4,.1l-1.3,.2l.4,-.5c.2,-.3,.4,-.4,.5,-.4l-.4,-.3c0,.1,-.1,.3,-.4,.6l-.8,1c-.2,.3,-.4,.4,-.5,.5Z" class="g2"/>
<path d="M172.1,487.8l.3,.3c.1,-.2,.3,-.4,.5,-.6l.5,-.4v.3l-.1,.9c0,.5,-.1,.5,-.1,.6l.4,.5c-.1,-.5,.1,-1.9,.1,-2.1h.3l1,.1c.1,0,.2,0,.5,0l-.4,-.4q-.2,.1,-.4,.1l-1.2,-.1l.4,-.4c.3,-.2,.4,-.3,.5,-.3l-.3,-.4c-.1,.2,-.2,.3,-.5,.6l-.9,.9c-.3,.2,-.5,.3,-.6,.4Z" class="g2"/>
<path d="M174.2,489.8l.1,-.1l.7,-.4c.2,.2,.2,.3,.3,.6l.4,-.1l-.2,-.3l-.3,-.4l.6,-.4l.2,-.2c.3,.5,.4,.7,.4,.9l.4,-.1l-.8,-1.2c-.1,.2,-.3,.3,-.5,.4l-1.2,.9c-.2,.1,-.4,.2,-.6,.2l.8,1.2l.6,-.1c-.4,-.2,-.6,-.4,-.9,-.9Z" class="g2"/>
<path d="M176.5,491.6c.2,.1,.4,.3,.7,.1c.2,-.1,.3,-.3,.4,-.4c0,-.2,.1,-.5,0,-.7l-.4,-.6c-.1,.2,-.2,.2,-.4,.4l-1.2,.6q-.5,.2,-.7,.3l.2,.4c.1,-.2,.4,-.3,.7,-.5l.3,-.1l-.3,.6c-.1,.4,-.2,.6,-.3,.9l.2,.3c.3,-.8,.4,-1.1,.6,-1.4Zm.2,-.9c.3,-.1,.5,-.2,.6,-.2c0,.1,.1,.2,.1,.5c-.1,.2,-.2,.4,-.4,.5c-.1,0,-.3,0,-.3,0c-.2,-.1,-.4,-.3,-.5,-.5Z" class="g2"/>
<path d="M177,494.1c.4,-.2,.4,-.5,.4,-.8c0,-.3,.1,-.6,.3,-.7c.3,0,.5,.1,.6,.3c.1,.2,0,.4,-.1,.5c0,0,.3,-.1,.4,-.1c0,-.1,0,-.3,0,-.4c-.2,-.5,-.6,-.7,-1,-.5c-.1,0,-.4,.1,-.5,.5c-.1,.7,-.1,.8,-.3,.9c-.3,.1,-.5,0,-.6,-.2c-.1,-.3,0,-.5,.1,-.7c-.1,.1,-.3,.2,-.5,.2c0,.2,.1,.3,.1,.4c.2,.5,.6,.8,1.1,.6Z" class="g2"/>
<path d="M176.7,496l.1,.5c.1,-.1,.2,-.1,.5,-.2l.7,-.1v.1q.1,.2,0,.6l.4,.2c-.1,-.5,-.1,-.9,-.1,-1l.9,-.1l.1,.1c0,.3,0,.4,-.1,.8l.4,.1l-.2,-1.5c-.2,.1,-.3,.2,-.7,.3l-1.4,.2c-.3,.1,-.4,.1,-.6,0Z" class="g2"/>
<path d="M178.4,497.7c-.8,0,-1.4,.7,-1.4,1.4c0,.1,.1,.2,.1,.3c.1,.2,.2,.5,.3,.6c.3,.4,.8,.5,1,.5c.8,0,1.4,-.7,1.4,-1.5c0,-.7,-.6,-1.3,-1.4,-1.3m-.1,2.5c-.1,0,-.4,0,-.7,-.4c-.2,-.2,-.2,-.3,-.3,-.6c0,-.5,.3,-1.2,1.1,-1.2c.5,0,1.1,.2,1.1,.9c0,.7,-.6,1.3,-1.2,1.3Z" class="g2"/>
<path d="M179.4,501.8c.1,0,.2,-.1,.3,-.1l.1,-.5q-.2,.1,-.3,.2c-.2,0,-.3,0,-.5,-.1l-1.4,-.2c-.2,0,-.3,-.1,-.5,-.2l-.1,.5c.1,-.1,.3,-.1,.8,0l1.3,.2l-2,1.1c-.1,.1,-.2,.1,-.3,.2l-.1,.3c.2,-.1,.3,0,.5,0l1.5,.2c.4,.1,.5,.1,.7,.2v-.4q-.2,0,-.8,0l-1.3,-.3c.2,-.1,.4,-.2,.6,-.3Z" class="g2"/>
<path d="M179,505l.1,-.4c-.3,0,-.4,0,-.6,-.1l-1.4,-.5q-.3,-.1,-.6,-.3l-.2,.6c0,.2,0,.7,.1,1c.2,.4,.4,.6,.8,.7c.7,.3,1.5,-.2,1.8,-1m-1.8,.7c-.4,-.2,-.6,-.5,-.6,-.7c-.1,-.4,0,-.6,0,-.8l2.2,.7c-.3,.8,-1,1,-1.6,.8Z" class="g2"/>
<path d="M154,494.6c0,-.3,-.3,-.5,-.5,-.5c-.3,0,-.6,.2,-.6,.5c0,.3,.3,.5,.6,.5c.2,0,.5,-.2,.5,-.5Z" class="g2"/>
<path d="M160.7,503.6c-.1,-.2,-.4,-.3,-.7,-.2c-.6,.2,-.2,1,0,1.1c.2,.2,.2,.4,0,.5c-.2,.2,-.2,.4,-.1,.5c.1,.1,.2,.2,.1,.5c-.1,.1,-.3,.5,-.1,.7c.2,.2,.1,.2,.1,.5c-.1,.2,-.1,.4,-.1,.5h.4c.1,-.6,.5,-.3,.5,0h.5c-.1,-.2,-.4,-.9,-.4,-1.3c0,-.5,.2,-.8,.2,-1c.1,-.3,-.4,-.4,-.1,-.5c.3,-.1,.5,-.4,.3,-.5c-.3,-.1,-.8,.1,-.6,-.3c.1,-.1,.1,-.3,0,-.5Z" class="g2"/>
<path d="M168.1,494.6c0,-.3,-.2,-.5,-.5,-.5c-.3,0,-.5,.2,-.5,.5c0,.3,.2,.5,.5,.5c.3,0,.5,-.2,.5,-.5Z" class="g2"/>
<path d="M102,520.6l-2.3,-5.5L97,520.3c-1.3,2.6,-1.3,2.7,-2.5,4.2h1.8c0,-.6,.2,-1.1,.8,-2.5l.6,-1.1c1.5,0,2.2,.1,3.3,.1l.6,1.3c.1,.4,.4,1,.4,1.6c0,.1,0,.2,-.1,.6h2c-.4,-.7,-.6,-.9,-.7,-1.1c-.2,-.4,-1,-2.1,-1.2,-2.8M98.1,520l1.4,-2.9l1.2,3Z" class="g2"/>
<path d="M111.7,518.2q0,-2.1,.3,-3h-1.6c.3,.9,.3,1.2,.3,3.2v2.4c0,.5,0,.9,-.2,1.2c-.2,.7,-1,1.5,-2.3,1.5c-.2,0,-1.9,0,-2.3,-1.3c-.2,-.5,-.2,-1.4,-.2,-1.9v-2.9c-.1,-1.4,.1,-1.8,.3,-2.2h-1.8c.3,.7,.4,1.3,.4,2v4.6c0,.4,0,.9,.6,1.6c.4,.6,1.3,1.2,2.5,1.2c1,0,2,-.6,3,-1.4c0,.4,0,.9,0,1.3h1.4c-.3,-.6,-.4,-.9,-.4,-2.1Z" class="g2"/>
<path d="M120.6,521.2v2.4c-.4,0,-.8,.2,-1.7,.2c-3.5,0,-4.4,-2.5,-4.4,-4.1c0,-2.2,1.7,-3.8,3.9,-3.8c1.6,0,2.6,.7,3.1,1.1v-1.7c-1.3,-.1,-2.1,-.2,-2.9,-.2c-3.9,0,-5.3,3.1,-5.3,5c0,1.8,1.3,4.5,5.4,4.5c1.4,0,2.4,-.3,3,-.5l-.1,-1.1c0,-.2,0,-1.7,.1,-2.1c0,-.4,.1,-.7,.4,-1.2h-2c.5,1,.5,1.1,.5,1.5Z" class="g2"/>
<path d="M131.1,518.2q0,-2.1,.3,-3h-1.6c.3,.9,.3,1.2,.3,3.2v2.4c0,.5,0,.9,-.1,1.2c-.3,.7,-1.1,1.5,-2.4,1.5c-.2,0,-1.8,0,-2.3,-1.3c-.2,-.5,-.2,-1.4,-.2,-1.9v-2.9c-.1,-1.4,.1,-1.8,.3,-2.2h-1.8c.3,.7,.4,1.3,.4,2v4.6c0,.4,0,.9,.6,1.6c.4,.6,1.3,1.2,2.5,1.2c1,0,2,-.6,3,-1.4c0,.4,.1,.9,0,1.3h1.4c-.3,-.6,-.4,-.9,-.4,-2.1Z" class="g2"/>
<path d="M135.3,519.4c-.7,-.3,-1.6,-.8,-1.6,-1.8c0,-.9,.7,-1.6,1.5,-1.6c.9,0,1.4,.7,1.6,1c0,-.1,0,-1.1,0,-1.5c-.3,-.2,-.8,-.4,-1.3,-.4c-1.6,0,-2.8,1.1,-2.8,2.8c0,.2,0,1.3,1.1,1.9c2.1,1.2,2.5,1.4,2.5,2.3c0,.9,-.7,1.6,-1.6,1.6c-.9,0,-1.4,-.7,-1.8,-1.2c.1,.6,.1,1.4,.1,1.8c.3,.1,.9,.3,1.3,.3c1.7,0,3.1,-1.1,3.1,-2.7c0,-1.6,-1,-2,-2.1,-2.5Z" class="g2"/>
<path d="M138.4,515.1l-.5,1.4c.9,-.5,1.8,-.5,3,-.6v6.6c0,.5,0,1.1,-.3,2h1.6c-.2,-.6,-.3,-1,-.3,-2v-5.1c0,-.4,0,-1.1,0,-1.5c1.6,.1,1.9,.1,2.5,.5c.2,-.5,.4,-1,.6,-1.3Z" class="g2"/>
<path d="M145.8,515.2c.3,.7,.4,.9,.4,2v5.4c0,.8,0,1,-.4,1.9h1.8c-.3,-.9,-.4,-1.2,-.4,-1.7v-5.9c0,-.9,.1,-1.1,.4,-1.7Z" class="g2"/>
<path d="M155.6,515.2c.3,.7,.4,.9,.4,2.8v4.6c-.4,-.6,-.9,-1.2,-1.3,-1.8l-3.6,-4.7c-.3,-.5,-.4,-.6,-.6,-.9h-1.8c.4,.3,.6,.6,.9,.9c0,.5,0,1,0,1.5v4.9c0,.8,0,1.1,-.2,2h1.5c-.2,-.4,-.4,-.9,-.4,-2.6v-4.8l4.8,6.2c.3,.4,.5,.8,.8,1.2h1.1c-.2,-.5,-.3,-1.2,-.3,-1.6v-5.3c0,-1.5,.1,-1.8,.4,-2.4Z" class="g2"/>
<path d="M165.6,523.2c0,.4,0,.9,0,1.3h1.3c-.3,-.6,-.3,-.9,-.3,-2.1v-4.2c0,-2,0,-2.1,.3,-3h-1.7c.3,1,.4,1.2,.4,3.2v2.4c0,.5,0,.9,-.2,1.2c-.3,.7,-1.1,1.5,-2.3,1.5c-.2,0,-1.9,0,-2.4,-1.3c-.2,-.5,-.2,-1.4,-.2,-1.9v-2.9c0,-1.4,.2,-1.8,.3,-2.2H159c.4,.7,.4,1.3,.4,2l.1,4.6c0,.4,0,.9,.5,1.6c.5,.6,1.3,1.2,2.5,1.2c1,0,2.1,-.6,3.1,-1.4Z" class="g2"/>
<path d="M170.7,519.4c-.7,-.3,-1.6,-.8,-1.6,-1.8c0,-.9,.7,-1.6,1.6,-1.6c.8,0,1.3,.7,1.6,1c0,-.1,-.1,-1.1,0,-1.5c-.4,-.2,-.8,-.4,-1.4,-.4c-1.5,0,-2.8,1.1,-2.8,2.8c0,.2,0,1.3,1.2,1.9c2.1,1.2,2.5,1.4,2.5,2.3c0,.9,-.8,1.6,-1.6,1.6c-.9,0,-1.4,-.7,-1.8,-1.2c0,.6,0,1.4,0,1.8c.4,.1,1,.3,1.4,.3c1.6,0,3.1,-1.1,3.1,-2.7c0,-1.6,-1.1,-2,-2.2,-2.5Z" class="g2"/>
<path d="M179.6,519.3v-3.4h.5c1,0,1.3,.1,2.5,.5l.7,-1.2h-5.1c.2,.5,.4,.9,.4,2.4v4.8c0,1.1,-.1,1.6,-.3,2.1H180c-.2,-.5,-.4,-.9,-.4,-2v-2.4h.4c.7,0,.7,.1,2.2,.5l.6,-1.3c-1.8,.1,-2.8,0,-3.2,0Z" class="g2"/>
<path d="M188.7,515.1c-2.5,0,-4.7,2,-4.7,4.8c0,2.8,2.3,4.7,4.7,4.7c.3,0,.8,0,1,-.1c1,-.3,1.9,-.8,2.3,-1.1c1.3,-.9,1.6,-2.6,1.6,-3.5c0,-2.4,-2.1,-4.8,-4.9,-4.8m2.7,7.8c-.8,.4,-1.3,.7,-2.2,.7c-1.9,0,-4.1,-1.2,-4.1,-3.9c0,-1.6,.8,-3.6,3.3,-3.6c2.4,0,4.2,2,4.2,4.1c0,.4,0,1.5,-1.2,2.7Z" class="g2"/>
<path d="M201.3,515.2c.3,.7,.4,.9,.4,2.8v4.6c-.5,-.6,-.9,-1.2,-1.4,-1.8l-3.5,-4.7c-.3,-.5,-.4,-.6,-.6,-.9h-1.9c.5,.3,.7,.6,.9,.9c.1,.5,.1,1,.1,1.5v4.9c0,.8,0,1.1,-.3,2h1.5c-.1,-.4,-.3,-.9,-.3,-2.6v-4.8l4.8,6.2c.3,.4,.5,.8,.7,1.2h1.1c-.2,-.5,-.2,-1.2,-.2,-1.6v-5.3c0,-1.5,.1,-1.8,.3,-2.4Z" class="g2"/>
<path d="M206.1,515.2h-1.4c.3,1,.4,1.2,.4,2.1v5.2c0,1,0,1.1,-.4,2h2.1c.7,0,2.2,-.5,3.2,-1.4c1,-.8,1.4,-1.9,1.4,-3.3c0,-2.7,-2.2,-4.6,-5.3,-4.6m2.6,7.8c-1,.7,-2,.8,-2.6,.8v-7.9c2.7,.1,4.2,2.2,4.2,4.2c0,1.5,-1,2.5,-1.6,2.9Z" class="g2"/>
<path d="M214.1,522.9l.1,-2.7c1.1,0,1.3,.1,2.2,.5l.8,-1.3h-3v-2.7l-.1,-.8c1.7,.1,2.6,.3,3.1,.5l.7,-1.2h-5.2c.3,.6,.4,1.4,.4,2v5.1c0,1.1,-.1,1.5,-.5,2.2h4.9l.9,-1.6c-1.4,.6,-2.3,.8,-4.2,.8c-.1,-.2,-.1,-.3,-.1,-.8Z" class="g2"/>
<path d="M227.1,517.6c-.1,-1.5,0,-1.8,.3,-2.4h-1.7c.4,.7,.5,.9,.5,2.8v4.6c-.5,-.6,-1,-1.2,-1.4,-1.8l-3.5,-4.7c-.4,-.5,-.5,-.6,-.7,-.9h-1.8c.4,.3,.6,.6,.9,.9c0,.5,0,1,0,1.5v4.9c0,.8,0,1.1,-.2,2H221c-.2,-.4,-.4,-.9,-.4,-2.6v-4.8l4.8,6.2c.3,.4,.5,.8,.8,1.2h1.1c-.2,-.5,-.2,-1.2,-.2,-1.6Z" class="g2"/>
<path d="M140.3,532.1c-.1,0,-.3,-.1,-.6,-.1c-.2,-.1,-.4,-.2,-.5,-.2c0,-.1,-.1,-.2,-.1,-.2c0,-.1,.1,-.2,.2,-.3c.1,-.1,.2,-.1,.4,-.1c.2,0,.3,0,.4,.1c.1,.1,.2,.2,.2,.4l.3,-.1c0,-.1,0,-.2,-.1,-.4c-.1,-.1,-.2,-.2,-.3,-.2c-.2,-.1,-.3,-.1,-.5,-.1c-.2,0,-.3,0,-.5,.1c-.1,0,-.2,.1,-.3,.2c0,.1,-.1,.3,-.1,.4c0,.1,.1,.2,.1,.3c.1,.1,.2,.2,.3,.2c.1,.1,.2,.1,.5,.2c.2,0,.3,.1,.4,.1c.1,0,.2,.1,.2,.1c.1,.1,.1,.2,.1,.2c0,.1,0,.2,-.1,.3c0,0,-.1,.1,-.2,.1c-.1,0,-.2,.1,-.3,.1c-.2,0,-.3,-.1,-.4,-.1c-.1,-.1,-.2,-.1,-.3,-.2c0,-.1,0,-.2,-.1,-.3h-.3c0,.2,.1,.3,.2,.5c.1,.1,.2,.2,.3,.3c.2,0,.4,.1,.6,.1c.2,0,.3,-.1,.5,-.1c.1,-.1,.2,-.2,.3,-.3c.1,-.1,.1,-.3,.1,-.4c0,-.1,0,-.2,-.1,-.3c-.1,-.1,-.2,-.2,-.3,-.3Z" class="g2"/>
<path d="M141.2,531.2h.8v2.2h.3v-2.2h.8v-.3h-1.9Z" class="g2"/>
<path d="M143.7,533.4h.3v-2.5h-.3v2.5Z" class="g2"/>
<path d="M144.8,533.4h.4v-1.1h1.1V532h-1.1v-.8h1.3v-.3h-1.7Z" class="g2"/>
<path d="M147,531.2h.8v2.2h.3v-2.2h.8v-.3H147Z" class="g2"/>
<path d="M149.8,532.3h1.4V532h-1.4v-.8h1.5v-.3h-1.8v2.5h1.8v-.3h-1.5Z" class="g2"/>
<path d="M151.8,531.2h.8v2.2h.3v-2.2h.8v-.3h-1.9Z" class="g2"/>
<path d="M155.8,533c0,-.1,.1,-.2,.3,-.4c.2,-.1,.4,-.3,.5,-.4c.1,-.1,.1,-.2,.2,-.3c0,-.1,0,-.2,0,-.3c0,-.2,0,-.3,-.2,-.5c-.1,-.1,-.3,-.2,-.5,-.2c-.3,0,-.4,.1,-.6,.2c-.1,.1,-.2,.3,-.2,.5l.3,.1c0,-.2,0,-.3,.1,-.4c.1,-.1,.2,-.1,.4,-.1c.1,0,.2,0,.3,.1c.1,.1,.1,.2,.1,.3c0,.1,0,.2,-.1,.4c-.1,.1,-.3,.3,-.6,.5c-.1,.1,-.3,.3,-.4,.4c0,.1,-.1,.2,-.2,.3q0,.1,0,.2h1.7v-.3h-1.3c.1,0,.1,-.1,.2,-.1Z" class="g2"/>
<path d="M158.2,531.8c-.1,0,-.3,0,-.4,.1l.1,-.6h1V531h-1.2l-.3,1.2l.3,.1q.1,-.1,.2,-.2c.1,0,.2,-.1,.3,-.1c.1,0,.3,.1,.4,.2c0,.1,.1,.2,.1,.4c0,.2,-.1,.3,-.2,.4c-.1,.2,-.2,.2,-.3,.2c-.1,0,-.3,0,-.3,-.1c-.1,-.1,-.2,-.2,-.2,-.4l-.3,.1c0,.2,.1,.3,.2,.5c.2,.1,.3,.2,.6,.2c.2,0,.5,-.1,.6,-.3c.2,-.2,.2,-.4,.2,-.6c0,-.3,-.1,-.5,-.2,-.6c-.2,-.2,-.3,-.2,-.6,-.2Z" class="g2"/>
<path d="M159.7,533.4h.3v-.3h-.3v.3Z" class="g2"/>
<path d="M163.3,532.7c-.1,.1,-.1,.3,-.2,.4c0,-.1,0,-.2,-.1,-.4l-.6,-1.8h-.5v2.5h.4v-2.1l.7,2.1h.3l.7,-2.1v2.1h.3v-2.5h-.4Z" class="g2"/>
<path d="M165.7,530.9l-.9,2.5h.3l.3,-.7h1l.3,.7h.4l-1,-2.5Zm-.2,1.5l.2,-.7c.1,-.2,.1,-.3,.2,-.5c0,.1,.1,.3,.2,.5l.2,.7Z" class="g2"/>
<path d="M169,532.4c0,0,-.1,-.1,-.2,-.1c.3,0,.4,-.1,.6,-.2c.1,-.2,.1,-.3,.1,-.5c0,-.1,0,-.2,-.1,-.4c0,-.1,-.1,-.2,-.3,-.2c-.1,0,-.2,-.1,-.5,-.1h-1.1v2.5h.4v-1.1h.4c0,0,.1,0,.1,0c.1,0,.1,.1,.2,.1c0,0,.1,.1,.2,.2c0,0,.1,.2,.2,.3l.3,.5h.4l-.4,-.7c-.1,-.1,-.2,-.2,-.3,-.3m-.4,-.4h-.7v-.8h.8c.1,0,.3,0,.4,.1c0,.1,.1,.2,.1,.3c0,.1,0,.2,-.1,.2c0,.1,-.1,.2,-.2,.2c-.1,0,-.2,0,-.3,0Z" class="g2"/>
<path d="M170,531.2h.8v2.2h.3v-2.2h.9v-.3h-2Z" class="g2"/>
<path d="M173.9,532.1c-.1,0,-.3,-.1,-.5,-.1c-.3,-.1,-.5,-.2,-.5,-.2c-.1,-.1,-.1,-.2,-.1,-.2c0,-.1,0,-.2,.1,-.3c.1,-.1,.3,-.1,.5,-.1c.1,0,.3,0,.4,.1c.1,.1,.1,.2,.2,.4l.3,-.1c0,-.1,-.1,-.2,-.1,-.4c-.1,-.1,-.2,-.2,-.4,-.2c-.1,-.1,-.3,-.1,-.5,-.1c-.1,0,-.3,0,-.4,.1c-.2,0,-.3,.1,-.3,.2c-.1,.1,-.1,.3,-.1,.4c0,.1,0,.2,.1,.3c0,.1,.1,.2,.2,.2c.1,.1,.3,.1,.5,.2c.2,0,.4,.1,.4,.1c.1,0,.2,.1,.3,.1c0,.1,0,.2,0,.2c0,.1,0,.2,0,.3c-.1,0,-.2,.1,-.3,.1c0,0,-.2,.1,-.3,.1c-.1,0,-.3,-.1,-.4,-.1c-.1,-.1,-.2,-.1,-.2,-.2c-.1,-.1,-.1,-.2,-.1,-.3h-.3c0,.2,0,.3,.1,.5c.1,.1,.2,.2,.4,.3c.1,0,.3,.1,.5,.1c.2,0,.4,-.1,.5,-.1c.2,-.1,.3,-.2,.3,-.3c.1,-.1,.1,-.3,.1,-.4c0,-.1,0,-.2,-.1,-.3c0,-.1,-.1,-.2,-.3,-.3Z" class="g2"/>
<path d="M176.7,531.3c-.1,.1,-.3,.2,-.4,.2v.3c.1,0,.2,0,.3,-.1c.1,-.1,.2,-.2,.3,-.2v1.9h.3v-2.5H177c-.1,.1,-.2,.2,-.3,.4Z" class="g2"/>
<path d="M179.4,531.1c-.2,-.1,-.3,-.2,-.5,-.2c-.2,0,-.4,.1,-.5,.3c-.2,.1,-.2,.3,-.2,.6c0,.2,0,.4,.2,.6c.1,.1,.3,.2,.5,.2c.1,0,.2,-.1,.3,-.1c.1,-.1,.2,-.2,.3,-.3v.1c0,.1,0,.3,-.1,.4c0,.1,0,.2,-.1,.3c0,0,-.1,.1,-.1,.1c-.1,.1,-.2,.1,-.3,.1c-.1,0,-.2,0,-.3,-.1c0,0,-.1,-.1,-.1,-.3h-.3c0,.2,.1,.4,.2,.5c.1,.1,.3,.2,.5,.2c.2,0,.3,-.1,.5,-.2c.1,-.1,.2,-.2,.3,-.4c.1,-.2,.1,-.5,.1,-.8c0,-.3,0,-.5,-.1,-.7c-.1,-.1,-.2,-.3,-.3,-.3m-.1,1.1c-.1,.1,-.2,.1,-.3,.1c-.2,0,-.3,0,-.4,-.1c-.1,-.1,-.1,-.3,-.1,-.4c0,-.2,0,-.3,.1,-.5c.1,-.1,.2,-.1,.4,-.1c.1,0,.2,0,.3,.1c.1,.1,.1,.3,.1,.4c0,.2,0,.4,-.1,.5Z" class="g2"/>
<path d="M181.6,530.9h-.3l-1.1,1.6v.3h1.1v.6h.3v-.6h.3v-.3h-.3Zm-.3,1.6h-.8l.8,-1.1Z" class="g2"/>
<path d="M182.9,533c.1,-.1,.2,-.2,.4,-.4c.2,-.1,.3,-.3,.4,-.4c.1,-.1,.2,-.2,.2,-.3c.1,-.1,.1,-.2,.1,-.3c0,-.2,-.1,-.3,-.2,-.5c-.1,-.1,-.3,-.2,-.6,-.2c-.2,0,-.4,.1,-.5,.2c-.2,.1,-.3,.3,-.3,.5l.3,.1c0,-.2,.1,-.3,.2,-.4c.1,-.1,.2,-.1,.3,-.1c.2,0,.3,0,.4,.1c0,.1,.1,.2,.1,.3c0,.1,-.1,.2,-.2,.4c0,.1,-.2,.3,-.5,.5c-.2,.1,-.3,.3,-.4,.4c-.1,.1,-.2,.2,-.2,.3q0,.1,0,.2H184v-.3h-1.2c0,0,.1,-.1,.1,-.1Z" class="g2"/>
<path d="M167.6,505.2c.7,.1,.7,.9,.7,.9v1.6h2v-6c0,0,.1,-.9,-.4,-1.4c-.4,-.4,-.3,-1.5,-.3,-2.1c0,-1.1,.6,-.8,.6,-1.4c0,-.3,-.3,-.3,-.6,-.7c-.3,-.4,-.7,-2.9,-1.9,-3.3v-2.1h.1l.7,.2l-.3,-.6l.3,-.5h-.6l-.3,-.6l-.3,.6h-.7l.3,.5l-.3,.6l.8,-.2v2.1c-1.1,.4,-1.5,2.9,-1.8,3.3c-.3,.4,-.6,.4,-.6,.7c0,.6,.6,.3,.6,1.4c0,.6,.1,1.7,-.3,2.1c-.5,.5,-.4,1.4,-.4,1.4v5.5h-1.1V500c0,0,0,-1.1,-.6,-1.6c-.5,-.5,-.3,-1.9,-.3,-2.5c0,-1.4,.7,-1,.7,-1.7c0,-.4,-.4,-.4,-.7,-.9c-.4,-.5,-.9,-3.4,-2.2,-3.9v-1.2c.4,0,.7,-.1,1,-.3c-.1,0,-.2,0,-.3,0c-.7,0,-1.3,-.6,-1.3,-1.3c0,-.8,.6,-1.4,1.3,-1.4c.1,0,.2,0,.3,.1c-.3,-.3,-.6,-.4,-1,-.4c-.8,0,-1.5,.7,-1.5,1.7c0,.7,.5,1.3,1.1,1.5v1.3c-1.3,.5,-1.8,3.4,-2.2,3.9c-.3,.5,-.7,.5,-.7,.9c0,.7,.7,.3,.7,1.7c0,.6,.2,2,-.3,2.5c-.6,.5,-.6,1.6,-.6,1.6v7.2h-1v-5.5c0,0,0,-.9,-.5,-1.4c-.4,-.4,-.3,-1.5,-.3,-2.1c0,-1.1,.6,-.8,.6,-1.4c0,-.3,-.3,-.3,-.6,-.7c-.3,-.4,-.7,-2.9,-1.8,-3.3v-2.1h.1l.7,.2l-.3,-.6l.3,-.5h-.6l-.4,-.6l-.3,.6h-.6l.3,.5l-.3,.6l.8,-.2v2.1c-1.1,.4,-1.5,2.9,-1.8,3.3c-.3,.4,-.6,.4,-.6,.7c0,.6,.6,.3,.6,1.4c0,.6,.1,1.7,-.3,2.1c-.5,.5,-.5,1.4,-.5,1.4v6h2.1v-1.6c0,0,0,-.8,.6,-.9h.1c.7,.1,.7,.9,.7,.9v1.6h5.1v-3.9c0,0,0,-1,1.2,-1c1.2,0,1.2,1.4,1.2,1.4v3.5h5.2v-1.6c0,0,0,-.8,.7,-.9Zm-14.2,-12h.1c.9,.3,1.5,2.9,1.5,3c-.4,-.1,-.9,-.2,-1.5,-.2h-.1c-.5,0,-1.1,.1,-1.5,.2c0,-.1,.6,-2.7,1.5,-3m-1.6,3.3c.4,-.1,.8,-.2,1.6,-.2h.1c.8,0,1.2,.1,1.6,.2c.2,0,.3,.2,.3,.3c0,.1,-.1,.2,-.4,.1c-.6,-.1,-1.2,-.1,-1.5,-.1h-.1c-.3,0,-.9,0,-1.5,.1c-.3,.1,-.4,0,-.4,-.1c0,-.1,.1,-.3,.3,-.3m3.1,2.2h-.5c-.2,0,-.2,-.1,-.2,-.1v-.3c0,-.1,.2,-.1,.2,-.1h.5c.1,0,.1,.1,.1,.1v.3c0,.1,-.1,.1,-.1,.1m.1,.6v.3c0,.1,-.1,.1,-.1,.1h-.5c-.2,0,-.2,-.1,-.2,-.1v-.3c0,-.1,.2,-.1,.2,-.1h.5c.1,0,.1,.1,.1,.1m-.1,-1.6h-.5c-.2,0,-.2,-.1,-.2,-.1v-.2c0,-.1,.2,-.1,.2,-.1h.5c.1,0,.1,.1,.1,.1v.2c0,.1,-.1,.1,-.1,.1m-1.2,0h-.5c-.1,0,-.1,-.1,-.1,-.1v-.3c0,-.1,.1,-.1,.1,-.1h.5c.2,0,.2,.1,.2,.1v.3c0,.1,-.2,.1,-.2,.1m.2,.6v.3c0,.1,-.2,.1,-.2,.1h-.5c-.1,0,-.1,-.1,-.1,-.1v-.3c0,-.1,.1,-.1,.1,-.1h.5c.2,0,.2,.1,.2,.1m-1.3,.4H152c-.1,0,-.1,-.1,-.1,-.1v-.3c0,-.1,.1,-.1,.1,-.1h.6c.1,0,.1,.1,.1,.1v.3c0,.1,-.1,.1,-.1,.1m.1,.6v.3c0,.1,-.1,.1,-.1,.1H152c-.1,0,-.1,-.1,-.1,-.1v-.3c0,-.1,.1,-.1,.1,-.1h.6c.1,0,.1,.1,.1,.1m-.1,-1.6H152c-.1,0,-.1,-.1,-.1,-.1v-.2c0,-.1,.1,-.1,.1,-.1h.6c.1,-.1,.1,.1,.1,.1v.2c0,.1,-.1,.1,-.1,.1m-.5,8.8c0,.1,-.2,.1,-.2,.1h-.5c-.1,0,-.1,-.1,-.1,-.1v-.3c0,-.1,.1,-.1,.1,-.1h.5c.2,0,.2,.1,.2,.1Zm0,-1c0,.1,-.2,.1,-.2,.1h-.5c-.1,0,-.1,-.1,-.1,-.1v-.3c0,-.1,.1,-.1,.1,-.1h.5c.2,0,.2,.1,.2,.1Zm0,-1c0,.1,-.2,.1,-.2,.1h-.5c-.1,0,-.1,-.1,-.1,-.1v-.4c0,-.1,.1,-.1,.1,-.1h.5c.2,0,.2,.1,.2,.1Zm0,-1.1c0,.1,-.2,.1,-.2,.1h-.5c-.1,0,-.1,-.1,-.1,-.1v-.3c0,-.1,.1,-.1,.1,-.1h.5c.2,0,.2,.1,.2,.1Zm0,-1c0,.1,-.2,.1,-.2,.1h-.5c-.1,0,-.1,-.1,-.1,-.1v-.3c0,-.1,.1,-.1,.1,-.1h.5c.2,0,.2,.1,.2,.1Zm0,-1c0,.1,-.2,.1,-.2,.1h-.5c-.1,0,-.1,-.1,-.1,-.1v-.2c0,-.2,.1,-.2,.1,-.2h.5c.2,0,.2,.1,.2,.1Zm1.2,3.1c0,.1,-.2,.1,-.2,.1h-.5c-.1,0,-.1,-.1,-.1,-.1v-.4c0,-.1,.1,-.1,.1,-.1h.5c.2,0,.2,.1,.2,.1Zm0,-1.1c0,.1,-.2,.1,-.2,.1h-.5c-.1,0,-.1,-.1,-.1,-.1v-.3c0,-.1,.1,-.1,.1,-.1h.5c.2,0,.2,.1,.2,.1Zm0,-1c0,.1,-.2,.1,-.2,.1h-.5c-.1,0,-.1,-.1,-.1,-.1v-.3c0,-.1,.1,-.1,.1,-.1h.5c.2,0,.2,.1,.2,.1Zm0,-1c0,.1,-.2,.1,-.2,.1h-.5c-.1,0,-.1,-.1,-.1,-.1V501c0,-.1,.1,-.1,.1,-.1h.5c.2,0,.2,.1,.2,.1Zm.2,-1.7h-.3c-.1,0,-.1,-.1,-.1,-.1v-.3c0,-.1,.1,-.1,.1,-.1h.5c.2,0,.2,.1,.2,.1v.3c0,.1,-.2,.1,-.2,.1h-.2Zm1,4.8c0,.1,-.2,.1,-.2,.1h-.5c-.2,0,-.2,-.1,-.2,-.1v-.4c0,-.1,.2,-.1,.2,-.1h.5c.2,0,.2,.1,.2,.1Zm0,-1.1c0,.1,-.2,.1,-.2,.1h-.5c-.2,0,-.2,-.1,-.2,-.1v-.3c0,-.1,.2,-.1,.2,-.1h.5c.2,0,.2,.1,.2,.1Zm0,-1c0,.1,-.2,.1,-.2,.1h-.5c-.2,0,-.2,-.1,-.2,-.1v-.3c0,-.1,.2,-.1,.2,-.1h.5c.2,0,.2,.1,.2,.1Zm0,-1c0,.1,-.2,.1,-.2,.1h-.5c-.2,0,-.2,-.1,-.2,-.1V501c0,-.1,.2,-.1,.2,-.1h.5c.2,0,.2,.1,.2,.1Zm1.1,5.1c0,.1,-.1,.1,-.1,.1H155c-.2,0,-.2,-.1,-.2,-.1v-.3c0,-.1,.2,-.1,.2,-.1h.5c.1,0,.1,.1,.1,.1Zm0,-1c0,.1,-.1,.1,-.1,.1H155c-.2,0,-.2,-.1,-.2,-.1v-.3c0,-.1,.2,-.1,.2,-.1h.5c.1,0,.1,.1,.1,.1Zm0,-1c0,.1,-.1,.1,-.1,.1H155c-.2,0,-.2,-.1,-.2,-.1v-.4c0,-.1,.2,-.1,.2,-.1h.5c.1,0,.1,.1,.1,.1Zm0,-1.1c0,.1,-.1,.1,-.1,.1H155c-.2,0,-.2,-.1,-.2,-.1v-.3c0,-.1,.2,-.1,.2,-.1h.5c.1,0,.1,.1,.1,.1Zm0,-1c0,.1,-.1,.1,-.1,.1H155c-.2,0,-.2,-.1,-.2,-.1v-.3c0,-.1,.2,-.1,.2,-.1h.5c.1,0,.1,.1,.1,.1Zm0,-1c0,.1,-.1,.1,-.1,.1H155c-.2,0,-.2,-.1,-.2,-.1v-.3c0,-.1,.2,-.1,.2,-.1h.5c.1,0,.1,.2,.1,.2Zm4.9,-11.5c1.1,.3,1.8,3.4,1.9,3.5c-.5,-.1,-1.2,-.2,-1.8,-.2q-.1,0,-.1,0c-.7,0,-1.3,.1,-1.8,.2c0,-.1,.7,-3.2,1.8,-3.5m-2,3.9c.5,-.2,1,-.3,2,-.3c1.1,0,1.5,.1,2,.3c.3,0,.3,.2,.3,.3c0,.1,-.1,.3,-.4,.2c-.7,-.2,-1.6,-.2,-1.8,-.2h-.2c-.2,0,-1,0,-1.8,.2c-.3,.1,-.4,-.1,-.4,-.2c0,-.1,.1,-.3,.3,-.3m3.8,1.5h-.7c-.1,0,-.1,-.1,-.1,-.1v-.4c0,-.1,.1,-.1,.1,-.1l.7,.1c.1,0,.1,.1,.1,.1v.3c0,.1,-.1,.1,-.1,.1m.1,.7v.4c0,.1,-.1,.1,-.1,.1h-.7c-.1,0,-.1,-.1,-.1,-.1V496c0,-.1,.1,-.1,.1,-.1h.7c.1,0,.1,.1,.1,.1m-1.5,-.7h-.8c-.1,0,-.1,-.1,-.1,-.1v-.4c0,-.1,.1,-.1,.1,-.1h.8c.1,0,.1,.1,.1,.1v.4c0,.1,-.1,.1,-.1,.1m.1,.7v.4c0,.1,-.1,.1,-.1,.1h-.8c-.1,0,-.1,-.1,-.1,-.1V496c0,-.1,.1,-.1,.1,-.1h.8c.1,0,.1,.1,.1,.1m-1.5,-.7h-.8c-.1,0,-.1,-.1,-.1,-.1v-.3c0,-.1,.1,-.1,.1,-.1l.8,-.1c.1,0,.1,.1,.1,.1v.4c0,.1,-.1,.1,-.1,.1m.1,.7v.4c0,.1,-.1,.1,-.1,.1h-.8c-.1,0,-.1,-.1,-.1,-.1V496c0,-.1,.1,-.1,.1,-.1h.8c.1,0,.1,.1,.1,.1m-.8,9.8c0,.1,-.1,.1,-.1,.1H158c-.1,0,-.1,-.1,-.1,-.1v-.4c0,-.1,.1,-.1,.1,-.1h.7c.1,0,.1,.1,.1,.1Zm0,-1.2c0,.1,-.1,.1,-.1,.1H158c-.1,0,-.1,-.1,-.1,-.1v-.4c0,-.2,.1,-.2,.1,-.2h.7c.1,0,.1,.2,.1,.2Zm0,-1.3c0,.2,-.1,.2,-.1,.2H158c-.1,0,-.1,-.2,-.1,-.2v-.4c0,-.1,.1,-.1,.1,-.1h.7c.1,0,.1,.1,.1,.1Zm0,-1.2c0,.1,-.1,.1,-.1,.1H158c-.1,0,-.1,-.1,-.1,-.1v-.4c0,-.1,.1,-.1,.1,-.1h.7c.1,0,.1,.1,.1,.1Zm0,-1.2c0,.1,-.1,.1,-.1,.1H158c-.1,0,-.1,-.1,-.1,-.1v-.5c0,-.1,.1,-.1,.1,-.1h.7c.1,0,.1,.1,.1,.1Zm0,-1.3c0,.2,-.1,.2,-.1,.2H158c-.1,0,-.1,-.2,-.1,-.2v-.3c0,-.1,.1,-.1,.1,-.1l.7,-.1c.1,0,.1,.2,.1,.2Zm-.1,-1.9c-.1,0,-.1,-.1,-.1,-.1v-.4c0,-.1,.1,-.1,.1,-.1h.8c.1,0,.1,.1,.1,.1v.4c0,.1,-.1,.1,-.1,.1Zm1.6,4.4c0,.1,-.1,.1,-.1,.1h-.8c-.1,0,-.1,-.1,-.1,-.1v-.4c0,-.1,.1,-.1,.1,-.1h.8c.1,0,.1,.1,.1,.1Zm0,-1.2c0,.1,-.1,.1,-.1,.1h-.8c-.1,0,-.1,-.1,-.1,-.1v-.5c0,-.1,.1,-.1,.1,-.1h.8c.1,0,.1,.1,.1,.1Zm0,-1.3c0,.2,-.1,.2,-.1,.2h-.8c-.1,0,-.1,-.2,-.1,-.2v-.4c0,-.1,.1,-.1,.1,-.1h.8c.1,0,.1,.1,.1,.1Zm.2,-1.9h-.4c-.1,0,-.1,-.1,-.1,-.1v-.4c0,-.1,.1,-.1,.1,-.1h.4V497v.1h.4c.1,0,.1,.1,.1,.1v.4c0,.1,-.1,.1,-.1,.1h-.3Zm1.2,4.4c0,.1,-.1,.1,-.1,.1h-.7c-.2,0,-.2,-.1,-.2,-.1v-.4c0,-.1,.2,-.1,.2,-.1h.7c.1,0,.1,.1,.1,.1Zm0,-1.2c0,.1,-.1,.1,-.1,.1h-.7c-.2,0,-.2,-.1,-.2,-.1v-.5c0,-.1,.2,-.1,.2,-.1h.7c.1,0,.1,.1,.1,.1Zm0,-1.3c0,.2,-.1,.2,-.1,.2h-.7c-.2,0,-.2,-.2,-.2,-.2v-.4c0,-.1,.2,-.1,.2,-.1h.7c.1,0,.1,.1,.1,.1Zm-.1,-1.9c-.1,0,-.1,-.1,-.1,-.1v-.4c0,-.1,.1,-.1,.1,-.1h.7c.1,0,.1,.1,.1,.1v.4c0,.1,-.1,.1,-.1,.1Zm1.5,8.1c0,.1,-.1,.1,-.1,.1h-.7c-.1,0,-.1,-.1,-.1,-.1v-.4c0,-.1,.1,-.1,.1,-.1h.7c.1,0,.1,.1,.1,.1Zm0,-1.2c0,.1,-.1,.1,-.1,.1h-.7c-.1,0,-.1,-.1,-.1,-.1v-.4c0,-.2,.1,-.2,.1,-.2h.7c.1,0,.1,.2,.1,.2Zm0,-1.3c0,.2,-.1,.2,-.1,.2h-.7c-.1,0,-.1,-.2,-.1,-.2v-.4c0,-.1,.1,-.1,.1,-.1h.7c.1,0,.1,.1,.1,.1Zm0,-1.2c0,.1,-.1,.1,-.1,.1h-.7c-.1,0,-.1,-.1,-.1,-.1v-.4c0,-.1,.1,-.1,.1,-.1h.7c.1,0,.1,.1,.1,.1Zm0,-1.2c0,.1,-.1,.1,-.1,.1h-.7c-.1,0,-.1,-.1,-.1,-.1v-.5c0,-.1,.1,-.1,.1,-.1h.7c.1,0,.1,.1,.1,.1Zm0,-1.3c0,.2,-.1,.2,-.1,.2h-.7c-.1,0,-.1,-.2,-.1,-.2v-.3c0,-.2,.1,-.2,.1,-.2l.7,.1c.1,0,.1,.1,.1,.1Zm4.5,.1h-.3c-.1,0,-.1,-.1,-.1,-.1v-.3c0,-.1,.1,-.1,.1,-.1h.6c.1,0,.1,.1,.1,.1v.3c0,.1,-.1,.1,-.1,.1h-.3Zm-.3,-1.5h.6c.1,0,.1,.1,.1,.1v.3c0,.1,-.1,.1,-.1,.1h-.6c-.1,0,-.1,-.1,-.1,-.1v-.3c0,-.1,.1,-.1,.1,-.1m-.1,-.6v-.3c0,-.1,.1,-.1,.1,-.1h.6c.1,0,.1,.1,.1,.1v.3c0,.1,-.1,.1,-.1,.1h-.6c-.1,0,-.1,-.1,-.1,-.1m1.4,6.9c0,.1,-.1,.1,-.1,.1h-.6c-.1,0,-.1,-.1,-.1,-.1v-.4c0,-.1,.1,-.1,.1,-.1h.6c.1,0,.1,.1,.1,.1Zm0,-1.1c0,.1,-.1,.1,-.1,.1h-.6c-.1,0,-.1,-.1,-.1,-.1v-.3c0,-.1,.1,-.1,.1,-.1h.6c.1,0,.1,.1,.1,.1Zm0,-1c0,.1,-.1,.1,-.1,.1h-.6c-.1,0,-.1,-.1,-.1,-.1v-.3c0,-.1,.1,-.1,.1,-.1h.6c.1,0,.1,.1,.1,.1Zm0,-1c0,.1,-.1,.1,-.1,.1h-.6c-.1,0,-.1,-.1,-.1,-.1V501c0,-.1,.1,-.1,.1,-.1h.6c.1,0,.1,.1,.1,.1Zm-.1,-3.2h.6c.1,0,.1,.1,.1,.1v.3c0,.1,-.1,.1,-.1,.1h-.6c-.1,0,-.1,-.1,-.1,-.1v-.3c0,-.1,.1,-.1,.1,-.1m-.1,-.6v-.2c0,-.1,.1,-.1,.1,-.1h.6c.1,0,.1,.1,.1,.1v.2c0,.1,-.1,.1,-.1,.1h-.6c-.1,0,-.1,-.1,-.1,-.1m.1,1.6h.6c.1,0,.1,.1,.1,.1v.3c0,.1,-.1,.1,-.1,.1h-.6c-.1,0,-.1,-.1,-.1,-.1v-.3c0,-.1,.1,-.1,.1,-.1m1.3,7.3c0,.1,-.1,.1,-.1,.1h-.6c-.1,0,-.1,-.1,-.1,-.1v-.3c0,-.1,.1,-.1,.1,-.1h.6c.1,0,.1,.1,.1,.1Zm0,-1c0,.1,-.1,.1,-.1,.1h-.6c-.1,0,-.1,-.1,-.1,-.1v-.3c0,-.1,.1,-.1,.1,-.1h.6c.1,0,.1,.1,.1,.1Zm0,-1c0,.1,-.1,.1,-.1,.1h-.6c-.1,0,-.1,-.1,-.1,-.1v-.4c0,-.1,.1,-.1,.1,-.1h.6c.1,0,.1,.1,.1,.1Zm0,-1.1c0,.1,-.1,.1,-.1,.1h-.6c-.1,0,-.1,-.1,-.1,-.1v-.3c0,-.1,.1,-.1,.1,-.1h.6c.1,0,.1,.1,.1,.1Zm0,-1c0,.1,-.1,.1,-.1,.1h-.6c-.1,0,-.1,-.1,-.1,-.1v-.3c0,-.1,.1,-.1,.1,-.1h.6c.1,0,.1,.1,.1,.1Zm-.1,-1.4c.1,0,.1,.2,.1,.2v.2c0,.1,-.1,.1,-.1,.1h-.6c-.1,0,-.1,-.1,-.1,-.1v-.3c0,-.1,.1,-.1,.1,-.1Zm-2.1,-7.8c.9,.3,1.5,2.9,1.5,3c-.4,-.1,-.9,-.2,-1.5,-.2c-.6,0,-1.1,.1,-1.5,.2c0,-.1,.6,-2.7,1.5,-3m-1.7,3.3c.4,-.1,.8,-.2,1.7,-.2c.9,0,1.3,.1,1.6,.2c.3,0,.3,.2,.3,.3c0,.1,-.1,.2,-.3,.1c-.7,-.1,-1.4,-.1,-1.6,-.1c-.2,0,-.9,0,-1.6,.1c-.3,.1,-.4,0,-.4,-.1c0,-.1,.1,-.3,.3,-.3m.8,2.2h-.6c-.1,0,-.1,-.1,-.1,-.1v-.3c0,-.1,.1,-.1,.1,-.1h.6c.1,0,.1,.1,.1,.1v.3c0,.1,-.1,.1,-.1,.1m.1,.6v.3c0,.1,-.1,.1,-.1,.1h-.6c-.1,0,-.1,-.1,-.1,-.1v-.3c0,-.1,.1,-.1,.1,-.1h.6c.1,0,.1,.1,.1,.1m-.1,-1.6h-.6c-.1,0,-.1,-.1,-.1,-.1v-.2c0,-.1,.1,-.1,.1,-.1h.6c.1,-.1,.1,.1,.1,.1v.2c0,.1,-.1,.1,-.1,.1m-.5,8.8c0,.1,-.1,.1,-.1,.1h-.6c-.1,0,-.1,-.1,-.1,-.1v-.3c0,-.1,.1,-.1,.1,-.1h.6c.1,0,.1,.1,.1,.1Zm0,-1c0,.1,-.1,.1,-.1,.1h-.6c-.1,0,-.1,-.1,-.1,-.1v-.3c0,-.1,.1,-.1,.1,-.1h.6c.1,0,.1,.1,.1,.1Zm0,-1c0,.1,-.1,.1,-.1,.1h-.6c-.1,0,-.1,-.1,-.1,-.1v-.4c0,-.1,.1,-.1,.1,-.1h.6c.1,0,.1,.1,.1,.1Zm0,-1.1c0,.1,-.1,.1,-.1,.1h-.6c-.1,0,-.1,-.1,-.1,-.1v-.3c0,-.1,.1,-.1,.1,-.1h.6c.1,0,.1,.1,.1,.1Zm0,-1c0,.1,-.1,.1,-.1,.1h-.6c-.1,0,-.1,-.1,-.1,-.1v-.3c0,-.1,.1,-.1,.1,-.1h.6c.1,0,.1,.1,.1,.1Zm0,-1c0,.1,-.1,.1,-.1,.1h-.6c-.1,0,-.1,-.1,-.1,-.1v-.2c0,-.2,.1,-.2,.1,-.2h.6c.1,0,.1,.1,.1,.1Zm1.2,3.1c0,.1,-.1,.1,-.1,.1h-.6c-.1,0,-.1,-.1,-.1,-.1v-.4c0,-.1,.1,-.1,.1,-.1h.6c.1,0,.1,.1,.1,.1Zm0,-1.1c0,.1,-.1,.1,-.1,.1h-.6c-.1,0,-.1,-.1,-.1,-.1v-.3c0,-.1,.1,-.1,.1,-.1h.6c.1,0,.1,.1,.1,.1Zm0,-1c0,.1,-.1,.1,-.1,.1h-.6c-.1,0,-.1,-.1,-.1,-.1v-.3c0,-.1,.1,-.1,.1,-.1h.6c.1,0,.1,.1,.1,.1Zm0,-1c0,.1,-.1,.1,-.1,.1h-.6c-.1,0,-.1,-.1,-.1,-.1V501c0,-.1,.1,-.1,.1,-.1h.6c.1,0,.1,.1,.1,.1Z" class="g2"/>
</svg>